<svg fill="none" height="300" viewBox="0 0 300 300" width="300" xmlns="http://www.w3.org/2000/svg" xmlns:xlink="http://www.w3.org/1999/xlink"><linearGradient id="a"><stop offset="0" stop-color="#00b87e"/><stop offset="1" stop-color="#157857"/></linearGradient><linearGradient id="b" gradientUnits="userSpaceOnUse" x1="264.477" x2="35.0336" xlink:href="#a" y1="99.1725" y2="99.1725"/><linearGradient id="c" gradientUnits="userSpaceOnUse" x1="35.0672" x2="264.455" xlink:href="#a" y1="178.56" y2="178.56"/><linearGradient id="d" gradientUnits="userSpaceOnUse" x1="264.477" x2="35.09" xlink:href="#a" y1="257.97" y2="257.97"/><clipPath id="e"><path d="m0 0h300v300h-300z"/></clipPath><g clip-path="url(#e)"><path d="m257.711 22.0263c-4.591-3.3834-11.967-7.2067-23.324-10.8609-22.477-7.21803-52.545-11.1654-84.609-11.1654s-62.1991 3.94737-84.6878 11.1654c-11.3571 3.6542-18.7218 7.4662-23.3233 10.8609-5.0075 3.688-6.7669 6.8797-6.7669 8.8196 0 1.9398 1.7256 5.1315 6.7669 8.8195 4.6015 3.3835 11.9662 7.2068 23.3233 10.8609 22.4887 7.2181 52.5448 11.1993 84.6538 11.1993s62.166-3.9812 84.621-11.1993c11.357-3.6541 18.721-7.4661 23.323-10.8609 5.007-3.688 6.767-6.8797 6.767-8.8195 0-1.9399-1.737-5.1316-6.744-8.8196z" fill="#00b87e"/><path d="m257.744 119.087c-4.601 3.383-11.966 7.195-23.323 10.849-22.489 7.23-52.545 11.211-84.654 11.211s-62.1657-3.981-84.6432-11.211c-11.3571-3.654-18.7218-7.466-23.3233-10.849-5.0075-3.7-6.7669-6.891-6.7669-8.831v-53.8649c24.1692 15.1466 69.5864 22.985 114.6994 22.985s90.609-7.8384 114.744-22.985v53.9099c0 1.895-1.725 5.086-6.733 8.786z" fill="url(#b)"/><path d="m41.7669 198.496c4.6015 3.384 11.9662 7.196 23.3233 10.85 22.4887 7.229 52.5448 11.21 84.6538 11.21s62.166-4.015 84.621-11.21c11.357-3.654 18.733-7.466 23.323-10.85 5.007-3.699 6.767-6.891 6.767-8.831v-53.909c-24.147 15.191-69.564 23.03-114.677 23.03s-90.575-7.839-114.7103-23.03v53.909c-.0339 1.94 1.6917 5.132 6.6992 8.831z" fill="url(#c)"/><path d="m264.477 215.166v53.909c0 3.722-6.327 12.057-30.056 19.681-22.489 7.229-52.545 11.244-84.688 11.244s-62.1317-4.015-84.5866-11.278c-23.6842-7.624-30.0564-15.959-30.0564-19.68v-53.91c24.1128 15.225 69.53 23.064 114.643 23.064s90.609-7.839 114.744-23.03z" fill="url(#d)"/><path d="m161.237 92.436h-22.996c-3.395 0-6.147 2.752-6.147 6.1467v22.9963c0 3.395 2.752 6.147 6.147 6.147h22.996c3.395 0 6.146-2.752 6.146-6.147v-22.9963c0-3.3947-2.751-6.1467-6.146-6.1467z" fill="#00b87e"/><path d="m161.237 172.026h-22.996c-3.395 0-6.147 2.752-6.147 6.147v22.996c0 3.395 2.752 6.147 6.147 6.147h22.996c3.395 0 6.146-2.752 6.146-6.147v-22.996c0-3.395-2.751-6.147-6.146-6.147z" fill="#157857"/><path d="m161.237 251.617h-22.996c-3.395 0-6.147 2.752-6.147 6.146v22.997c0 3.394 2.752 6.146 6.147 6.146h22.996c3.395 0 6.146-2.752 6.146-6.146v-22.997c0-3.394-2.751-6.146-6.146-6.146z" fill="#00b87e"/></g></svg>