<?xml version="1.0" encoding="UTF-8"?>
<svg width="400" height="400" version="1.1" xmlns="http://www.w3.org/2000/svg">
 <path d="m397.5 199.99c0 107.47-88.43 194.54-197.51 194.54s-197.49-87.074-197.49-194.54c0-107.43 88.418-194.53 197.49-194.53 109.08 0 197.51 87.098 197.51 194.53" fill="#0054f0"/>
 <path d="m269.21 60.07c-16.52 0-32.283 7.0486-43.743 18.514-16.477 16.746-24.033 41.481-29.087 58.551l-16.831-0.23277c-1.149 0-2.1068 0.98621-2.3635 1.8174l-2.5605 8.6573c-0.25669 0.88009 0.28739 2.0144 1.522 2.0144l16.813-0.22382s-22.623 90.67-27.207 109.02c-5.7328 23.041-15.008 46.503-21.603 54.808-5.91 7.4441-9.8523 9.7495-13.868 9.7495-5.5922 6e-3 -8.4946-4.04-10.09-10.69-1.0756-4.8038-4.2004-11.388-11.137-11.388-7.1935 0-17.073 8.1815-17.073 18.04 0 13.342 22.282 16.339 29.732 16.339 14.686 0 33.673-9.3463 46.465-24.002 16.269-18.396 25.299-41.472 33.752-73.949l20.663-88.068 21.63 0.37601c1.754 0 2.541-1.2352 2.8649-2.1397l2.8022-8.0664c0.3117-0.92286-0.17981-2.0681-1.5488-2.0681h-22.337c5.3355-18.677 13.348-46.267 28.541-61.46 1.3323-1.3446 5.1293-4.5947 8.5946-4.6375 6.0689-0.0489 7.7654 3.426 10.296 9.0243 2.4814 5.5128 2.0569 14.978 10.43 14.978 9.6748 0 16.947-10.81 16.947-18.272 0-10.139-17.571-16.688-31.603-16.688zm-118.74 16.195c-9.8215 0.23225-17.079 8.4072-17.708 18.443-0.59283 9.8154 5.3752 15.426 14.011 15.426 14.699 0 17.621-13.326 17.914-17.995 0.69673-11.441-7.2007-15.873-14.217-15.873zm-12.319 57.933c-20.792 0-43.096 24.286-51.72 34.065-0.61729 0.71506-1.0295 1.9139 0.24171 3.1424l3.9123 3.7333c0.73952 0.67229 2.052 0.72221 2.8649-0.1701 0 0 10.25-11.141 13.984-13.886 0.99621-0.76397 2.5984-1.7905 3.5274-1.7905 1.3323 0 1.9785 1.9862 1.9785 3.0618 0 3.4653-3.4928 11.715-5.0941 15.981l-16.025 40.538c-5.5922 13.599-8.2096 20.818-8.2096 26.948 0 6.9246 3.8752 12.391 13.483 12.391 22.24 6e-3 50.305-33.501 50.305-33.501 1.1001-1.2468 0.55306-2.4681-0.12534-3.0976l-4.1541-3.966c-0.6845-0.66618-1.9549-0.9165-2.9633 0.11636 0 0-15.028 16.715-20.144 16.715-2.3102 0-2.2471-2.8273-2.2471-3.2856 0-2.463 1.5214-6.9568 2.3098-9.096l6.4101-16.786 15.452-37.306c3.1964-7.4746 7.0189-17.135 7.0189-23.528 0-8.2691-6.2771-10.278-10.806-10.278zm109.77 90.181c-9.2164 0.22002-15.917 7.8936-16.321 17.306-0.40949 9.2104 5.2863 14.468 13.384 14.468 13.819 0 16.337-12.491 16.527-16.867 0.47671-10.738-7.0262-14.906-13.59-14.906zm48.13 0c-9.2103 0.22002-15.92 7.8936-16.33 17.306-0.40337 9.2104 5.3042 14.468 13.402 14.468 13.812 0 16.328-12.491 16.518-16.867 0.47671-10.738-7.0262-14.906-13.59-14.906zm48.148 0c-9.2103 0.22002-15.92 7.8936-16.33 17.306-0.40338 9.2104 5.3042 14.468 13.402 14.468 13.819 0 16.334-12.491 16.518-16.867 0.47673-10.738-7.0262-14.906-13.59-14.906z" fill="#fff"/>
</svg>
