<svg id="svg" version="1.1" xmlns="http://www.w3.org/2000/svg"
    xmlns:xlink="http://www.w3.org/1999/xlink" width="400" height="246.15384615384616"
    viewBox="0, 0, 400,246.15384615384616">
    <g id="svgg">
        <path id="path0"
            d="M256.709 57.453 C 255.391 57.831,253.292 59.195,253.292 59.674 C 253.292 59.854,253.129 60.137,252.929 60.303 C 251.012 61.894,251.519 67.267,253.806 69.607 C 256.536 72.399,262.039 72.286,264.478 69.387 C 266.249 67.283,266.870 63.239,265.752 61.095 C 264.186 58.093,260.149 56.467,256.709 57.453 M182.154 160.830 C 176.011 161.947,172.001 168.078,173.004 174.821 C 173.744 179.793,177.636 183.874,182.359 184.628 C 183.240 184.769,184.054 184.942,184.168 185.013 C 184.522 185.231,189.334 184.368,189.875 183.989 C 190.156 183.792,190.538 183.631,190.724 183.631 C 191.536 183.631,195.025 180.254,195.811 178.708 C 200.805 168.887,193.126 158.836,182.154 160.830 M253.773 160.832 C 252.887 161.011,251.967 161.432,251.155 162.031 C 249.635 163.152,249.359 163.169,248.633 162.187 C 248.059 161.411,246.302 161.230,245.652 161.880 C 245.497 162.035,245.291 180.231,245.403 183.907 C 245.412 184.207,245.739 184.338,246.708 184.433 C 248.981 184.656,248.862 185.047,248.862 177.392 C 248.862 166.187,250.296 163.339,255.672 163.864 C 259.715 164.259,260.156 165.571,260.174 177.269 L 260.185 184.322 261.477 184.423 C 262.188 184.479,263.029 184.433,263.347 184.321 L 263.925 184.117 263.812 175.689 C 263.688 166.454,263.533 165.368,262.025 163.192 C 260.493 160.982,257.403 160.098,253.773 160.832 M138.207 160.934 C 134.512 162.214,132.837 166.577,134.828 169.735 C 135.724 171.156,136.767 171.906,139.634 173.193 C 144.244 175.262,145.250 176.737,143.886 179.429 C 142.262 182.633,136.979 182.290,136.242 178.933 C 135.880 177.289,133.140 177.625,132.973 179.334 C 132.696 182.164,137.354 185.288,141.169 184.831 C 143.633 184.537,146.708 182.658,146.708 181.448 C 146.708 181.248,146.895 180.878,147.125 180.624 C 147.429 180.288,147.570 179.577,147.646 177.990 C 147.816 174.418,146.752 173.084,141.723 170.568 C 137.364 168.388,136.642 167.539,137.582 165.697 C 138.713 163.479,141.615 163.068,143.310 164.885 C 144.402 166.056,144.628 166.101,145.832 165.391 C 147.032 164.683,147.080 164.013,146.010 162.864 C 144.347 161.078,140.523 160.132,138.207 160.934 M225.231 160.946 C 223.156 161.249,218.585 164.558,218.585 165.757 C 218.585 165.921,218.465 166.175,218.320 166.320 C 216.207 168.433,216.228 175.310,218.360 179.487 C 221.083 184.826,229.464 186.656,234.298 182.969 C 235.290 182.213,235.864 182.396,236.063 183.534 C 236.205 184.346,239.087 184.793,239.543 184.074 C 239.959 183.419,239.796 162.632,239.371 162.024 C 238.690 161.052,236.743 161.239,236.094 162.338 C 235.555 163.252,234.856 163.454,234.349 162.843 C 233.060 161.290,228.857 160.415,225.231 160.946 M153.000 161.206 C 152.890 161.384,152.766 180.411,152.852 183.906 C 152.863 184.385,154.848 184.690,155.741 184.351 C 156.303 184.137,156.308 184.096,156.308 179.833 C 156.308 173.318,156.918 172.747,160.006 176.377 C 164.862 182.085,166.988 184.373,167.463 184.400 C 168.040 184.434,170.514 184.427,171.008 184.391 C 171.557 184.351,171.021 183.542,168.875 181.169 C 167.711 179.883,166.429 178.451,166.026 177.986 C 164.014 175.670,162.812 174.307,161.964 173.381 C 160.963 172.287,160.492 171.541,160.492 171.046 C 160.492 170.876,162.542 168.678,165.046 166.160 C 170.352 160.827,170.277 160.985,167.532 160.985 L 165.463 160.985 161.448 165.169 C 159.240 167.471,157.374 169.352,157.301 169.350 C 156.552 169.329,156.428 168.784,156.308 164.994 L 156.185 161.108 154.668 161.035 C 153.833 160.995,153.083 161.072,153.000 161.206 M201.484 161.220 C 201.264 161.575,201.110 183.729,201.325 184.076 C 201.599 184.519,214.405 184.510,214.686 184.066 C 214.998 183.575,214.910 181.829,214.550 181.354 C 214.260 180.972,213.728 180.923,209.898 180.923 L 205.574 180.923 205.048 180.254 C 204.529 179.595,204.522 179.448,204.577 170.571 C 204.607 165.613,204.553 161.428,204.455 161.271 C 204.243 160.927,201.692 160.884,201.484 161.220 M188.927 164.851 C 193.266 167.076,195.019 172.209,192.885 176.445 C 189.214 183.736,179.335 183.110,176.819 175.427 C 174.369 167.948,181.987 161.294,188.927 164.851 M231.511 164.659 C 235.593 166.657,237.631 172.776,235.490 176.606 C 235.127 177.255,234.831 177.914,234.831 178.072 C 234.831 178.230,234.360 178.813,233.785 179.368 C 229.694 183.313,223.862 182.291,221.351 177.189 C 217.687 169.747,224.568 161.262,231.511 164.659 "
            stroke="none" fill="#15599b" fill-rule="evenodd"></path>
        <path id="path1"
            d="M199.362 57.258 C 198.776 57.964,198.869 123.822,199.459 126.277 C 199.703 127.292,199.959 128.511,200.029 128.985 C 200.805 134.244,206.019 140.729,211.206 142.887 C 212.083 143.252,213.038 143.702,213.329 143.888 C 214.083 144.368,216.811 145.036,220.800 145.716 C 223.766 146.222,231.488 146.323,231.949 145.862 C 232.925 144.886,232.465 136.692,231.429 136.601 C 231.337 136.593,229.257 136.554,226.807 136.516 C 224.357 136.477,222.228 136.368,222.075 136.273 C 221.922 136.179,220.870 135.951,219.737 135.768 C 213.698 134.790,210.441 131.189,209.370 124.306 C 208.773 120.463,208.893 86.632,209.506 86.019 C 209.858 85.668,210.967 85.615,218.820 85.579 L 227.736 85.538 228.223 84.937 C 228.822 84.197,228.832 76.855,228.234 76.258 C 227.989 76.013,225.835 75.910,218.950 75.815 C 210.773 75.703,209.948 75.654,209.547 75.253 C 209.145 74.852,209.101 74.078,209.029 66.268 C 208.960 58.892,208.896 57.664,208.560 57.292 C 207.996 56.669,199.876 56.639,199.362 57.258 M200.916 57.982 C 200.990 58.057,200.885 58.639,200.682 59.275 C 200.273 60.555,200.187 101.227,200.566 114.338 C 200.776 121.620,200.762 121.838,200.100 121.665 C 199.623 121.541,199.321 58.484,199.795 58.010 C 199.994 57.812,200.727 57.793,200.916 57.982 M204.664 58.072 C 205.000 58.615,204.295 59.725,203.930 59.228 C 203.686 58.895,203.658 58.632,203.834 58.304 C 204.099 57.809,204.442 57.712,204.664 58.072 M208.200 58.753 C 208.297 59.436,207.392 60.019,207.163 59.422 C 207.082 59.210,207.015 58.816,207.015 58.547 C 207.015 57.839,208.096 58.027,208.200 58.753 M159.015 74.744 C 155.791 75.037,151.672 76.177,148.677 77.605 C 146.105 78.831,140.075 84.487,138.906 86.769 C 138.559 87.446,138.065 88.298,137.808 88.663 C 137.030 89.766,135.617 93.527,135.107 95.849 C 134.843 97.053,134.493 98.271,134.329 98.557 C 133.601 99.826,133.713 145.538,134.445 146.002 C 135.115 146.427,142.675 146.256,143.047 145.809 C 143.325 145.473,143.409 141.491,143.521 123.101 C 143.677 97.509,143.535 99.127,146.087 93.908 C 150.328 85.232,160.411 81.732,170.465 85.446 C 174.683 87.005,179.227 92.099,180.427 96.615 C 180.606 97.292,180.930 98.178,181.146 98.585 C 181.495 99.240,181.552 101.909,181.662 122.420 C 181.778 144.190,181.810 145.535,182.222 145.837 C 183.051 146.443,190.402 146.336,191.029 145.709 L 191.540 145.199 191.437 122.507 C 191.339 100.767,191.314 99.722,190.833 97.585 C 190.048 94.099,187.232 87.572,185.818 85.961 C 185.395 85.479,184.923 84.789,184.770 84.429 C 184.617 84.068,183.541 82.896,182.378 81.825 C 176.259 76.189,168.615 73.872,159.015 74.744 M158.154 75.815 C 158.246 75.964,157.934 76.055,157.368 76.044 C 156.620 76.030,156.530 75.984,156.923 75.815 C 157.600 75.525,157.974 75.525,158.154 75.815 M169.459 75.956 C 170.097 76.593,169.916 76.834,168.923 76.669 C 167.457 76.427,166.556 76.024,166.937 75.782 C 167.481 75.438,169.049 75.545,169.459 75.956 M235.899 75.829 C 235.056 76.147,234.866 78.050,235.065 84.199 C 235.095 85.137,235.662 85.423,238.014 85.686 C 244.034 86.358,250.186 90.894,251.940 95.954 C 252.160 96.589,252.514 97.440,252.727 97.846 C 253.910 100.105,254.023 102.491,254.100 126.824 C 254.154 144.074,254.185 145.244,254.595 145.655 C 255.202 146.262,263.252 146.323,263.643 145.723 C 264.104 145.015,263.787 101.624,263.305 99.452 C 260.595 87.258,253.329 79.268,242.585 76.669 C 241.064 76.301,240.176 76.147,237.169 75.730 C 236.763 75.674,236.191 75.718,235.899 75.829 M153.846 77.032 C 153.846 77.294,153.758 77.564,153.650 77.631 C 153.299 77.848,152.786 77.353,152.941 76.948 C 153.154 76.392,153.846 76.456,153.846 77.032 M222.627 76.836 C 222.967 76.991,223.188 77.213,223.116 77.328 C 222.896 77.684,213.110 77.594,213.229 77.237 C 213.303 77.013,214.329 76.952,217.249 77.000 C 219.620 77.039,221.315 76.965,221.538 76.813 C 221.993 76.503,221.891 76.501,222.627 76.836 M227.651 77.134 C 227.767 77.741,227.320 78.182,226.903 77.872 C 226.728 77.742,226.197 77.603,225.723 77.564 C 224.702 77.478,224.633 77.430,224.823 76.936 C 225.050 76.342,227.533 76.516,227.651 77.134 M236.959 76.928 C 237.043 77.146,236.845 77.561,236.487 77.918 L 235.872 78.534 235.721 77.933 C 235.434 76.793,236.558 75.882,236.959 76.928 M239.050 77.038 L 239.631 77.522 238.861 77.530 C 238.021 77.539,237.271 76.947,237.836 76.720 C 238.358 76.511,238.444 76.533,239.050 77.038 M173.645 77.306 C 173.771 77.429,173.804 77.601,173.718 77.687 C 173.496 77.909,171.323 77.553,171.323 77.295 C 171.323 76.796,173.132 76.804,173.645 77.306 M211.303 76.949 C 211.985 77.211,211.722 77.538,210.831 77.538 C 210.229 77.538,209.969 77.427,209.969 77.169 C 209.969 76.790,210.612 76.684,211.303 76.949 M240.862 77.292 C 240.948 77.432,240.741 77.538,240.384 77.538 C 240.037 77.538,239.754 77.428,239.754 77.292 C 239.754 77.157,239.969 77.046,240.232 77.046 C 240.494 77.046,240.778 77.157,240.862 77.292 M151.385 78.026 C 151.385 78.359,150.250 78.615,149.724 78.400 C 149.327 78.238,149.332 78.208,149.785 78.022 C 150.478 77.737,151.385 77.739,151.385 78.026 M175.524 78.039 C 175.934 78.259,176.214 79.015,175.885 79.015 C 175.498 79.015,174.074 78.160,174.179 77.990 C 174.352 77.710,174.949 77.732,175.524 78.039 M244.677 78.039 C 245.106 78.327,244.417 79.015,243.700 79.015 C 243.154 79.015,242.177 78.291,242.349 78.014 C 242.537 77.709,244.210 77.727,244.677 78.039 M149.046 79.015 C 148.962 79.151,148.686 79.262,148.431 79.262 C 148.176 79.262,147.899 79.151,147.815 79.015 C 147.726 78.871,147.982 78.769,148.431 78.769 C 148.880 78.769,149.135 78.871,149.046 79.015 M147.692 79.694 C 147.692 79.796,147.301 80.240,146.822 80.679 C 145.969 81.462,145.231 81.718,145.231 81.231 C 145.231 81.095,145.342 80.985,145.477 80.985 C 145.612 80.985,145.723 80.818,145.723 80.615 C 145.723 80.412,145.876 80.246,146.062 80.246 C 146.249 80.246,146.539 80.080,146.708 79.877 C 147.026 79.493,147.692 79.369,147.692 79.694 M248.615 79.739 C 248.615 80.160,248.256 80.203,247.508 79.873 L 246.769 79.548 247.692 79.528 C 248.200 79.517,248.615 79.612,248.615 79.739 M236.515 80.572 C 235.982 80.978,236.037 83.789,236.579 83.861 C 238.502 84.113,238.719 84.202,238.593 84.683 C 238.438 85.276,237.259 85.353,236.800 84.800 C 236.631 84.597,236.355 84.431,236.185 84.431 C 235.754 84.431,235.571 83.280,235.741 81.638 C 235.865 80.428,235.952 80.247,236.404 80.254 C 236.874 80.261,236.884 80.291,236.515 80.572 M181.715 82.229 C 182.193 83.062,182.148 83.091,181.157 82.578 C 180.743 82.364,180.431 82.003,180.431 81.740 C 180.431 81.055,181.212 81.353,181.715 82.229 M160.738 81.965 C 160.738 82.382,161.947 82.531,162.724 82.209 C 163.449 81.908,164.977 82.244,164.600 82.621 C 164.013 83.207,159.268 82.556,159.648 81.941 C 159.832 81.644,160.738 81.664,160.738 81.965 M227.475 84.461 C 227.391 84.545,226.603 84.557,225.723 84.487 C 224.098 84.358,224.204 83.993,225.878 83.956 C 226.620 83.939,227.348 83.430,227.052 83.134 C 226.973 83.055,226.998 82.733,227.106 82.419 C 227.271 81.940,227.330 82.049,227.465 83.077 C 227.554 83.754,227.558 84.377,227.475 84.461 M157.861 83.169 C 157.970 83.186,157.991 83.311,157.908 83.446 C 157.716 83.756,155.815 83.773,155.815 83.464 C 155.815 83.117,156.712 82.987,157.861 83.169 M143.200 83.643 C 142.963 83.690,142.769 83.827,142.769 83.948 C 142.769 84.069,142.548 84.286,142.277 84.431 C 141.902 84.632,141.785 84.618,141.785 84.373 C 141.785 83.961,143.046 83.189,143.378 83.398 C 143.521 83.488,143.443 83.595,143.200 83.643 M169.108 83.446 C 169.108 83.736,168.613 83.740,167.262 83.460 C 166.287 83.259,166.292 83.256,167.692 83.228 C 168.491 83.212,169.108 83.307,169.108 83.446 M182.884 83.877 C 182.877 84.525,182.861 84.534,182.515 84.076 C 182.055 83.467,182.057 83.200,182.523 83.200 C 182.764 83.200,182.890 83.436,182.884 83.877 M223.713 84.308 C 223.781 84.376,221.242 84.407,218.072 84.378 L 212.308 84.326 216.492 84.179 C 220.708 84.032,223.487 84.081,223.713 84.308 M172.359 84.876 C 172.586 85.103,172.501 85.169,171.988 85.169 C 171.580 85.169,171.323 85.035,171.323 84.822 C 171.323 84.418,171.934 84.450,172.359 84.876 M256.736 86.559 C 256.737 86.713,257.074 87.199,257.484 87.639 C 257.894 88.078,258.165 88.502,258.086 88.581 C 257.793 88.873,256.603 87.964,256.189 87.133 C 255.955 86.662,255.528 86.083,255.240 85.847 C 254.916 85.580,254.775 85.264,254.870 85.016 C 255.038 84.579,256.730 85.978,256.736 86.559 M243.059 85.310 C 243.602 85.853,243.558 85.908,242.585 85.908 C 241.887 85.908,241.723 85.814,241.723 85.415 C 241.723 84.812,242.500 84.751,243.059 85.310 M151.877 86.162 C 151.102 86.758,150.892 86.764,150.892 86.191 C 150.892 85.650,151.882 85.113,152.246 85.456 C 152.407 85.608,152.279 85.852,151.877 86.162 M185.108 86.059 C 185.108 86.247,185.025 86.396,184.923 86.392 C 184.606 86.379,183.878 85.743,184.018 85.602 C 184.262 85.359,185.108 85.713,185.108 86.059 M174.934 86.542 C 175.016 86.755,175.344 87.030,175.664 87.151 C 175.984 87.273,176.246 87.541,176.246 87.748 C 176.246 88.290,175.984 88.210,175.044 87.381 C 174.585 86.977,174.108 86.646,173.983 86.646 C 173.858 86.646,173.824 86.535,173.908 86.400 C 174.142 86.022,174.767 86.108,174.934 86.542 M150.097 87.631 C 149.839 88.044,148.923 88.348,148.923 88.020 C 148.923 87.536,149.324 87.138,149.813 87.138 C 150.343 87.138,150.372 87.190,150.097 87.631 M187.032 89.383 C 187.327 89.873,187.569 90.510,187.569 90.798 C 187.569 91.087,187.678 91.323,187.811 91.323 C 188.128 91.323,188.404 92.445,188.177 92.812 C 187.953 93.174,187.578 92.646,187.573 91.962 C 187.571 91.704,187.309 91.150,186.990 90.731 C 186.162 89.641,185.600 88.479,185.600 87.856 C 185.600 87.232,185.973 87.629,187.032 89.383 M246.874 87.732 C 247.071 87.969,247.081 88.130,246.904 88.239 C 246.561 88.451,246.154 88.181,246.154 87.739 C 246.154 87.287,246.502 87.284,246.874 87.732 M177.618 88.645 C 177.882 89.072,177.465 89.365,176.970 89.100 C 176.324 88.754,176.339 88.129,176.988 88.299 C 177.261 88.370,177.545 88.526,177.618 88.645 M148.334 89.005 C 148.252 89.219,148.185 89.496,148.185 89.620 C 148.185 89.744,148.018 89.846,147.815 89.846 C 147.612 89.846,147.446 89.963,147.446 90.105 C 147.446 90.248,147.114 90.480,146.708 90.622 C 146.086 90.838,145.969 91.009,145.969 91.702 C 145.969 92.154,145.842 92.604,145.686 92.700 C 145.481 92.827,145.441 92.585,145.542 91.834 C 145.686 90.759,146.293 89.846,146.863 89.846 C 147.042 89.846,147.370 89.569,147.592 89.231 C 148.037 88.552,148.570 88.389,148.334 89.005 M259.109 90.010 C 259.192 90.339,259.181 90.685,259.085 90.781 C 258.877 90.989,257.969 89.925,257.969 89.473 C 257.969 88.913,258.950 89.375,259.109 90.010 M259.935 91.985 C 259.941 92.857,259.512 92.867,259.380 91.997 C 259.313 91.559,259.315 91.105,259.383 90.989 C 259.562 90.686,259.930 91.351,259.935 91.985 M251.740 92.488 C 252.110 93.269,252.209 93.752,252.056 94.015 C 251.872 94.328,251.829 94.295,251.823 93.838 C 251.819 93.530,251.649 93.213,251.446 93.135 C 251.243 93.057,251.077 92.836,251.077 92.643 C 251.077 92.450,250.918 92.231,250.723 92.157 C 250.323 92.003,250.486 91.317,250.919 91.334 C 251.073 91.341,251.443 91.860,251.740 92.488 M137.600 93.032 C 137.600 93.294,137.489 93.578,137.354 93.662 C 137.214 93.748,137.108 93.541,137.108 93.184 C 137.108 92.837,137.218 92.554,137.354 92.554 C 137.489 92.554,137.600 92.769,137.600 93.032 M180.880 93.892 C 180.937 94.375,180.865 94.545,180.634 94.469 C 180.455 94.410,180.271 94.054,180.227 93.677 C 180.170 93.195,180.243 93.024,180.473 93.100 C 180.653 93.159,180.836 93.515,180.880 93.892 M144.554 94.640 C 144.488 94.982,144.337 95.262,144.217 95.262 C 143.969 95.262,143.920 94.193,144.157 93.955 C 144.458 93.654,144.672 94.023,144.554 94.640 M189.361 95.264 C 189.820 95.801,189.938 96.370,189.538 96.123 C 189.403 96.039,189.292 96.110,189.292 96.281 C 189.292 96.781,188.881 96.198,188.704 95.446 C 188.516 94.647,188.771 94.576,189.361 95.264 M136.119 96.923 C 136.117 97.295,136.008 97.766,135.877 97.969 C 135.702 98.240,135.637 98.058,135.635 97.292 C 135.632 96.717,135.742 96.246,135.877 96.246 C 136.012 96.246,136.121 96.551,136.119 96.923 M182.172 96.560 C 182.162 96.658,182.152 96.988,182.150 97.292 C 182.147 97.740,182.101 97.775,181.908 97.477 C 181.585 96.978,181.598 96.184,181.926 96.293 C 182.072 96.342,182.182 96.462,182.172 96.560 M254.523 99.215 C 254.523 99.654,254.421 99.904,254.277 99.815 C 254.142 99.732,254.031 99.393,254.031 99.062 C 254.031 98.732,254.142 98.462,254.277 98.462 C 254.412 98.462,254.523 98.800,254.523 99.215 M142.829 99.569 C 142.765 99.908,142.669 100.185,142.617 100.185 C 142.566 100.185,142.523 99.908,142.523 99.569 C 142.523 99.231,142.618 98.954,142.735 98.954 C 142.852 98.954,142.894 99.231,142.829 99.569 M190.381 145.209 C 190.173 145.417,189.527 144.463,189.694 144.193 C 190.136 143.479,190.416 108.107,190.017 103.426 C 189.810 100.995,189.822 100.313,190.079 100.003 C 190.343 99.685,190.411 103.628,190.463 122.340 C 190.497 134.838,190.461 145.129,190.381 145.209 M135.159 120.992 C 135.155 132.331,135.093 141.666,135.022 141.737 C 134.951 141.808,134.892 132.470,134.892 120.985 C 134.892 109.499,134.954 100.164,135.030 100.240 C 135.105 100.315,135.163 109.654,135.159 120.992 M183.000 103.580 L 182.808 104.985 182.577 103.811 C 182.449 103.166,182.430 102.114,182.534 101.473 L 182.722 100.308 182.957 101.242 C 183.091 101.771,183.109 102.784,183.000 103.580 M142.733 106.892 C 142.708 110.385,142.642 111.435,142.514 110.400 C 142.172 107.647,142.283 101.908,142.678 101.908 C 142.728 101.908,142.753 104.151,142.733 106.892 M263.250 124.616 C 263.325 134.126,263.414 142.628,263.447 143.508 C 263.502 144.970,263.463 145.114,262.989 145.182 C 262.355 145.272,261.988 142.797,262.370 141.002 C 262.495 140.417,262.601 132.518,262.606 123.446 C 262.610 114.375,262.634 106.566,262.657 106.092 L 262.700 105.231 262.907 106.278 C 263.020 106.853,263.175 115.106,263.250 124.616 M255.750 108.369 C 255.747 110.303,255.575 111.262,255.233 111.262 C 255.113 111.262,255.015 110.209,255.015 108.923 C 255.015 107.009,255.082 106.585,255.385 106.585 C 255.679 106.585,255.753 106.946,255.750 108.369 M200.821 123.151 C 201.061 123.441,201.025 124.020,200.703 125.039 C 200.509 125.656,200.131 124.814,200.127 123.754 C 200.123 122.800,200.359 122.595,200.821 123.151 M208.923 127.323 C 208.833 127.844,208.816 127.837,208.633 127.201 C 208.527 126.829,208.526 126.330,208.632 126.093 C 208.873 125.554,209.079 126.423,208.923 127.323 M201.425 129.477 C 201.496 129.747,201.453 130.031,201.331 130.107 C 201.208 130.182,201.108 129.961,201.108 129.615 C 201.108 128.860,201.248 128.799,201.425 129.477 M209.716 129.908 C 209.709 130.488,209.672 130.523,209.456 130.152 C 209.318 129.914,209.272 129.609,209.355 129.475 C 209.610 129.063,209.723 129.200,209.716 129.908 M203.224 132.878 C 203.315 133.056,203.274 133.317,203.134 133.457 C 202.560 134.031,201.395 132.020,201.757 131.078 C 201.903 130.697,202.476 131.400,203.224 132.878 M211.833 132.619 C 212.509 133.082,212.426 133.662,211.685 133.662 C 211.140 133.662,210.954 133.547,210.954 133.210 C 210.954 132.502,211.311 132.262,211.833 132.619 M213.662 134.400 C 213.662 134.535,213.502 134.646,213.307 134.646 C 213.112 134.646,212.884 134.535,212.800 134.400 C 212.716 134.265,212.876 134.154,213.155 134.154 C 213.433 134.154,213.662 134.265,213.662 134.400 M255.354 135.188 C 255.287 135.296,255.350 135.385,255.493 135.385 C 255.811 135.385,255.841 136.671,255.532 136.997 C 255.409 137.126,255.256 137.452,255.191 137.723 C 255.126 137.994,255.061 137.329,255.048 136.246 C 255.032 134.963,255.102 134.401,255.249 134.634 C 255.373 134.831,255.421 135.080,255.354 135.188 M142.769 139.938 L 142.769 145.231 142.168 145.231 C 141.331 145.231,141.215 144.902,141.813 144.216 C 142.221 143.749,142.296 143.422,142.183 142.595 C 142.106 142.026,142.149 141.494,142.279 141.414 C 142.552 141.245,142.416 139.474,142.056 138.528 C 141.889 138.090,141.893 137.615,142.067 137.063 C 142.319 136.266,142.461 135.575,142.503 134.954 C 142.514 134.785,142.578 134.646,142.646 134.646 C 142.714 134.646,142.769 137.028,142.769 139.938 M216.123 135.385 C 217.083 136.345,216.212 136.449,215.094 135.508 L 214.362 134.892 214.996 134.892 C 215.345 134.892,215.852 135.114,216.123 135.385 M221.292 136.689 C 221.292 136.916,221.024 136.974,220.369 136.889 L 219.446 136.769 220.185 136.598 C 221.286 136.344,221.292 136.344,221.292 136.689 M231.429 139.631 C 231.516 142.158,231.447 143.015,231.155 143.015 C 231.047 143.015,230.938 142.050,230.912 140.870 C 230.886 139.690,230.758 138.597,230.628 138.440 C 230.329 138.079,230.594 137.354,231.025 137.354 C 231.266 137.354,231.371 137.945,231.429 139.631 M206.981 138.184 C 207.374 138.489,207.743 139.366,207.589 139.628 C 207.428 139.903,206.277 139.071,206.277 138.679 C 206.277 138.492,206.166 138.338,206.031 138.338 C 205.895 138.338,205.785 138.176,205.785 137.977 C 205.785 137.596,206.352 137.694,206.981 138.184 M255.923 140.913 C 256.112 142.080,255.847 143.036,255.382 142.857 C 255.102 142.750,255.015 142.275,255.015 140.842 C 255.015 138.824,255.591 138.869,255.923 140.913 M209.114 140.080 C 209.298 140.661,209.142 140.926,208.755 140.687 C 208.432 140.488,208.405 139.569,208.722 139.569 C 208.848 139.569,209.024 139.799,209.114 140.080 M213.046 142.150 C 213.046 142.793,212.275 142.928,211.680 142.389 C 211.061 141.829,211.308 141.493,212.269 141.586 C 212.855 141.643,213.046 141.782,213.046 142.150 M135.366 145.243 C 134.678 145.668,134.335 144.940,134.688 143.806 L 135.004 142.796 135.360 143.911 C 135.667 144.874,135.668 145.056,135.366 145.243 M215.465 142.931 C 215.720 143.186,215.140 143.739,214.767 143.596 C 214.582 143.525,214.491 143.310,214.565 143.118 C 214.705 142.753,215.187 142.653,215.465 142.931 M231.385 144.369 C 231.385 144.692,231.274 145.024,231.138 145.108 C 230.992 145.198,230.892 144.900,230.892 144.369 C 230.892 143.838,230.992 143.540,231.138 143.631 C 231.274 143.714,231.385 144.047,231.385 144.369 M184.051 144.413 C 184.368 144.891,184.358 144.973,183.956 145.183 C 183.202 145.579,182.440 145.131,182.585 144.375 C 182.736 143.583,183.516 143.603,184.051 144.413 M222.309 144.143 C 222.794 144.442,222.005 144.686,220.308 144.761 C 218.677 144.834,217.600 144.629,217.600 144.246 C 217.600 143.795,221.604 143.707,222.309 144.143 M256.097 144.389 C 256.359 145.073,256.260 145.267,255.692 145.186 C 254.957 145.082,254.749 144.000,255.464 144.000 C 255.730 144.000,256.015 144.175,256.097 144.389 "
            stroke="none" fill="#8bbc31" fill-rule="evenodd"></path>
        <path id="path2"
            d="M188.219 1.600 C 188.105 1.896,187.561 1.969,185.477 1.969 C 183.393 1.969,182.849 2.043,182.735 2.338 C 182.627 2.620,182.166 2.708,180.791 2.708 C 179.517 2.708,178.881 2.816,178.620 3.077 C 178.366 3.330,177.743 3.446,176.633 3.446 C 175.359 3.446,175.015 3.525,175.015 3.815 C 175.015 4.102,174.690 4.185,173.565 4.185 C 172.502 4.185,172.076 4.283,171.973 4.554 C 171.870 4.821,171.452 4.923,170.462 4.923 C 169.471 4.923,169.053 5.025,168.951 5.292 C 168.857 5.535,168.473 5.662,167.828 5.662 C 167.053 5.662,166.819 5.765,166.717 6.154 C 166.611 6.561,166.382 6.646,165.387 6.646 C 164.482 6.646,164.185 6.738,164.185 7.015 C 164.185 7.289,163.897 7.385,163.077 7.385 C 162.256 7.385,161.969 7.480,161.969 7.754 C 161.969 8.028,161.681 8.123,160.854 8.123 C 160.089 8.123,159.694 8.239,159.597 8.492 C 159.504 8.734,159.121 8.862,158.489 8.862 C 157.857 8.862,157.474 8.989,157.381 9.231 C 157.301 9.441,156.933 9.600,156.528 9.600 C 156.059 9.600,155.815 9.726,155.815 9.969 C 155.815 10.226,155.558 10.338,154.971 10.338 C 154.507 10.338,153.961 10.505,153.758 10.708 C 153.555 10.911,153.101 11.077,152.748 11.077 C 152.396 11.077,152.044 11.243,151.966 11.446 C 151.888 11.649,151.549 11.815,151.212 11.815 C 150.807 11.815,150.557 11.982,150.471 12.308 C 150.380 12.656,150.136 12.800,149.633 12.800 C 149.166 12.800,148.923 12.926,148.923 13.169 C 148.923 13.416,148.676 13.538,148.177 13.538 C 147.741 13.538,147.372 13.692,147.289 13.908 C 147.208 14.118,146.841 14.277,146.435 14.277 C 145.966 14.277,145.723 14.403,145.723 14.646 C 145.723 14.892,145.477 15.015,144.985 15.015 C 144.492 15.015,144.246 15.138,144.246 15.385 C 144.246 15.631,144.000 15.754,143.508 15.754 C 143.015 15.754,142.769 15.877,142.769 16.123 C 142.769 16.326,142.603 16.492,142.400 16.492 C 142.197 16.492,142.031 16.658,142.031 16.862 C 142.031 17.109,141.784 17.231,141.285 17.231 C 140.874 17.231,140.479 17.384,140.407 17.572 C 140.335 17.760,139.951 17.979,139.553 18.059 C 139.133 18.143,138.831 18.360,138.831 18.578 C 138.831 18.785,138.665 18.954,138.462 18.954 C 138.258 18.954,138.092 19.120,138.092 19.323 C 138.092 19.569,137.846 19.692,137.354 19.692 C 136.862 19.692,136.615 19.815,136.615 20.062 C 136.615 20.308,136.369 20.431,135.877 20.431 C 135.385 20.431,135.138 20.554,135.138 20.800 C 135.138 21.005,134.920 21.169,134.646 21.169 C 134.373 21.169,134.154 21.333,134.154 21.538 C 134.154 21.742,134.001 21.908,133.815 21.908 C 133.628 21.908,133.338 22.074,133.169 22.277 C 133.001 22.480,132.655 22.646,132.401 22.646 C 132.146 22.646,131.938 22.812,131.938 23.015 C 131.938 23.218,131.772 23.385,131.569 23.385 C 131.366 23.385,131.200 23.537,131.200 23.723 C 131.200 23.909,130.868 24.128,130.462 24.209 C 130.028 24.296,129.723 24.512,129.723 24.732 C 129.723 24.944,129.508 25.108,129.231 25.108 C 128.957 25.108,128.738 25.272,128.738 25.477 C 128.738 25.680,128.572 25.846,128.369 25.846 C 128.166 25.846,128.000 26.012,128.000 26.215 C 128.000 26.446,127.767 26.585,127.377 26.585 C 127.034 26.585,126.690 26.751,126.612 26.954 C 126.534 27.157,126.316 27.323,126.128 27.323 C 125.939 27.323,125.785 27.489,125.785 27.692 C 125.785 27.895,125.618 28.062,125.415 28.062 C 125.212 28.062,125.046 28.228,125.046 28.431 C 125.046 28.634,124.880 28.800,124.677 28.800 C 124.474 28.800,124.308 28.966,124.308 29.169 C 124.308 29.372,124.142 29.538,123.938 29.538 C 123.735 29.538,123.569 29.696,123.569 29.888 C 123.569 30.080,123.229 30.312,122.814 30.404 C 122.399 30.495,121.999 30.725,121.926 30.916 C 121.853 31.106,121.639 31.262,121.451 31.262 C 121.262 31.262,121.108 31.428,121.108 31.631 C 121.108 31.834,120.942 32.000,120.738 32.000 C 120.535 32.000,120.369 32.166,120.369 32.369 C 120.369 32.572,120.203 32.738,120.000 32.738 C 119.797 32.738,119.631 32.905,119.631 33.108 C 119.631 33.311,119.465 33.477,119.262 33.477 C 119.058 33.477,118.892 33.643,118.892 33.846 C 118.892 34.049,118.726 34.215,118.523 34.215 C 118.320 34.215,118.154 34.382,118.154 34.585 C 118.154 34.788,117.988 34.954,117.785 34.954 C 117.582 34.954,117.415 35.120,117.415 35.323 C 117.415 35.526,117.293 35.692,117.142 35.692 C 116.764 35.692,115.702 36.732,115.697 37.108 C 115.694 37.277,115.526 37.415,115.323 37.415 C 115.120 37.415,114.954 37.582,114.954 37.785 C 114.954 37.988,114.788 38.154,114.585 38.154 C 114.382 38.154,114.215 38.320,114.215 38.523 C 114.215 38.726,114.049 38.892,113.846 38.892 C 113.643 38.892,113.477 39.058,113.477 39.262 C 113.477 39.465,113.311 39.631,113.108 39.631 C 112.905 39.631,112.738 39.797,112.738 40.000 C 112.738 40.203,112.572 40.369,112.369 40.369 C 112.166 40.369,112.000 40.535,112.000 40.738 C 112.000 40.942,111.834 41.108,111.631 41.108 C 111.428 41.108,111.262 41.277,111.262 41.485 C 111.262 41.692,111.102 41.923,110.907 41.998 C 110.713 42.072,110.482 42.456,110.395 42.851 C 110.309 43.246,110.080 43.569,109.888 43.569 C 109.696 43.569,109.538 43.735,109.538 43.938 C 109.538 44.142,109.372 44.308,109.169 44.308 C 108.966 44.308,108.800 44.474,108.800 44.677 C 108.800 44.880,108.634 45.046,108.431 45.046 C 108.228 45.046,108.062 45.212,108.062 45.415 C 108.062 45.618,107.895 45.785,107.692 45.785 C 107.489 45.785,107.323 45.939,107.323 46.128 C 107.323 46.316,107.157 46.534,106.954 46.612 C 106.751 46.690,106.585 47.034,106.585 47.377 C 106.585 47.767,106.446 48.000,106.215 48.000 C 106.012 48.000,105.846 48.154,105.846 48.343 C 105.846 48.531,105.680 48.750,105.477 48.827 C 105.274 48.905,105.108 49.139,105.108 49.346 C 105.108 49.553,104.950 49.723,104.758 49.723 C 104.566 49.723,104.335 50.055,104.246 50.462 C 104.157 50.868,103.927 51.200,103.734 51.200 C 103.542 51.200,103.385 51.366,103.385 51.569 C 103.385 51.772,103.218 51.938,103.015 51.938 C 102.769 51.938,102.646 52.185,102.646 52.677 C 102.646 53.169,102.523 53.415,102.277 53.415 C 102.074 53.415,101.908 53.582,101.908 53.785 C 101.908 53.988,101.742 54.154,101.538 54.154 C 101.281 54.154,101.169 54.414,101.169 55.015 C 101.169 55.617,101.058 55.877,100.800 55.877 C 100.597 55.877,100.431 56.043,100.431 56.246 C 100.431 56.449,100.265 56.615,100.062 56.615 C 99.815 56.615,99.692 56.862,99.692 57.354 C 99.692 57.846,99.569 58.092,99.323 58.092 C 99.120 58.092,98.954 58.258,98.954 58.462 C 98.954 58.665,98.796 58.831,98.604 58.831 C 98.412 58.831,98.184 59.154,98.097 59.549 C 98.010 59.944,97.780 60.328,97.585 60.402 C 97.385 60.479,97.231 60.862,97.231 61.285 C 97.231 61.784,97.109 62.031,96.862 62.031 C 96.658 62.031,96.492 62.185,96.492 62.374 C 96.492 62.562,96.326 62.780,96.123 62.858 C 95.920 62.936,95.754 63.280,95.754 63.623 C 95.754 64.013,95.616 64.246,95.385 64.246 C 95.138 64.246,95.015 64.492,95.015 64.985 C 95.015 65.477,94.892 65.723,94.646 65.723 C 94.399 65.723,94.277 65.970,94.277 66.469 C 94.277 66.905,94.124 67.274,93.908 67.357 C 93.697 67.438,93.538 67.805,93.538 68.211 C 93.538 68.680,93.412 68.923,93.169 68.923 C 92.923 68.923,92.800 69.169,92.800 69.662 C 92.800 70.154,92.677 70.400,92.431 70.400 C 92.228 70.400,92.062 70.540,92.062 70.711 C 92.062 70.883,91.840 71.436,91.569 71.941 C 91.298 72.446,91.077 73.192,91.077 73.599 C 91.077 74.092,90.954 74.338,90.708 74.338 C 90.462 74.338,90.338 74.585,90.338 75.077 C 90.338 75.569,90.215 75.815,89.969 75.815 C 89.702 75.815,89.600 76.090,89.600 76.808 C 89.600 77.463,89.474 77.848,89.231 77.942 C 89.003 78.029,88.862 78.403,88.862 78.919 C 88.862 79.497,88.748 79.754,88.492 79.754 C 88.219 79.754,88.123 80.041,88.123 80.862 C 88.123 81.682,88.027 81.969,87.754 81.969 C 87.480 81.969,87.385 82.256,87.385 83.077 C 87.385 83.897,87.289 84.185,87.015 84.185 C 86.736 84.185,86.646 84.485,86.646 85.415 C 86.646 86.303,86.551 86.646,86.303 86.646 C 85.904 86.646,85.662 87.171,85.662 88.038 C 85.662 88.375,85.495 88.817,85.292 89.020 C 85.055 89.257,84.923 89.866,84.923 90.725 C 84.923 91.749,84.837 92.062,84.554 92.062 C 84.267 92.062,84.185 92.387,84.185 93.512 C 84.185 94.574,84.086 95.001,83.815 95.104 C 83.532 95.213,83.446 95.679,83.446 97.100 C 83.446 98.584,83.372 98.954,83.077 98.954 C 82.780 98.954,82.708 99.334,82.708 100.897 C 82.708 102.397,82.624 102.872,82.338 102.981 C 82.040 103.096,81.969 103.665,81.969 105.962 C 81.969 108.321,81.907 108.800,81.600 108.800 C 81.040 108.800,81.040 136.312,81.600 136.526 C 81.897 136.640,81.969 137.191,81.969 139.332 C 81.969 141.371,82.056 142.082,82.338 142.365 C 82.602 142.628,82.708 143.269,82.708 144.598 C 82.708 146.090,82.781 146.462,83.077 146.462 C 83.372 146.462,83.446 146.832,83.446 148.315 C 83.446 149.736,83.532 150.202,83.815 150.311 C 84.086 150.415,84.185 150.841,84.185 151.903 C 84.185 153.029,84.267 153.354,84.554 153.354 C 84.837 153.354,84.923 153.666,84.923 154.690 C 84.923 155.550,85.055 156.158,85.292 156.396 C 85.495 156.599,85.662 157.041,85.662 157.378 C 85.662 158.244,85.904 158.769,86.303 158.769 C 86.551 158.769,86.646 159.112,86.646 160.000 C 86.646 160.930,86.736 161.231,87.015 161.231 C 87.289 161.231,87.385 161.518,87.385 162.338 C 87.385 163.159,87.480 163.446,87.754 163.446 C 88.027 163.446,88.123 163.733,88.123 164.554 C 88.123 165.374,88.219 165.662,88.492 165.662 C 88.750 165.662,88.862 165.921,88.862 166.523 C 88.862 167.125,88.973 167.385,89.231 167.385 C 89.504 167.385,89.600 167.672,89.600 168.492 C 89.600 169.313,89.696 169.600,89.969 169.600 C 90.215 169.600,90.338 169.846,90.338 170.338 C 90.338 170.831,90.462 171.077,90.708 171.077 C 90.964 171.077,91.077 171.335,91.077 171.921 C 91.077 172.385,91.230 172.917,91.416 173.104 C 91.603 173.291,91.833 173.797,91.928 174.229 C 92.023 174.663,92.257 175.015,92.450 175.015 C 92.675 175.015,92.800 175.280,92.800 175.754 C 92.800 176.246,92.923 176.492,93.169 176.492 C 93.415 176.492,93.538 176.738,93.538 177.231 C 93.538 177.723,93.662 177.969,93.908 177.969 C 94.155 177.969,94.277 178.216,94.277 178.715 C 94.277 179.152,94.430 179.520,94.646 179.603 C 94.857 179.684,95.015 180.051,95.015 180.457 C 95.015 180.926,95.141 181.169,95.385 181.169 C 95.588 181.169,95.754 181.383,95.754 181.644 C 95.754 181.905,95.920 182.285,96.123 182.488 C 96.326 182.691,96.492 182.976,96.492 183.121 C 96.492 183.266,96.658 183.385,96.862 183.385 C 97.101 183.385,97.231 183.625,97.231 184.068 C 97.231 184.448,97.450 184.940,97.723 185.174 C 97.994 185.405,98.215 185.818,98.215 186.090 C 98.215 186.366,98.379 186.585,98.585 186.585 C 98.788 186.585,98.954 186.751,98.954 186.954 C 98.954 187.157,99.120 187.323,99.323 187.323 C 99.569 187.323,99.692 187.569,99.692 188.062 C 99.692 188.554,99.815 188.800,100.062 188.800 C 100.265 188.800,100.431 188.966,100.431 189.169 C 100.431 189.372,100.597 189.538,100.800 189.538 C 101.047 189.538,101.169 189.785,101.169 190.285 C 101.169 190.721,101.323 191.090,101.538 191.173 C 101.742 191.250,101.908 191.469,101.908 191.657 C 101.908 191.846,102.074 192.000,102.277 192.000 C 102.523 192.000,102.646 192.246,102.646 192.738 C 102.646 193.231,102.769 193.477,103.015 193.477 C 103.218 193.477,103.385 193.643,103.385 193.846 C 103.385 194.049,103.542 194.215,103.734 194.215 C 103.927 194.215,104.157 194.548,104.246 194.954 C 104.335 195.360,104.566 195.692,104.758 195.692 C 104.950 195.692,105.108 195.858,105.108 196.062 C 105.108 196.265,105.274 196.431,105.477 196.431 C 105.682 196.431,105.846 196.650,105.846 196.923 C 105.846 197.197,106.010 197.415,106.215 197.415 C 106.441 197.415,106.585 197.645,106.585 198.004 C 106.585 198.328,106.751 198.657,106.954 198.735 C 107.157 198.813,107.323 199.046,107.323 199.254 C 107.323 199.461,107.489 199.631,107.692 199.631 C 107.895 199.631,108.062 199.797,108.062 200.000 C 108.062 200.203,108.228 200.369,108.431 200.369 C 108.634 200.369,108.800 200.535,108.800 200.738 C 108.800 200.942,108.966 201.108,109.169 201.108 C 109.372 201.108,109.538 201.274,109.538 201.477 C 109.538 201.680,109.696 201.846,109.888 201.846 C 110.080 201.846,110.311 202.178,110.400 202.585 C 110.489 202.991,110.720 203.323,110.912 203.323 C 111.104 203.323,111.262 203.545,111.262 203.815 C 111.262 204.089,111.426 204.308,111.631 204.308 C 111.834 204.308,112.000 204.474,112.000 204.677 C 112.000 204.880,112.166 205.046,112.369 205.046 C 112.572 205.046,112.738 205.212,112.738 205.415 C 112.738 205.618,112.905 205.785,113.108 205.785 C 113.311 205.785,113.477 205.951,113.477 206.154 C 113.477 206.357,113.643 206.523,113.846 206.523 C 114.049 206.523,114.215 206.689,114.215 206.892 C 114.215 207.095,114.382 207.262,114.585 207.262 C 114.788 207.262,114.954 207.428,114.954 207.631 C 114.954 207.834,115.120 208.000,115.323 208.000 C 115.526 208.000,115.692 208.166,115.692 208.369 C 115.692 208.572,115.858 208.738,116.062 208.738 C 116.265 208.738,116.431 208.915,116.431 209.131 C 116.431 209.346,116.652 209.581,116.923 209.652 C 117.194 209.723,117.415 209.934,117.415 210.121 C 117.415 210.308,117.582 210.462,117.785 210.462 C 117.988 210.462,118.154 210.628,118.154 210.831 C 118.154 211.034,118.320 211.200,118.523 211.200 C 118.726 211.200,118.892 211.366,118.892 211.569 C 118.892 211.772,119.058 211.938,119.262 211.938 C 119.465 211.938,119.631 212.105,119.631 212.308 C 119.631 212.511,119.797 212.677,120.000 212.677 C 120.203 212.677,120.369 212.843,120.369 213.046 C 120.369 213.249,120.535 213.415,120.738 213.415 C 120.942 213.415,121.108 213.582,121.108 213.785 C 121.108 213.988,121.262 214.154,121.451 214.154 C 121.639 214.154,121.857 214.320,121.935 214.523 C 122.018 214.739,122.387 214.892,122.823 214.892 C 123.405 214.892,123.569 215.001,123.569 215.385 C 123.569 215.658,123.733 215.877,123.938 215.877 C 124.142 215.877,124.308 216.043,124.308 216.246 C 124.308 216.449,124.474 216.615,124.677 216.615 C 124.880 216.615,125.046 216.782,125.046 216.985 C 125.046 217.188,125.212 217.354,125.415 217.354 C 125.618 217.354,125.785 217.520,125.785 217.723 C 125.785 217.926,125.939 218.092,126.128 218.092 C 126.316 218.092,126.534 218.258,126.612 218.462 C 126.690 218.665,127.034 218.831,127.377 218.831 C 127.767 218.831,128.000 218.969,128.000 219.200 C 128.000 219.403,128.154 219.569,128.343 219.569 C 128.531 219.569,128.750 219.735,128.827 219.938 C 128.905 220.142,129.139 220.308,129.346 220.308 C 129.553 220.308,129.723 220.474,129.723 220.677 C 129.723 220.923,129.969 221.046,130.462 221.046 C 131.036 221.046,131.200 221.156,131.200 221.538 C 131.200 221.812,131.364 222.031,131.569 222.031 C 131.772 222.031,131.938 222.197,131.938 222.400 C 131.938 222.603,132.146 222.769,132.401 222.769 C 132.655 222.769,133.001 222.935,133.169 223.138 C 133.338 223.342,133.628 223.508,133.815 223.508 C 134.001 223.508,134.154 223.674,134.154 223.877 C 134.154 224.080,134.364 224.246,134.620 224.246 C 134.876 224.246,135.150 224.412,135.227 224.615 C 135.305 224.818,135.650 224.985,135.992 224.985 C 136.382 224.985,136.615 225.123,136.615 225.354 C 136.615 225.600,136.862 225.723,137.354 225.723 C 137.846 225.723,138.092 225.846,138.092 226.092 C 138.092 226.295,138.258 226.462,138.462 226.462 C 138.665 226.462,138.831 226.628,138.831 226.831 C 138.831 227.074,139.074 227.200,139.541 227.200 C 140.043 227.200,140.288 227.344,140.379 227.692 C 140.473 228.051,140.715 228.185,141.269 228.185 C 141.782 228.185,142.031 228.305,142.031 228.554 C 142.031 228.757,142.197 228.923,142.400 228.923 C 142.603 228.923,142.769 229.089,142.769 229.292 C 142.769 229.538,143.015 229.662,143.508 229.662 C 144.000 229.662,144.246 229.785,144.246 230.031 C 144.246 230.277,144.492 230.400,144.985 230.400 C 145.477 230.400,145.723 230.523,145.723 230.769 C 145.723 231.012,145.966 231.138,146.435 231.138 C 146.841 231.138,147.208 231.297,147.289 231.508 C 147.372 231.724,147.741 231.877,148.177 231.877 C 148.676 231.877,148.923 231.999,148.923 232.246 C 148.923 232.492,149.169 232.615,149.662 232.615 C 150.154 232.615,150.400 232.738,150.400 232.985 C 150.400 233.231,150.646 233.354,151.138 233.354 C 151.606 233.354,151.877 233.480,151.877 233.697 C 151.877 234.069,152.393 234.338,153.107 234.338 C 153.356 234.338,153.598 234.456,153.646 234.600 C 153.694 234.745,154.202 234.925,154.775 235.002 C 155.423 235.089,155.815 235.269,155.815 235.479 C 155.815 235.686,156.089 235.815,156.528 235.815 C 156.933 235.815,157.301 235.974,157.381 236.185 C 157.475 236.429,157.861 236.554,158.523 236.554 C 159.185 236.554,159.571 236.679,159.665 236.923 C 159.761 237.174,160.154 237.292,160.888 237.292 C 161.685 237.292,161.969 237.389,161.969 237.662 C 161.969 237.935,162.256 238.031,163.077 238.031 C 163.897 238.031,164.185 238.126,164.185 238.400 C 164.185 238.679,164.485 238.769,165.415 238.769 C 166.345 238.769,166.646 238.859,166.646 239.138 C 166.646 239.411,166.930 239.508,167.725 239.508 C 168.597 239.508,168.829 239.602,168.933 240.000 C 169.042 240.419,169.269 240.492,170.446 240.492 C 171.450 240.492,171.870 240.594,171.973 240.862 C 172.076 241.132,172.502 241.231,173.565 241.231 C 174.690 241.231,175.015 241.314,175.015 241.600 C 175.015 241.891,175.359 241.969,176.633 241.969 C 177.743 241.969,178.366 242.085,178.620 242.338 C 178.881 242.599,179.517 242.708,180.791 242.708 C 182.166 242.708,182.627 242.795,182.735 243.077 C 182.849 243.372,183.389 243.446,185.439 243.446 C 187.416 243.446,188.071 243.530,188.308 243.815 C 188.771 244.374,216.066 244.374,216.280 243.815 C 216.394 243.519,216.944 243.446,219.077 243.446 C 221.210 243.446,221.760 243.374,221.874 243.077 C 221.982 242.795,222.445 242.708,223.839 242.708 C 225.160 242.708,225.747 242.606,225.969 242.338 C 226.183 242.081,226.751 241.969,227.853 241.969 C 229.028 241.969,229.467 241.875,229.573 241.600 C 229.676 241.330,230.102 241.231,231.165 241.231 C 232.290 241.231,232.615 241.148,232.615 240.862 C 232.615 240.583,232.914 240.492,233.826 240.492 C 235.267 240.492,235.815 240.315,235.815 239.851 C 235.815 239.608,236.140 239.508,236.923 239.508 C 237.744 239.508,238.031 239.412,238.031 239.138 C 238.031 238.859,238.332 238.769,239.262 238.769 C 240.191 238.769,240.492 238.679,240.492 238.400 C 240.492 238.126,240.779 238.031,241.600 238.031 C 242.421 238.031,242.708 237.935,242.708 237.662 C 242.708 237.388,242.995 237.292,243.815 237.292 C 244.636 237.292,244.923 237.197,244.923 236.923 C 244.923 236.649,245.211 236.554,246.038 236.554 C 246.803 236.554,247.198 236.438,247.296 236.185 C 247.376 235.974,247.743 235.815,248.149 235.815 C 248.588 235.815,248.862 235.686,248.862 235.479 C 248.862 235.269,249.254 235.089,249.902 235.002 C 250.475 234.925,250.983 234.745,251.031 234.600 C 251.079 234.456,251.385 234.338,251.711 234.338 C 252.037 234.338,252.442 234.117,252.611 233.846 C 252.798 233.547,253.185 233.354,253.598 233.354 C 254.037 233.354,254.277 233.224,254.277 232.985 C 254.277 232.738,254.523 232.615,255.015 232.615 C 255.508 232.615,255.754 232.492,255.754 232.246 C 255.754 232.000,256.000 231.877,256.492 231.877 C 256.985 231.877,257.231 231.754,257.231 231.508 C 257.231 231.261,257.478 231.138,257.977 231.138 C 258.413 231.138,258.782 230.985,258.865 230.769 C 258.946 230.559,259.313 230.400,259.719 230.400 C 260.188 230.400,260.431 230.274,260.431 230.031 C 260.431 229.800,260.664 229.662,261.054 229.662 C 261.397 229.662,261.741 229.495,261.819 229.292 C 261.897 229.089,262.115 228.923,262.303 228.923 C 262.492 228.923,262.646 228.757,262.646 228.554 C 262.646 228.308,262.892 228.185,263.385 228.185 C 263.959 228.185,264.123 228.075,264.123 227.692 C 264.123 227.294,264.287 227.200,264.985 227.200 C 265.586 227.200,265.846 227.089,265.846 226.831 C 265.846 226.628,266.012 226.462,266.215 226.462 C 266.418 226.462,266.585 226.295,266.585 226.092 C 266.585 225.846,266.831 225.723,267.323 225.723 C 267.815 225.723,268.062 225.600,268.062 225.354 C 268.062 225.123,268.295 224.985,268.685 224.985 C 269.027 224.985,269.372 224.818,269.449 224.615 C 269.527 224.412,269.745 224.246,269.934 224.246 C 270.123 224.246,270.277 224.080,270.277 223.877 C 270.277 223.672,270.496 223.508,270.769 223.508 C 271.043 223.508,271.262 223.344,271.262 223.138 C 271.262 222.907,271.495 222.769,271.885 222.769 C 272.227 222.769,272.572 222.603,272.649 222.400 C 272.727 222.197,272.945 222.031,273.134 222.031 C 273.323 222.031,273.477 221.809,273.477 221.538 C 273.477 221.156,273.641 221.046,274.215 221.046 C 274.708 221.046,274.954 220.923,274.954 220.677 C 274.954 220.474,275.120 220.308,275.323 220.308 C 275.526 220.308,275.692 220.142,275.692 219.938 C 275.692 219.735,275.858 219.569,276.062 219.569 C 276.265 219.569,276.431 219.403,276.431 219.200 C 276.431 218.957,276.674 218.831,277.143 218.831 C 277.549 218.831,277.916 218.672,277.997 218.462 C 278.075 218.258,278.308 218.092,278.515 218.092 C 278.723 218.092,278.892 217.926,278.892 217.723 C 278.892 217.520,279.058 217.354,279.262 217.354 C 279.465 217.354,279.631 217.188,279.631 216.985 C 279.631 216.782,279.797 216.615,280.000 216.615 C 280.203 216.615,280.369 216.449,280.369 216.246 C 280.369 216.043,280.535 215.877,280.738 215.877 C 280.944 215.877,281.108 215.658,281.108 215.385 C 281.108 215.002,281.272 214.892,281.846 214.892 C 282.338 214.892,282.585 214.769,282.585 214.523 C 282.585 214.320,282.754 214.154,282.962 214.154 C 283.169 214.154,283.402 213.988,283.480 213.785 C 283.558 213.582,283.776 213.415,283.965 213.415 C 284.153 213.415,284.308 213.249,284.308 213.046 C 284.308 212.843,284.474 212.677,284.677 212.677 C 284.880 212.677,285.046 212.511,285.046 212.308 C 285.046 212.105,285.212 211.938,285.415 211.938 C 285.618 211.938,285.785 211.772,285.785 211.569 C 285.785 211.366,285.951 211.200,286.154 211.200 C 286.357 211.200,286.523 211.034,286.523 210.831 C 286.523 210.628,286.689 210.462,286.892 210.462 C 287.095 210.462,287.262 210.295,287.262 210.092 C 287.262 209.889,287.428 209.723,287.631 209.723 C 287.836 209.723,288.000 209.504,288.000 209.231 C 288.000 208.957,288.164 208.738,288.369 208.738 C 288.572 208.738,288.738 208.572,288.738 208.369 C 288.738 208.164,288.957 208.000,289.231 208.000 C 289.504 208.000,289.723 207.836,289.723 207.631 C 289.723 207.428,289.889 207.262,290.092 207.262 C 290.295 207.262,290.462 207.095,290.462 206.892 C 290.462 206.689,290.628 206.523,290.831 206.523 C 291.034 206.523,291.200 206.357,291.200 206.154 C 291.200 205.951,291.366 205.785,291.569 205.785 C 291.772 205.785,291.938 205.618,291.938 205.415 C 291.938 205.212,292.105 205.046,292.308 205.046 C 292.511 205.046,292.677 204.892,292.677 204.703 C 292.677 204.515,292.843 204.297,293.046 204.219 C 293.249 204.141,293.415 203.907,293.415 203.700 C 293.415 203.493,293.582 203.323,293.785 203.323 C 294.031 203.323,294.154 203.077,294.154 202.585 C 294.154 202.092,294.277 201.846,294.523 201.846 C 294.726 201.846,294.892 201.680,294.892 201.477 C 294.892 201.272,295.111 201.108,295.385 201.108 C 295.658 201.108,295.877 200.944,295.877 200.738 C 295.877 200.535,296.043 200.369,296.246 200.369 C 296.449 200.369,296.615 200.203,296.615 200.000 C 296.615 199.797,296.782 199.631,296.985 199.631 C 297.188 199.631,297.354 199.478,297.354 199.292 C 297.354 199.105,297.520 198.815,297.723 198.646 C 297.926 198.478,298.092 198.132,298.092 197.878 C 298.092 197.623,298.258 197.415,298.462 197.415 C 298.667 197.415,298.831 197.197,298.831 196.923 C 298.831 196.650,298.995 196.431,299.200 196.431 C 299.403 196.431,299.569 196.265,299.569 196.062 C 299.569 195.858,299.735 195.692,299.938 195.692 C 300.185 195.692,300.308 195.446,300.308 194.954 C 300.308 194.462,300.431 194.215,300.677 194.215 C 300.880 194.215,301.046 194.062,301.046 193.875 C 301.046 193.688,301.268 193.476,301.538 193.406 C 301.850 193.324,302.035 193.064,302.041 192.700 C 302.047 192.370,302.363 191.865,302.780 191.519 C 303.269 191.114,303.508 190.689,303.508 190.227 C 303.508 189.779,303.637 189.538,303.877 189.538 C 304.080 189.538,304.246 189.372,304.246 189.169 C 304.246 188.966,304.412 188.800,304.615 188.800 C 304.862 188.800,304.985 188.554,304.985 188.062 C 304.985 187.569,305.108 187.323,305.354 187.323 C 305.557 187.323,305.723 187.157,305.723 186.954 C 305.723 186.751,305.889 186.585,306.092 186.585 C 306.338 186.585,306.462 186.338,306.462 185.846 C 306.462 185.354,306.585 185.108,306.831 185.108 C 307.089 185.108,307.200 184.848,307.200 184.246 C 307.200 183.591,307.303 183.384,307.631 183.382 C 307.895 183.380,308.250 182.976,308.550 182.336 C 308.819 181.762,309.179 181.204,309.350 181.095 C 309.521 180.987,309.662 180.639,309.662 180.322 C 309.662 180.005,309.828 179.681,310.031 179.603 C 310.247 179.520,310.400 179.152,310.400 178.715 C 310.400 178.216,310.522 177.969,310.769 177.969 C 311.015 177.969,311.138 177.723,311.138 177.231 C 311.138 176.738,311.262 176.492,311.508 176.492 C 311.754 176.492,311.877 176.246,311.877 175.754 C 311.877 175.262,312.000 175.015,312.246 175.015 C 312.493 175.015,312.615 174.768,312.615 174.269 C 312.615 173.833,312.769 173.464,312.985 173.381 C 313.235 173.285,313.354 172.892,313.354 172.158 C 313.354 171.241,313.429 171.077,313.846 171.077 C 314.229 171.077,314.338 170.913,314.338 170.338 C 314.338 169.846,314.462 169.600,314.708 169.600 C 314.981 169.600,315.077 169.313,315.077 168.492 C 315.077 167.672,315.173 167.385,315.446 167.385 C 315.704 167.385,315.815 167.125,315.815 166.523 C 315.815 165.921,315.927 165.662,316.185 165.662 C 316.458 165.662,316.554 165.374,316.554 164.554 C 316.554 163.733,316.650 163.446,316.923 163.446 C 317.197 163.446,317.292 163.159,317.292 162.338 C 317.292 161.518,317.388 161.231,317.662 161.231 C 317.941 161.231,318.031 160.930,318.031 160.000 C 318.031 159.070,318.121 158.769,318.400 158.769 C 318.674 158.769,318.769 158.482,318.769 157.662 C 318.769 156.841,318.865 156.554,319.138 156.554 C 319.428 156.554,319.508 156.215,319.508 154.983 C 319.508 153.618,319.573 153.394,320.000 153.283 C 320.417 153.174,320.492 152.947,320.492 151.803 C 320.492 150.830,320.595 150.413,320.862 150.311 C 321.145 150.202,321.231 149.736,321.231 148.315 C 321.231 146.832,321.304 146.462,321.600 146.462 C 321.896 146.462,321.969 146.090,321.969 144.598 C 321.969 143.269,322.075 142.628,322.338 142.365 C 322.621 142.082,322.708 141.371,322.708 139.332 C 322.708 137.191,322.780 136.640,323.077 136.526 C 323.399 136.403,323.446 134.638,323.446 122.708 C 323.446 110.777,323.399 109.013,323.077 108.889 C 322.780 108.775,322.708 108.224,322.708 106.084 C 322.708 104.044,322.621 103.333,322.338 103.051 C 322.075 102.787,321.969 102.146,321.969 100.818 C 321.969 99.325,321.896 98.954,321.600 98.954 C 321.304 98.954,321.231 98.584,321.231 97.100 C 321.231 95.679,321.145 95.213,320.862 95.104 C 320.597 95.003,320.492 94.589,320.492 93.644 C 320.492 92.577,320.398 92.275,320.000 92.062 C 319.592 91.843,319.508 91.546,319.508 90.330 C 319.508 89.189,319.425 88.862,319.138 88.862 C 318.865 88.862,318.769 88.574,318.769 87.754 C 318.769 86.933,318.674 86.646,318.400 86.646 C 318.121 86.646,318.031 86.345,318.031 85.415 C 318.031 84.485,317.941 84.185,317.662 84.185 C 317.388 84.185,317.292 83.897,317.292 83.077 C 317.292 82.256,317.197 81.969,316.923 81.969 C 316.650 81.969,316.554 81.682,316.554 80.862 C 316.554 80.041,316.458 79.754,316.185 79.754 C 315.929 79.754,315.815 79.497,315.815 78.919 C 315.815 78.403,315.674 78.029,315.446 77.942 C 315.214 77.852,315.077 77.476,315.077 76.923 C 315.077 76.371,314.940 75.994,314.708 75.904 C 314.497 75.824,314.338 75.457,314.338 75.051 C 314.338 74.503,314.225 74.338,313.846 74.338 C 313.426 74.338,313.354 74.174,313.354 73.223 C 313.354 72.459,313.238 72.063,312.985 71.966 C 312.774 71.885,312.615 71.518,312.615 71.112 C 312.615 70.643,312.489 70.400,312.246 70.400 C 312.000 70.400,311.877 70.154,311.877 69.662 C 311.877 69.169,311.754 68.923,311.508 68.923 C 311.265 68.923,311.138 68.680,311.138 68.211 C 311.138 67.805,310.980 67.438,310.769 67.357 C 310.553 67.274,310.400 66.905,310.400 66.469 C 310.400 65.970,310.278 65.723,310.031 65.723 C 309.800 65.723,309.662 65.490,309.662 65.100 C 309.662 64.757,309.502 64.416,309.307 64.341 C 309.113 64.266,308.882 63.882,308.795 63.487 C 308.709 63.092,308.536 62.769,308.411 62.769 C 308.287 62.769,308.185 62.603,308.185 62.400 C 308.185 62.195,307.966 62.031,307.692 62.031 C 307.294 62.031,307.200 61.867,307.200 61.169 C 307.200 60.568,307.089 60.308,306.831 60.308 C 306.585 60.308,306.462 60.062,306.462 59.569 C 306.462 59.077,306.338 58.831,306.092 58.831 C 305.889 58.831,305.723 58.665,305.723 58.462 C 305.723 58.258,305.557 58.092,305.354 58.092 C 305.108 58.092,304.985 57.846,304.985 57.354 C 304.985 56.862,304.862 56.615,304.615 56.615 C 304.412 56.615,304.246 56.449,304.246 56.246 C 304.246 56.043,304.080 55.877,303.877 55.877 C 303.630 55.877,303.508 55.630,303.508 55.131 C 303.508 54.695,303.354 54.326,303.138 54.243 C 302.935 54.165,302.769 53.947,302.769 53.758 C 302.769 53.570,302.603 53.415,302.400 53.415 C 302.167 53.415,302.031 53.180,302.031 52.777 C 302.031 52.346,301.871 52.097,301.538 52.010 C 301.268 51.939,301.046 51.728,301.046 51.541 C 301.046 51.353,300.880 51.200,300.677 51.200 C 300.431 51.200,300.308 50.954,300.308 50.462 C 300.308 49.969,300.185 49.723,299.938 49.723 C 299.735 49.723,299.569 49.553,299.569 49.346 C 299.569 49.139,299.403 48.905,299.200 48.827 C 298.997 48.750,298.831 48.531,298.831 48.343 C 298.831 48.154,298.665 48.000,298.462 48.000 C 298.258 48.000,298.092 47.792,298.092 47.538 C 298.092 47.284,297.926 46.938,297.723 46.769 C 297.520 46.601,297.354 46.310,297.354 46.124 C 297.354 45.937,297.188 45.785,296.985 45.785 C 296.782 45.785,296.615 45.618,296.615 45.415 C 296.615 45.212,296.449 45.046,296.246 45.046 C 296.043 45.046,295.877 44.880,295.877 44.677 C 295.877 44.472,295.658 44.308,295.385 44.308 C 295.111 44.308,294.892 44.144,294.892 43.938 C 294.892 43.735,294.726 43.569,294.523 43.569 C 294.280 43.569,294.154 43.326,294.154 42.857 C 294.154 42.451,293.995 42.084,293.785 42.003 C 293.582 41.925,293.415 41.692,293.415 41.485 C 293.415 41.277,293.249 41.108,293.046 41.108 C 292.843 41.108,292.677 40.942,292.677 40.738 C 292.677 40.535,292.511 40.369,292.308 40.369 C 292.105 40.369,291.938 40.203,291.938 40.000 C 291.938 39.797,291.772 39.631,291.569 39.631 C 291.366 39.631,291.200 39.465,291.200 39.262 C 291.200 39.058,291.034 38.892,290.831 38.892 C 290.628 38.892,290.462 38.726,290.462 38.523 C 290.462 38.320,290.295 38.154,290.092 38.154 C 289.889 38.154,289.723 37.988,289.723 37.785 C 289.723 37.579,289.504 37.415,289.231 37.415 C 288.903 37.415,288.738 37.251,288.738 36.923 C 288.738 36.650,288.574 36.431,288.369 36.431 C 288.166 36.431,288.000 36.265,288.000 36.062 C 288.000 35.858,287.834 35.692,287.631 35.692 C 287.428 35.692,287.262 35.526,287.262 35.323 C 287.262 35.120,287.095 34.954,286.892 34.954 C 286.689 34.954,286.523 34.788,286.523 34.585 C 286.523 34.382,286.357 34.215,286.154 34.215 C 285.951 34.215,285.785 34.049,285.785 33.846 C 285.785 33.643,285.618 33.477,285.415 33.477 C 285.212 33.477,285.046 33.311,285.046 33.108 C 285.046 32.905,284.880 32.738,284.677 32.738 C 284.474 32.738,284.308 32.572,284.308 32.369 C 284.308 32.166,284.153 32.000,283.965 32.000 C 283.776 32.000,283.558 31.834,283.480 31.631 C 283.402 31.428,283.169 31.262,282.962 31.262 C 282.754 31.262,282.585 31.104,282.585 30.912 C 282.585 30.720,282.252 30.489,281.846 30.400 C 281.440 30.311,281.108 30.080,281.108 29.888 C 281.108 29.696,280.942 29.538,280.738 29.538 C 280.535 29.538,280.369 29.372,280.369 29.169 C 280.369 28.966,280.203 28.800,280.000 28.800 C 279.797 28.800,279.631 28.634,279.631 28.431 C 279.631 28.228,279.465 28.062,279.262 28.062 C 279.058 28.062,278.892 27.895,278.892 27.692 C 278.892 27.489,278.723 27.323,278.515 27.323 C 278.308 27.323,278.075 27.157,277.997 26.954 C 277.916 26.743,277.549 26.585,277.143 26.585 C 276.674 26.585,276.431 26.459,276.431 26.215 C 276.431 26.012,276.265 25.846,276.062 25.846 C 275.858 25.846,275.692 25.680,275.692 25.477 C 275.692 25.274,275.526 25.108,275.323 25.108 C 275.120 25.108,274.954 24.950,274.954 24.758 C 274.954 24.566,274.622 24.335,274.215 24.246 C 273.809 24.157,273.477 23.927,273.477 23.734 C 273.477 23.542,273.311 23.385,273.108 23.385 C 272.905 23.385,272.738 23.218,272.738 23.015 C 272.738 22.812,272.530 22.646,272.276 22.646 C 272.022 22.646,271.676 22.480,271.508 22.277 C 271.339 22.074,270.993 21.908,270.739 21.908 C 270.485 21.908,270.277 21.742,270.277 21.538 C 270.277 21.335,270.123 21.169,269.934 21.169 C 269.745 21.169,269.527 21.003,269.449 20.800 C 269.372 20.597,269.027 20.431,268.685 20.431 C 268.295 20.431,268.062 20.293,268.062 20.062 C 268.062 19.815,267.815 19.692,267.323 19.692 C 266.831 19.692,266.585 19.569,266.585 19.323 C 266.585 19.120,266.418 18.954,266.215 18.954 C 266.012 18.954,265.846 18.793,265.846 18.596 C 265.846 18.381,265.500 18.173,264.985 18.076 C 264.491 17.983,264.123 17.768,264.123 17.573 C 264.123 17.357,263.851 17.231,263.385 17.231 C 262.892 17.231,262.646 17.108,262.646 16.862 C 262.646 16.658,262.480 16.492,262.277 16.492 C 262.074 16.492,261.908 16.326,261.908 16.123 C 261.908 15.877,261.662 15.754,261.169 15.754 C 260.677 15.754,260.431 15.631,260.431 15.385 C 260.431 15.141,260.188 15.015,259.719 15.015 C 259.313 15.015,258.946 14.857,258.865 14.646 C 258.782 14.430,258.413 14.277,257.977 14.277 C 257.478 14.277,257.231 14.155,257.231 13.908 C 257.231 13.662,256.985 13.538,256.492 13.538 C 256.000 13.538,255.754 13.415,255.754 13.169 C 255.754 12.923,255.508 12.800,255.015 12.800 C 254.518 12.800,254.277 12.678,254.277 12.425 C 254.277 12.202,253.968 11.987,253.517 11.897 C 253.100 11.814,252.700 11.595,252.629 11.411 C 252.559 11.227,252.228 11.077,251.895 11.077 C 251.561 11.077,251.122 10.911,250.919 10.708 C 250.716 10.505,250.170 10.338,249.705 10.338 C 249.119 10.338,248.862 10.226,248.862 9.969 C 248.862 9.726,248.618 9.600,248.149 9.600 C 247.743 9.600,247.376 9.441,247.296 9.231 C 247.198 8.978,246.803 8.862,246.038 8.862 C 245.211 8.862,244.923 8.766,244.923 8.492 C 244.923 8.219,244.636 8.123,243.815 8.123 C 242.995 8.123,242.708 8.027,242.708 7.754 C 242.708 7.480,242.421 7.385,241.600 7.385 C 240.779 7.385,240.492 7.289,240.492 7.015 C 240.492 6.738,240.195 6.646,239.290 6.646 C 238.295 6.646,238.066 6.561,237.959 6.154 C 237.858 5.765,237.624 5.662,236.849 5.662 C 236.204 5.662,235.820 5.535,235.726 5.292 C 235.622 5.021,235.193 4.923,234.100 4.923 C 232.944 4.923,232.615 4.841,232.615 4.554 C 232.615 4.267,232.287 4.185,231.138 4.185 C 229.990 4.185,229.662 4.103,229.662 3.815 C 229.662 3.520,229.291 3.446,227.808 3.446 C 226.387 3.446,225.921 3.360,225.812 3.077 C 225.703 2.792,225.227 2.708,223.728 2.708 C 222.165 2.708,221.785 2.635,221.785 2.338 C 221.785 2.033,221.323 1.969,219.103 1.969 C 216.947 1.969,216.394 1.897,216.280 1.600 C 216.066 1.041,188.433 1.041,188.219 1.600 M261.665 56.720 C 269.966 60.094,268.459 71.707,259.613 72.533 C 256.588 72.816,252.062 70.328,252.062 68.383 C 252.062 68.139,251.977 67.938,251.873 67.938 C 251.220 67.938,250.448 63.035,251.044 62.667 C 251.161 62.594,251.321 62.140,251.399 61.658 C 252.011 57.886,257.745 55.128,261.665 56.720 M208.985 56.862 C 209.458 57.335,209.477 57.682,209.477 65.955 L 209.477 74.557 210.024 74.940 C 210.494 75.269,211.804 75.324,219.316 75.327 C 224.126 75.329,228.183 75.412,228.332 75.511 C 229.354 76.194,229.625 84.032,228.668 85.248 L 228.167 85.885 219.229 85.958 C 212.097 86.016,210.208 86.099,209.884 86.369 C 209.289 86.863,209.265 120.764,209.857 124.495 C 210.570 128.983,211.955 131.503,214.739 133.373 C 217.927 135.514,220.631 135.970,230.966 136.107 C 232.077 136.122,232.170 136.175,232.505 136.977 C 233.017 138.201,233.005 144.657,232.489 145.892 L 232.116 146.784 227.135 146.619 C 218.268 146.325,212.301 144.727,207.631 141.397 C 203.806 138.670,200.772 134.070,199.732 129.425 C 199.511 128.438,199.179 126.966,198.994 126.154 C 198.453 123.784,198.487 57.691,199.029 56.916 C 199.595 56.109,208.185 56.061,208.985 56.862 M168.157 74.481 C 175.737 75.912,181.899 79.522,185.354 84.553 C 185.692 85.046,186.221 85.765,186.528 86.150 C 187.241 87.046,189.603 91.978,190.242 93.908 C 191.900 98.911,192.042 101.557,191.952 125.745 L 191.877 145.767 191.296 146.237 C 190.650 146.760,182.681 146.955,181.908 146.467 C 181.585 146.263,181.521 143.325,181.399 123.394 C 181.244 98.053,181.391 100.367,179.646 95.631 C 177.596 90.067,172.391 85.720,166.646 84.776 C 156.959 83.185,148.998 87.345,145.641 95.754 C 144.029 99.792,144.002 100.272,144.001 124.123 C 144.000 145.394,143.993 145.731,143.508 146.215 C 142.668 147.055,134.333 146.964,133.772 146.108 C 133.260 145.326,133.367 100.291,133.886 98.585 C 134.050 98.043,134.341 96.935,134.533 96.123 C 135.239 93.126,136.478 89.906,137.560 88.259 C 137.921 87.710,138.437 86.821,138.708 86.282 C 140.031 83.650,146.528 77.973,149.538 76.820 C 150.215 76.560,151.476 76.052,152.340 75.690 C 153.203 75.328,154.588 74.931,155.417 74.809 C 156.245 74.687,157.532 74.489,158.277 74.369 C 160.585 73.997,165.915 74.058,168.157 74.481 M240.066 75.686 C 252.750 77.765,260.928 86.119,263.807 99.938 C 264.513 103.327,264.478 145.839,263.768 146.358 C 263.399 146.628,262.323 146.708,259.030 146.708 C 254.389 146.708,253.777 146.528,253.790 145.169 C 254.030 120.904,253.460 100.660,252.477 98.462 C 252.265 97.988,251.897 97.058,251.660 96.396 C 250.674 93.639,247.441 90.007,244.296 88.123 C 242.425 87.002,240.137 86.327,237.209 86.033 C 234.584 85.769,234.585 85.770,234.585 80.670 C 234.585 74.817,234.612 74.791,240.066 75.686 M188.972 160.271 C 191.092 160.975,193.587 162.577,194.879 164.064 C 195.775 165.095,196.224 165.874,197.625 168.832 C 198.310 170.276,198.187 175.251,197.422 177.108 C 195.187 182.531,190.746 185.629,185.108 185.698 C 183.026 185.723,180.281 185.138,179.446 184.490 C 179.243 184.333,178.701 184.055,178.241 183.873 C 176.871 183.330,174.273 180.497,173.253 178.436 C 168.207 168.235,178.194 156.694,188.972 160.271 M143.191 160.154 C 147.238 161.527,148.742 164.345,146.295 165.969 C 144.541 167.133,144.423 167.126,143.100 165.785 C 141.774 164.439,140.112 164.216,138.977 165.231 C 137.343 166.690,138.059 167.850,141.712 169.665 C 145.356 171.475,145.378 171.489,146.499 172.621 C 150.232 176.392,148.723 182.684,143.522 185.036 C 139.740 186.745,135.843 185.517,133.104 181.752 C 131.738 179.874,131.926 177.477,133.439 177.477 C 133.681 177.477,133.947 177.366,134.031 177.231 C 134.114 177.095,134.662 176.985,135.248 176.985 C 136.353 176.985,136.596 177.243,137.220 179.077 C 138.358 182.421,143.508 181.140,143.508 177.512 C 143.508 176.191,139.634 173.292,137.868 173.292 C 137.392 173.292,134.686 171.076,134.198 170.287 C 133.004 168.354,133.000 165.468,134.190 163.187 C 135.601 160.479,139.892 159.034,143.191 160.154 M259.692 160.390 C 263.667 161.946,264.611 165.107,264.614 176.876 C 264.616 185.466,264.775 184.985,261.940 184.985 C 259.294 184.985,259.488 185.660,259.398 176.123 C 259.297 165.376,259.028 164.677,254.997 164.677 C 250.608 164.677,249.570 167.222,249.608 177.881 C 249.620 181.249,249.557 184.194,249.468 184.426 C 249.170 185.205,245.687 185.351,244.808 184.622 C 244.141 184.069,244.250 161.904,244.923 161.231 C 245.641 160.513,248.583 160.515,249.234 161.234 C 249.721 161.772,250.257 161.719,251.323 161.026 C 253.358 159.704,257.196 159.412,259.692 160.390 M231.180 160.396 C 232.037 160.613,232.872 160.900,233.035 161.032 C 233.875 161.713,235.185 162.207,235.358 161.908 C 235.961 160.862,236.194 160.751,237.863 160.709 C 240.567 160.640,240.358 159.654,240.438 172.896 C 240.515 185.758,240.658 184.847,238.529 185.052 C 236.706 185.227,235.589 184.945,235.322 184.244 L 235.098 183.653 233.220 184.521 C 225.630 188.028,217.398 183.643,216.142 175.425 C 215.844 173.468,216.040 169.569,216.480 168.725 C 216.688 168.326,216.860 167.834,216.862 167.631 C 216.878 166.143,220.108 162.401,222.307 161.323 C 225.215 159.897,228.050 159.601,231.180 160.396 M156.499 160.629 C 157.021 160.995,157.046 161.173,157.046 164.568 C 157.046 168.720,156.995 168.677,159.193 166.381 C 165.171 160.136,165.016 160.246,167.838 160.246 C 171.835 160.246,171.742 160.574,166.170 166.143 C 160.556 171.753,160.996 171.038,162.265 172.492 C 164.257 174.776,165.000 175.633,166.477 177.354 C 167.291 178.302,168.031 179.132,168.122 179.200 C 168.213 179.268,168.933 180.089,169.723 181.026 C 170.513 181.963,171.363 182.932,171.611 183.180 C 172.893 184.462,171.832 185.186,168.845 185.070 C 166.309 184.971,166.199 184.893,162.756 180.719 C 157.116 173.884,157.048 173.874,157.042 179.869 C 157.040 182.277,156.934 184.412,156.805 184.615 C 156.521 185.065,152.802 185.147,152.368 184.713 C 151.965 184.310,151.978 161.087,152.381 160.601 C 152.799 160.097,155.769 160.118,156.499 160.629 M204.685 160.603 L 205.538 160.959 205.538 170.154 C 205.538 176.976,205.615 179.424,205.834 179.643 C 206.040 179.849,207.379 179.938,210.276 179.938 C 214.371 179.938,214.430 179.946,215.038 180.554 C 215.938 181.454,215.840 184.309,214.892 184.796 C 214.012 185.249,201.277 185.130,200.812 184.665 C 200.468 184.320,200.174 163.884,200.483 161.819 C 200.711 160.302,202.633 159.745,204.685 160.603 M182.277 165.169 C 181.735 165.431,181.171 165.649,181.023 165.653 C 180.875 165.658,180.284 166.132,179.710 166.708 C 175.377 171.052,176.796 178.269,182.378 180.276 C 188.755 182.569,194.874 176.043,192.389 169.600 C 191.893 168.316,190.536 166.419,190.105 166.408 C 189.942 166.403,189.720 166.255,189.612 166.077 C 188.907 164.921,184.038 164.318,182.277 165.169 M226.032 165.145 C 225.322 165.408,224.566 165.799,224.353 166.012 C 224.139 166.225,223.881 166.400,223.778 166.400 C 223.428 166.400,222.062 168.527,221.554 169.865 C 220.077 173.750,221.855 178.518,225.446 180.304 C 228.923 182.034,233.113 180.337,234.685 176.561 C 237.464 169.890,232.147 162.874,226.032 165.145 "
            stroke="none" fill="#fbfbfb" fill-rule="evenodd"></path>
        <path id="path3"
            d="M256.619 56.638 C 253.983 57.503,251.720 59.679,251.399 61.658 C 251.321 62.140,251.161 62.594,251.044 62.667 C 250.448 63.035,251.220 67.938,251.873 67.938 C 251.977 67.938,252.062 68.139,252.062 68.383 C 252.062 71.229,258.652 73.523,262.222 71.920 C 271.480 67.762,266.243 53.478,256.619 56.638 M199.029 56.916 C 198.487 57.691,198.453 123.784,198.994 126.154 C 199.179 126.966,199.511 128.438,199.732 129.425 C 202.174 140.335,211.355 146.095,227.135 146.619 L 232.116 146.784 232.489 145.892 C 233.005 144.657,233.017 138.201,232.505 136.977 C 232.170 136.175,232.077 136.122,230.966 136.107 C 220.631 135.970,217.927 135.514,214.739 133.373 C 211.955 131.503,210.570 128.983,209.857 124.495 C 209.265 120.764,209.289 86.863,209.884 86.369 C 210.208 86.099,212.097 86.016,219.229 85.958 L 228.167 85.885 228.668 85.248 C 229.625 84.032,229.354 76.194,228.332 75.511 C 228.183 75.412,224.126 75.329,219.316 75.327 C 211.804 75.324,210.494 75.269,210.024 74.940 L 209.477 74.557 209.477 65.955 C 209.477 55.255,210.119 56.369,203.952 56.369 C 199.540 56.369,199.402 56.385,199.029 56.916 M208.560 57.292 C 208.896 57.664,208.960 58.892,209.029 66.268 C 209.101 74.078,209.145 74.852,209.547 75.253 C 209.948 75.654,210.773 75.703,218.950 75.815 C 225.835 75.910,227.989 76.013,228.234 76.258 C 228.832 76.855,228.822 84.197,228.223 84.937 L 227.736 85.538 218.820 85.579 C 210.967 85.615,209.858 85.668,209.506 86.019 C 208.893 86.632,208.773 120.463,209.370 124.306 C 210.441 131.189,213.698 134.790,219.737 135.768 C 220.870 135.951,221.922 136.179,222.075 136.273 C 222.228 136.368,224.357 136.477,226.807 136.516 C 229.257 136.554,231.337 136.593,231.429 136.601 C 232.465 136.692,232.925 144.886,231.949 145.862 C 231.488 146.323,223.766 146.222,220.800 145.716 C 216.811 145.036,214.083 144.368,213.329 143.888 C 213.038 143.702,212.083 143.252,211.206 142.887 C 206.019 140.729,200.805 134.244,200.029 128.985 C 199.959 128.511,199.703 127.292,199.459 126.277 C 198.869 123.822,198.776 57.964,199.362 57.258 C 199.876 56.639,207.996 56.669,208.560 57.292 M262.212 57.827 C 266.626 59.957,267.719 65.535,264.478 69.387 C 262.039 72.286,256.536 72.399,253.806 69.607 C 251.519 67.267,251.012 61.894,252.929 60.303 C 253.129 60.137,253.292 59.854,253.292 59.674 C 253.292 57.793,259.485 56.510,262.212 57.827 M158.277 74.369 C 157.532 74.489,156.245 74.687,155.417 74.809 C 154.588 74.931,153.203 75.328,152.340 75.690 C 151.476 76.052,150.215 76.560,149.538 76.820 C 146.528 77.973,140.031 83.650,138.708 86.282 C 138.437 86.821,137.921 87.710,137.560 88.259 C 136.478 89.906,135.239 93.126,134.533 96.123 C 134.341 96.935,134.050 98.043,133.886 98.585 C 133.367 100.291,133.260 145.326,133.772 146.108 C 134.333 146.964,142.668 147.055,143.508 146.215 C 143.993 145.731,144.000 145.394,144.001 124.123 C 144.002 100.272,144.029 99.792,145.641 95.754 C 148.998 87.345,156.959 83.185,166.646 84.776 C 172.391 85.720,177.596 90.067,179.646 95.631 C 181.391 100.367,181.244 98.053,181.399 123.394 C 181.521 143.325,181.585 146.263,181.908 146.467 C 182.681 146.955,190.650 146.760,191.296 146.237 L 191.877 145.767 191.952 125.745 C 192.042 101.557,191.900 98.911,190.242 93.908 C 189.603 91.978,187.241 87.046,186.528 86.150 C 186.221 85.765,185.692 85.046,185.354 84.553 C 180.243 77.111,168.552 72.713,158.277 74.369 M170.954 75.503 C 176.353 76.976,183.594 81.653,184.770 84.429 C 184.923 84.789,185.395 85.479,185.818 85.961 C 187.232 87.572,190.048 94.099,190.833 97.585 C 191.314 99.722,191.339 100.767,191.437 122.507 L 191.540 145.199 191.029 145.709 C 190.402 146.336,183.051 146.443,182.222 145.837 C 181.810 145.535,181.778 144.190,181.662 122.420 C 181.552 101.909,181.495 99.240,181.146 98.585 C 180.930 98.178,180.606 97.292,180.427 96.615 C 176.347 81.261,153.163 79.433,146.087 93.908 C 143.535 99.127,143.677 97.509,143.521 123.101 C 143.409 141.491,143.325 145.473,143.047 145.809 C 142.675 146.256,135.115 146.427,134.445 146.002 C 133.713 145.538,133.601 99.826,134.329 98.557 C 134.493 98.271,134.843 97.053,135.107 95.849 C 135.617 93.527,137.030 89.766,137.808 88.663 C 138.065 88.298,138.559 87.446,138.906 86.769 C 140.075 84.487,146.105 78.831,148.677 77.605 C 155.010 74.585,164.355 73.704,170.954 75.503 M234.968 75.870 C 234.657 76.314,234.585 77.219,234.585 80.670 C 234.585 85.770,234.584 85.769,237.209 86.033 C 240.137 86.327,242.425 87.002,244.296 88.123 C 247.441 90.007,250.674 93.639,251.660 96.396 C 251.897 97.058,252.265 97.988,252.477 98.462 C 253.460 100.660,254.030 120.904,253.790 145.169 C 253.777 146.528,254.389 146.708,259.030 146.708 C 262.323 146.708,263.399 146.628,263.768 146.358 C 264.478 145.839,264.513 103.327,263.807 99.938 C 260.928 86.119,252.750 77.765,240.066 75.686 C 236.809 75.152,235.436 75.201,234.968 75.870 M239.385 76.042 C 251.906 77.822,260.330 86.065,263.305 99.452 C 263.787 101.624,264.104 145.015,263.643 145.723 C 263.252 146.323,255.202 146.262,254.595 145.655 C 254.185 145.244,254.154 144.074,254.100 126.824 C 254.023 102.491,253.910 100.105,252.727 97.846 C 252.514 97.440,252.160 96.589,251.940 95.954 C 250.186 90.894,244.034 86.358,238.014 85.686 C 235.662 85.423,235.095 85.137,235.065 84.199 C 234.815 76.451,235.066 75.438,237.169 75.730 C 237.575 75.786,238.572 75.927,239.385 76.042 M183.385 159.737 C 172.532 161.282,168.114 174.157,175.779 181.899 C 176.674 182.802,177.781 183.690,178.241 183.873 C 178.701 184.055,179.243 184.333,179.446 184.490 C 183.617 187.722,192.937 184.931,196.287 179.446 C 198.033 176.589,198.719 171.141,197.625 168.832 C 197.409 168.374,196.928 167.374,196.557 166.609 C 194.313 161.982,188.589 158.996,183.385 159.737 M137.197 160.624 C 132.261 163.197,131.760 168.953,136.188 172.213 C 136.994 172.806,137.750 173.292,137.868 173.292 C 139.634 173.292,143.508 176.191,143.508 177.512 C 143.508 181.140,138.358 182.421,137.220 179.077 C 136.596 177.243,136.353 176.985,135.248 176.985 C 134.662 176.985,134.114 177.095,134.031 177.231 C 133.947 177.366,133.681 177.477,133.439 177.477 C 130.932 177.477,132.395 182.266,135.508 184.249 C 137.591 185.577,137.919 185.679,140.062 185.667 C 147.322 185.624,151.330 177.501,146.499 172.621 C 145.378 171.489,145.356 171.475,141.712 169.665 C 138.059 167.850,137.343 166.690,138.977 165.231 C 140.112 164.216,141.774 164.439,143.100 165.785 C 144.423 167.126,144.541 167.133,146.295 165.969 C 150.880 162.927,142.370 157.928,137.197 160.624 M253.046 160.195 C 252.437 160.432,251.662 160.806,251.323 161.026 C 250.257 161.719,249.721 161.772,249.234 161.234 C 248.583 160.515,245.641 160.513,244.923 161.231 C 244.250 161.904,244.141 184.069,244.808 184.622 C 245.687 185.351,249.170 185.205,249.468 184.426 C 249.557 184.194,249.620 181.249,249.608 177.881 C 249.570 167.222,250.608 164.677,254.997 164.677 C 259.028 164.677,259.297 165.376,259.398 176.123 C 259.488 185.660,259.294 184.985,261.940 184.985 C 264.775 184.985,264.616 185.466,264.614 176.876 C 264.611 166.727,264.076 163.909,261.734 161.703 C 259.903 159.979,255.548 159.223,253.046 160.195 M224.615 160.303 C 221.060 161.508,216.885 165.455,216.862 167.631 C 216.860 167.834,216.688 168.326,216.480 168.725 C 216.040 169.569,215.844 173.468,216.142 175.425 C 217.398 183.643,225.630 188.028,233.220 184.521 L 235.098 183.653 235.322 184.244 C 235.589 184.945,236.706 185.227,238.529 185.052 C 240.658 184.847,240.515 185.758,240.438 172.896 C 240.358 159.654,240.567 160.640,237.863 160.709 C 236.194 160.751,235.961 160.862,235.358 161.908 C 235.185 162.207,233.875 161.713,233.035 161.032 C 231.983 160.178,226.407 159.695,224.615 160.303 M152.381 160.601 C 151.978 161.087,151.965 184.310,152.368 184.713 C 152.802 185.147,156.521 185.065,156.805 184.615 C 156.934 184.412,157.040 182.277,157.042 179.869 C 157.048 173.874,157.116 173.884,162.756 180.719 C 166.199 184.893,166.309 184.971,168.845 185.070 C 171.832 185.186,172.893 184.462,171.611 183.180 C 171.363 182.932,170.513 181.963,169.723 181.026 C 168.933 180.089,168.213 179.268,168.122 179.200 C 168.031 179.132,167.291 178.302,166.477 177.354 C 165.000 175.633,164.257 174.776,162.265 172.492 C 160.996 171.038,160.556 171.753,166.170 166.143 C 171.742 160.574,171.835 160.246,167.838 160.246 C 165.016 160.246,165.171 160.136,159.193 166.381 C 156.995 168.677,157.046 168.720,157.046 164.568 C 157.046 161.173,157.021 160.995,156.499 160.629 C 155.769 160.118,152.799 160.097,152.381 160.601 M201.179 160.542 C 200.369 160.934,200.323 161.713,200.412 173.590 C 200.475 181.993,200.562 184.415,200.812 184.665 C 201.277 185.130,214.012 185.249,214.892 184.796 C 215.840 184.309,215.938 181.454,215.038 180.554 C 214.430 179.946,214.371 179.938,210.276 179.938 C 207.379 179.938,206.040 179.849,205.834 179.643 C 205.615 179.424,205.538 176.976,205.538 170.154 L 205.538 160.959 204.685 160.603 C 203.699 160.191,201.968 160.161,201.179 160.542 M188.093 160.834 C 197.088 162.716,200.458 174.735,193.809 181.219 C 192.036 182.948,191.163 183.631,190.724 183.631 C 190.538 183.631,190.156 183.792,189.875 183.989 C 189.334 184.368,184.522 185.231,184.168 185.013 C 184.054 184.942,183.240 184.769,182.359 184.628 C 177.636 183.874,173.744 179.793,173.004 174.821 C 171.649 165.707,178.966 158.924,188.093 160.834 M257.782 160.764 C 262.792 161.542,263.651 163.668,263.812 175.689 L 263.925 184.117 263.347 184.321 C 263.029 184.433,262.188 184.479,261.477 184.423 L 260.185 184.322 260.174 177.269 C 260.156 165.571,259.715 164.259,255.672 163.864 C 250.296 163.339,248.862 166.187,248.862 177.392 C 248.862 185.047,248.981 184.656,246.708 184.433 C 245.739 184.338,245.412 184.207,245.403 183.907 C 245.291 180.231,245.497 162.035,245.652 161.880 C 246.302 161.230,248.059 161.411,248.633 162.187 C 249.359 163.169,249.635 163.152,251.155 162.031 C 251.967 161.432,252.887 161.011,253.773 160.832 C 255.629 160.456,255.780 160.454,257.782 160.764 M144.369 161.522 C 146.054 162.612,146.836 163.627,146.737 164.591 C 146.703 164.924,145.113 165.908,144.610 165.908 C 144.420 165.908,143.834 165.447,143.310 164.885 C 141.615 163.068,138.713 163.479,137.582 165.697 C 136.642 167.539,137.364 168.388,141.723 170.568 C 146.752 173.084,147.816 174.418,147.646 177.990 C 147.570 179.577,147.429 180.288,147.125 180.624 C 146.895 180.878,146.708 181.248,146.708 181.448 C 146.708 182.658,143.633 184.537,141.169 184.831 C 137.354 185.288,132.696 182.164,132.973 179.334 C 133.140 177.625,135.880 177.289,136.242 178.933 C 136.979 182.290,142.262 182.633,143.886 179.429 C 145.250 176.737,144.244 175.262,139.634 173.193 C 134.349 170.821,132.633 167.544,134.724 163.815 C 136.358 160.902,141.516 159.676,144.369 161.522 M232.738 161.744 C 233.461 162.152,234.186 162.647,234.349 162.843 C 234.856 163.454,235.555 163.252,236.094 162.338 C 236.743 161.239,238.690 161.052,239.371 162.024 C 239.796 162.632,239.959 183.419,239.543 184.074 C 239.087 184.793,236.205 184.346,236.063 183.534 C 235.864 182.396,235.290 182.213,234.298 182.969 C 229.464 186.656,221.083 184.826,218.360 179.487 C 216.228 175.310,216.207 168.433,218.320 166.320 C 218.465 166.175,218.585 165.921,218.585 165.757 C 218.585 165.214,221.492 162.494,222.819 161.795 C 225.323 160.475,230.444 160.449,232.738 161.744 M156.308 164.994 C 156.428 168.784,156.552 169.329,157.301 169.350 C 157.374 169.352,159.240 167.471,161.448 165.169 L 165.463 160.985 167.532 160.985 C 170.277 160.985,170.352 160.827,165.046 166.160 C 162.542 168.678,160.492 170.876,160.492 171.046 C 160.492 171.541,160.963 172.287,161.964 173.381 C 162.812 174.307,164.014 175.670,166.026 177.986 C 166.429 178.451,167.711 179.883,168.875 181.169 C 171.021 183.542,171.557 184.351,171.008 184.391 C 170.514 184.427,168.040 184.434,167.463 184.400 C 166.988 184.373,164.862 182.085,160.006 176.377 C 156.918 172.747,156.308 173.318,156.308 179.833 C 156.308 184.096,156.303 184.137,155.741 184.351 C 154.848 184.690,152.863 184.385,152.852 183.906 C 152.766 180.411,152.890 161.384,153.000 161.206 C 153.083 161.072,153.833 160.995,154.668 161.035 L 156.185 161.108 156.308 164.994 M204.455 161.271 C 204.553 161.428,204.607 165.613,204.577 170.571 C 204.522 179.448,204.529 179.595,205.048 180.254 L 205.574 180.923 209.898 180.923 C 213.728 180.923,214.260 180.972,214.550 181.354 C 214.910 181.829,214.998 183.575,214.686 184.066 C 214.405 184.510,201.599 184.519,201.325 184.076 C 201.110 183.729,201.264 161.575,201.484 161.220 C 201.692 160.884,204.243 160.927,204.455 161.271 M183.754 163.954 C 178.545 164.538,175.112 170.218,176.819 175.427 C 179.335 183.110,189.214 183.736,192.885 176.445 C 196.000 170.260,190.811 163.161,183.754 163.954 M225.035 164.691 C 221.685 166.612,220.554 168.633,220.554 172.700 C 220.554 178.371,223.395 181.653,228.310 181.659 C 230.889 181.662,234.831 179.494,234.831 178.072 C 234.831 177.914,235.127 177.255,235.490 176.606 C 237.042 173.829,236.203 168.784,233.758 166.198 C 231.590 163.905,227.605 163.217,225.035 164.691 M187.798 165.216 C 188.688 165.512,189.504 165.900,189.612 166.077 C 189.720 166.255,189.942 166.403,190.105 166.408 C 190.536 166.419,191.893 168.316,192.389 169.600 C 194.874 176.043,188.755 182.569,182.378 180.276 C 176.796 178.269,175.377 171.052,179.710 166.708 C 180.284 166.132,180.875 165.658,181.023 165.653 C 181.171 165.649,181.735 165.431,182.277 165.169 C 183.622 164.520,185.762 164.538,187.798 165.216 M231.077 165.329 C 234.753 166.733,236.506 172.190,234.685 176.561 C 232.386 182.081,224.733 182.479,222.251 177.208 C 221.195 174.966,221.046 174.427,221.046 172.853 C 221.046 170.596,222.823 166.400,223.778 166.400 C 223.881 166.400,224.139 166.225,224.353 166.012 C 225.626 164.739,228.711 164.425,231.077 165.329 "
            stroke="none" fill="#98bed6" fill-rule="evenodd"></path>
        <path id="path4"
            d="M199.795 58.010 C 199.321 58.484,199.623 121.541,200.100 121.665 C 200.762 121.838,200.776 121.620,200.566 114.338 C 200.187 101.227,200.273 60.555,200.682 59.275 C 200.885 58.639,200.990 58.057,200.916 57.982 C 200.727 57.793,199.994 57.812,199.795 58.010 M203.834 58.304 C 203.658 58.632,203.686 58.895,203.930 59.228 C 204.255 59.670,204.284 59.659,204.537 58.995 C 204.942 57.933,204.346 57.348,203.834 58.304 M207.015 58.547 C 207.015 59.503,207.269 59.829,207.793 59.548 C 208.453 59.195,208.302 58.241,207.569 58.137 C 207.154 58.078,207.015 58.181,207.015 58.547 M156.923 75.815 C 156.530 75.984,156.620 76.030,157.368 76.044 C 157.934 76.055,158.246 75.964,158.154 75.815 C 157.974 75.525,157.600 75.525,156.923 75.815 M166.937 75.782 C 166.556 76.024,167.457 76.427,168.923 76.669 C 169.916 76.834,170.097 76.593,169.459 75.956 C 169.049 75.545,167.481 75.438,166.937 75.782 M152.941 76.948 C 152.786 77.353,153.299 77.848,153.650 77.631 C 153.758 77.564,153.846 77.294,153.846 77.032 C 153.846 76.456,153.154 76.392,152.941 76.948 M221.538 76.813 C 221.315 76.965,219.620 77.039,217.249 77.000 C 214.329 76.952,213.303 77.013,213.229 77.237 C 213.110 77.594,222.896 77.684,223.116 77.328 C 223.377 76.907,222.041 76.470,221.538 76.813 M224.823 76.936 C 224.633 77.430,224.702 77.478,225.723 77.564 C 226.197 77.603,226.728 77.742,226.903 77.872 C 227.320 78.182,227.767 77.741,227.651 77.134 C 227.533 76.516,225.050 76.342,224.823 76.936 M235.719 76.943 C 235.637 77.156,235.638 77.602,235.721 77.933 L 235.872 78.534 236.487 77.918 C 236.845 77.561,237.043 77.146,236.959 76.928 C 236.770 76.436,235.909 76.446,235.719 76.943 M237.836 76.720 C 237.271 76.947,238.021 77.539,238.861 77.530 L 239.631 77.522 239.050 77.038 C 238.444 76.533,238.358 76.511,237.836 76.720 M171.754 76.965 C 171.517 77.029,171.323 77.178,171.323 77.295 C 171.323 77.553,173.496 77.909,173.718 77.687 C 174.123 77.282,172.619 76.730,171.754 76.965 M209.969 77.169 C 209.969 77.427,210.229 77.538,210.831 77.538 C 211.722 77.538,211.985 77.211,211.303 76.949 C 210.612 76.684,209.969 76.790,209.969 77.169 M239.754 77.292 C 239.754 77.428,240.037 77.538,240.384 77.538 C 240.741 77.538,240.948 77.432,240.862 77.292 C 240.778 77.157,240.494 77.046,240.232 77.046 C 239.969 77.046,239.754 77.157,239.754 77.292 M149.785 78.022 C 149.332 78.208,149.327 78.238,149.724 78.400 C 150.250 78.615,151.385 78.359,151.385 78.026 C 151.385 77.739,150.478 77.737,149.785 78.022 M174.179 77.990 C 174.109 78.103,174.439 78.380,174.911 78.606 C 175.958 79.105,176.000 79.107,176.000 78.655 C 176.000 78.033,174.492 77.483,174.179 77.990 M242.349 78.014 C 242.177 78.291,243.154 79.015,243.700 79.015 C 244.417 79.015,245.106 78.327,244.677 78.039 C 244.210 77.727,242.537 77.709,242.349 78.014 M147.815 79.015 C 147.899 79.151,148.176 79.262,148.431 79.262 C 148.686 79.262,148.962 79.151,149.046 79.015 C 149.135 78.871,148.880 78.769,148.431 78.769 C 147.982 78.769,147.726 78.871,147.815 79.015 M146.708 79.877 C 146.539 80.080,146.249 80.246,146.062 80.246 C 145.876 80.246,145.723 80.412,145.723 80.615 C 145.723 80.818,145.612 80.985,145.477 80.985 C 145.342 80.985,145.231 81.095,145.231 81.231 C 145.231 81.718,145.969 81.462,146.822 80.679 C 147.301 80.240,147.692 79.796,147.692 79.694 C 147.692 79.369,147.026 79.493,146.708 79.877 M247.508 79.873 C 248.256 80.203,248.615 80.160,248.615 79.739 C 248.615 79.612,248.200 79.517,247.692 79.528 L 246.769 79.548 247.508 79.873 M235.741 81.638 C 235.571 83.280,235.754 84.431,236.185 84.431 C 236.355 84.431,236.631 84.597,236.800 84.800 C 237.259 85.353,238.438 85.276,238.593 84.683 C 238.719 84.202,238.502 84.113,236.579 83.861 C 236.037 83.789,235.982 80.978,236.515 80.572 C 236.884 80.291,236.874 80.261,236.404 80.254 C 235.952 80.247,235.865 80.428,235.741 81.638 M180.431 81.740 C 180.431 82.003,180.743 82.364,181.157 82.578 C 182.148 83.091,182.193 83.062,181.715 82.229 C 181.212 81.353,180.431 81.055,180.431 81.740 M159.648 81.941 C 159.268 82.556,164.013 83.207,164.600 82.621 C 164.977 82.244,163.449 81.908,162.724 82.209 C 161.947 82.531,160.738 82.382,160.738 81.965 C 160.738 81.664,159.832 81.644,159.648 81.941 M227.106 82.419 C 226.998 82.733,226.973 83.055,227.052 83.134 C 227.348 83.430,226.620 83.939,225.878 83.956 C 224.204 83.993,224.098 84.358,225.723 84.487 C 227.651 84.640,227.668 84.626,227.465 83.077 C 227.330 82.049,227.271 81.940,227.106 82.419 M156.246 83.142 C 155.443 83.317,155.810 83.692,156.785 83.692 C 157.603 83.692,158.478 83.266,157.861 83.169 C 157.232 83.069,156.625 83.060,156.246 83.142 M142.455 83.646 C 141.655 84.131,141.492 84.851,142.277 84.431 C 142.548 84.286,142.769 84.069,142.769 83.948 C 142.769 83.827,142.963 83.690,143.200 83.643 C 143.443 83.595,143.521 83.488,143.378 83.398 C 143.239 83.311,142.824 83.422,142.455 83.646 M167.262 83.460 C 168.613 83.740,169.108 83.736,169.108 83.446 C 169.108 83.307,168.491 83.212,167.692 83.228 C 166.292 83.256,166.287 83.259,167.262 83.460 M182.154 83.399 C 182.154 83.509,182.316 83.813,182.515 84.076 C 182.861 84.534,182.877 84.525,182.884 83.877 C 182.890 83.436,182.764 83.200,182.523 83.200 C 182.320 83.200,182.154 83.290,182.154 83.399 M216.492 84.179 L 212.308 84.326 218.072 84.378 C 221.242 84.407,223.781 84.376,223.713 84.308 C 223.487 84.081,220.708 84.032,216.492 84.179 M171.323 84.822 C 171.323 85.035,171.580 85.169,171.988 85.169 C 172.501 85.169,172.586 85.103,172.359 84.876 C 171.934 84.450,171.323 84.418,171.323 84.822 M254.870 85.016 C 254.775 85.264,254.916 85.580,255.240 85.847 C 255.528 86.083,255.955 86.662,256.189 87.133 C 256.603 87.964,257.793 88.873,258.086 88.581 C 258.165 88.502,257.894 88.078,257.484 87.639 C 257.074 87.199,256.737 86.713,256.736 86.559 C 256.730 85.978,255.038 84.579,254.870 85.016 M241.723 85.415 C 241.723 85.814,241.887 85.908,242.585 85.908 C 243.558 85.908,243.602 85.853,243.059 85.310 C 242.500 84.751,241.723 84.812,241.723 85.415 M151.446 85.481 C 151.142 85.621,150.892 85.941,150.892 86.191 C 150.892 86.764,151.102 86.758,151.877 86.162 C 152.622 85.588,152.303 85.084,151.446 85.481 M184.018 85.602 C 183.878 85.743,184.606 86.379,184.923 86.392 C 185.025 86.396,185.108 86.247,185.108 86.059 C 185.108 85.713,184.262 85.359,184.018 85.602 M173.908 86.400 C 173.824 86.535,173.858 86.646,173.983 86.646 C 174.108 86.646,174.585 86.977,175.044 87.381 C 175.984 88.210,176.246 88.290,176.246 87.748 C 176.246 87.541,175.984 87.273,175.664 87.151 C 175.344 87.030,175.016 86.755,174.934 86.542 C 174.767 86.108,174.142 86.022,173.908 86.400 M149.072 87.528 C 148.858 88.086,148.876 88.123,149.356 88.123 C 149.594 88.123,149.928 87.902,150.097 87.631 C 150.372 87.190,150.343 87.138,149.813 87.138 C 149.488 87.138,149.155 87.314,149.072 87.528 M185.600 87.856 C 185.600 88.479,186.162 89.641,186.990 90.731 C 187.309 91.150,187.571 91.704,187.573 91.962 C 187.578 92.646,187.953 93.174,188.177 92.812 C 188.404 92.445,188.128 91.323,187.811 91.323 C 187.678 91.323,187.569 91.087,187.569 90.798 C 187.569 90.282,186.926 89.061,186.047 87.905 C 185.602 87.321,185.600 87.321,185.600 87.856 M246.154 87.739 C 246.154 88.181,246.561 88.451,246.904 88.239 C 247.081 88.130,247.071 87.969,246.874 87.732 C 246.502 87.284,246.154 87.287,246.154 87.739 M176.492 88.507 C 176.492 88.953,177.393 89.443,177.600 89.108 C 177.811 88.766,177.575 88.452,176.988 88.299 C 176.669 88.215,176.492 88.289,176.492 88.507 M147.592 89.231 C 147.370 89.569,147.042 89.846,146.863 89.846 C 146.293 89.846,145.686 90.759,145.542 91.834 C 145.441 92.585,145.481 92.827,145.686 92.700 C 145.842 92.604,145.969 92.154,145.969 91.702 C 145.969 91.009,146.086 90.838,146.708 90.622 C 147.114 90.480,147.446 90.248,147.446 90.105 C 147.446 89.963,147.612 89.846,147.815 89.846 C 148.018 89.846,148.185 89.744,148.185 89.620 C 148.185 89.496,148.252 89.219,148.334 89.005 C 148.570 88.389,148.037 88.552,147.592 89.231 M257.969 89.473 C 257.969 89.925,258.877 90.989,259.085 90.781 C 259.403 90.465,258.967 89.415,258.464 89.283 C 258.156 89.203,257.969 89.274,257.969 89.473 M259.383 90.989 C 259.315 91.105,259.313 91.559,259.380 91.997 C 259.512 92.867,259.941 92.857,259.935 91.985 C 259.930 91.351,259.562 90.686,259.383 90.989 M250.503 91.672 C 250.430 91.864,250.529 92.082,250.723 92.157 C 250.918 92.231,251.077 92.450,251.077 92.643 C 251.077 92.836,251.243 93.057,251.446 93.135 C 251.649 93.213,251.819 93.530,251.823 93.838 C 251.829 94.295,251.872 94.328,252.056 94.015 C 252.209 93.752,252.110 93.269,251.740 92.488 C 251.193 91.331,250.747 91.037,250.503 91.672 M137.108 93.184 C 137.108 93.541,137.214 93.748,137.354 93.662 C 137.489 93.578,137.600 93.294,137.600 93.032 C 137.600 92.769,137.489 92.554,137.354 92.554 C 137.218 92.554,137.108 92.837,137.108 93.184 M180.227 93.677 C 180.271 94.054,180.455 94.410,180.634 94.469 C 180.865 94.545,180.937 94.375,180.880 93.892 C 180.836 93.515,180.653 93.159,180.473 93.100 C 180.243 93.024,180.170 93.195,180.227 93.677 M144.157 93.955 C 143.920 94.193,143.969 95.262,144.217 95.262 C 144.490 95.262,144.736 94.058,144.494 93.909 C 144.395 93.848,144.244 93.869,144.157 93.955 M188.704 95.446 C 188.881 96.198,189.292 96.781,189.292 96.281 C 189.292 96.110,189.403 96.039,189.538 96.123 C 189.938 96.370,189.820 95.801,189.361 95.264 C 188.771 94.576,188.516 94.647,188.704 95.446 M135.635 97.292 C 135.637 98.058,135.702 98.240,135.877 97.969 C 136.191 97.483,136.191 96.246,135.877 96.246 C 135.742 96.246,135.632 96.717,135.635 97.292 M181.665 96.656 C 181.667 96.905,181.776 97.274,181.908 97.477 C 182.101 97.775,182.147 97.740,182.150 97.292 C 182.152 96.988,182.162 96.658,182.172 96.560 C 182.182 96.462,182.072 96.342,181.926 96.293 C 181.781 96.245,181.663 96.408,181.665 96.656 M254.031 99.062 C 254.031 99.393,254.142 99.732,254.277 99.815 C 254.421 99.904,254.523 99.654,254.523 99.215 C 254.523 98.800,254.412 98.462,254.277 98.462 C 254.142 98.462,254.031 98.732,254.031 99.062 M142.523 99.569 C 142.523 99.908,142.566 100.185,142.617 100.185 C 142.669 100.185,142.765 99.908,142.829 99.569 C 142.894 99.231,142.852 98.954,142.735 98.954 C 142.618 98.954,142.523 99.231,142.523 99.569 M190.079 100.003 C 189.822 100.313,189.810 100.995,190.017 103.426 C 190.416 108.107,190.136 143.479,189.694 144.193 C 189.527 144.463,190.173 145.417,190.381 145.209 C 190.461 145.129,190.497 134.838,190.463 122.340 C 190.411 103.628,190.343 99.685,190.079 100.003 M134.892 120.985 C 134.892 132.470,134.951 141.808,135.022 141.737 C 135.196 141.563,135.204 100.414,135.030 100.240 C 134.954 100.164,134.892 109.499,134.892 120.985 M182.534 101.473 C 182.430 102.114,182.449 103.166,182.577 103.811 L 182.808 104.985 183.000 103.580 C 183.109 102.784,183.091 101.771,182.957 101.242 L 182.722 100.308 182.534 101.473 M142.435 102.831 C 142.235 104.042,142.281 108.528,142.514 110.400 C 142.642 111.435,142.708 110.385,142.733 106.892 C 142.769 101.873,142.715 101.135,142.435 102.831 M262.657 106.092 C 262.634 106.566,262.610 114.375,262.606 123.446 C 262.601 132.518,262.495 140.417,262.370 141.002 C 261.988 142.797,262.355 145.272,262.989 145.182 C 263.463 145.114,263.502 144.970,263.447 143.508 C 263.414 142.628,263.325 134.126,263.250 124.616 C 263.175 115.106,263.020 106.853,262.907 106.278 L 262.700 105.231 262.657 106.092 M255.015 108.923 C 255.015 111.139,255.272 111.925,255.599 110.708 C 255.924 109.493,255.773 106.585,255.385 106.585 C 255.082 106.585,255.015 107.009,255.015 108.923 M200.127 123.754 C 200.131 124.814,200.509 125.656,200.703 125.039 C 201.025 124.020,201.061 123.441,200.821 123.151 C 200.359 122.595,200.123 122.800,200.127 123.754 M208.632 126.093 C 208.526 126.330,208.527 126.829,208.633 127.201 C 208.816 127.837,208.833 127.844,208.923 127.323 C 209.079 126.423,208.873 125.554,208.632 126.093 M201.108 129.615 C 201.108 129.961,201.208 130.182,201.331 130.107 C 201.453 130.031,201.496 129.747,201.425 129.477 C 201.248 128.799,201.108 128.860,201.108 129.615 M209.355 129.475 C 209.272 129.609,209.318 129.914,209.456 130.152 C 209.672 130.523,209.709 130.488,209.716 129.908 C 209.723 129.200,209.610 129.063,209.355 129.475 M201.757 131.078 C 201.395 132.020,202.560 134.031,203.134 133.457 C 203.408 133.183,203.360 133.046,202.487 131.612 C 202.034 130.870,201.880 130.757,201.757 131.078 M211.118 132.595 C 210.657 133.056,210.979 133.662,211.685 133.662 C 212.277 133.662,212.385 133.580,212.256 133.231 C 212.012 132.569,211.455 132.258,211.118 132.595 M212.800 134.400 C 212.884 134.535,213.112 134.646,213.307 134.646 C 213.502 134.646,213.662 134.535,213.662 134.400 C 213.662 134.265,213.433 134.154,213.155 134.154 C 212.876 134.154,212.716 134.265,212.800 134.400 M255.048 136.246 C 255.061 137.329,255.126 137.994,255.191 137.723 C 255.256 137.452,255.409 137.126,255.532 136.997 C 255.841 136.671,255.811 135.385,255.493 135.385 C 255.350 135.385,255.287 135.296,255.354 135.188 C 255.421 135.080,255.373 134.831,255.249 134.634 C 255.102 134.401,255.032 134.963,255.048 136.246 M142.503 134.954 C 142.461 135.575,142.319 136.266,142.067 137.063 C 141.893 137.615,141.889 138.090,142.056 138.528 C 142.416 139.474,142.552 141.245,142.279 141.414 C 142.149 141.494,142.106 142.026,142.183 142.595 C 142.296 143.422,142.221 143.749,141.813 144.216 C 141.215 144.902,141.331 145.231,142.168 145.231 L 142.769 145.231 142.769 139.938 C 142.769 137.028,142.714 134.646,142.646 134.646 C 142.578 134.646,142.514 134.785,142.503 134.954 M215.094 135.508 C 215.742 136.053,216.615 136.336,216.615 136.000 C 216.615 135.627,215.541 134.892,214.996 134.892 L 214.362 134.892 215.094 135.508 M220.185 136.598 L 219.446 136.769 220.369 136.889 C 221.024 136.974,221.292 136.916,221.292 136.689 C 221.292 136.344,221.286 136.344,220.185 136.598 M230.545 137.754 C 230.461 137.975,230.498 138.283,230.628 138.440 C 230.758 138.597,230.886 139.690,230.912 140.870 C 230.956 142.857,231.246 143.750,231.429 142.462 C 231.793 139.901,231.112 136.277,230.545 137.754 M205.785 137.977 C 205.785 138.176,205.895 138.338,206.031 138.338 C 206.166 138.338,206.277 138.492,206.277 138.679 C 206.277 139.071,207.428 139.903,207.589 139.628 C 207.743 139.366,207.374 138.489,206.981 138.184 C 206.352 137.694,205.785 137.596,205.785 137.977 M255.015 140.842 C 255.015 142.275,255.102 142.750,255.382 142.857 C 256.167 143.158,256.181 140.631,255.401 139.517 C 255.037 138.998,255.015 139.071,255.015 140.842 M208.492 140.047 C 208.492 140.530,208.909 140.958,209.147 140.720 C 209.340 140.527,208.986 139.569,208.722 139.569 C 208.596 139.569,208.492 139.784,208.492 140.047 M211.352 141.738 C 211.141 142.078,212.082 142.825,212.597 142.726 C 213.407 142.570,213.149 141.672,212.269 141.586 C 211.842 141.545,211.429 141.613,211.352 141.738 M134.688 143.806 C 134.335 144.940,134.678 145.668,135.366 145.243 C 135.668 145.056,135.667 144.874,135.360 143.911 L 135.004 142.796 134.688 143.806 M214.565 143.118 C 214.491 143.310,214.582 143.525,214.767 143.596 C 215.140 143.739,215.720 143.186,215.465 142.931 C 215.187 142.653,214.705 142.753,214.565 143.118 M230.892 144.369 C 230.892 144.900,230.992 145.198,231.138 145.108 C 231.274 145.024,231.385 144.692,231.385 144.369 C 231.385 144.047,231.274 143.714,231.138 143.631 C 230.992 143.540,230.892 143.838,230.892 144.369 M182.585 144.375 C 182.440 145.131,183.202 145.579,183.956 145.183 C 184.358 144.973,184.368 144.891,184.051 144.413 C 183.516 143.603,182.736 143.583,182.585 144.375 M218.277 143.917 C 217.457 144.057,217.400 144.392,218.154 144.646 C 219.356 145.051,223.054 144.604,222.309 144.143 C 221.953 143.923,219.159 143.767,218.277 143.917 M255.060 144.554 C 255.138 145.103,256.246 145.540,256.246 145.022 C 256.246 144.438,255.911 144.000,255.464 144.000 C 255.104 144.000,255.001 144.141,255.060 144.554 "
            stroke="none" fill="#85ac33" fill-rule="evenodd"></path>
    </g>
</svg>