<svg id="svg" version="1.1" xmlns="http://www.w3.org/2000/svg"
    xmlns:xlink="http://www.w3.org/1999/xlink" width="400" height="400" viewBox="0, 0, 400,400">
    <g id="svgg">
        <path id="path0"
            d="M193.067 118.267 C 192.920 118.413,192.791 119.538,192.779 120.767 C 192.754 123.459,191.920 127.936,190.986 130.400 C 190.495 131.694,190.220 134.167,190.008 139.200 C 189.762 145.016,189.563 146.572,188.832 148.400 C 188.171 150.054,187.864 151.991,187.597 156.200 C 187.046 164.857,186.804 166.625,185.945 168.272 C 185.289 169.532,185.085 171.064,184.785 177.000 C 184.435 183.923,183.960 187.284,183.202 188.198 C 182.583 188.944,182.006 193.645,182.003 197.974 C 182.000 201.936,181.184 206.794,180.345 207.848 C 180.149 208.095,179.812 211.155,179.597 214.648 C 179.057 223.427,178.820 225.160,177.906 227.000 C 177.253 228.315,177.051 229.883,176.772 235.800 C 176.438 242.870,176.068 245.540,175.286 246.511 C 174.612 247.349,174.366 249.285,174.024 256.457 C 173.751 262.197,173.545 263.740,172.835 265.361 C 171.463 268.494,170.636 281.547,171.792 281.825 C 172.236 281.932,190.598 281.970,212.595 281.910 L 252.589 281.800 252.899 279.648 C 253.069 278.465,253.573 276.671,254.020 275.662 C 255.070 273.289,255.943 263.496,255.187 262.584 C 254.770 262.082,250.520 262.000,224.765 262.000 C 190.061 262.000,194.000 262.685,194.000 256.646 C 194.000 252.510,194.415 249.917,195.671 246.200 C 196.274 244.414,196.563 242.111,196.801 237.200 C 197.102 230.989,197.583 228.014,198.462 226.934 C 198.671 226.678,199.005 223.798,199.205 220.534 C 199.732 211.944,199.997 209.990,200.880 208.200 C 201.518 206.906,201.736 205.263,202.022 199.600 C 202.389 192.357,202.653 190.687,203.771 188.529 C 204.263 187.579,204.483 185.714,204.641 181.129 C 204.861 174.747,205.316 171.598,206.227 170.142 C 206.565 169.601,206.993 166.232,207.384 161.017 C 207.889 154.295,208.161 152.437,208.838 151.075 C 209.525 149.694,209.733 148.208,210.025 142.600 C 210.400 135.416,210.681 133.571,211.788 131.025 C 212.739 128.839,213.190 118.892,212.362 118.368 C 211.716 117.959,193.470 117.863,193.067 118.267 M227.680 118.272 C 225.800 119.025,225.058 121.591,224.753 128.400 C 224.435 135.512,224.169 137.464,223.392 138.400 C 222.546 139.420,222.397 140.448,222.051 147.647 C 221.774 153.433,221.570 154.953,220.855 156.569 C 220.174 158.109,219.875 160.074,219.430 165.958 C 218.979 171.913,218.690 173.800,217.983 175.400 C 217.253 177.054,217.043 178.543,216.770 184.000 C 216.430 190.785,216.194 192.242,214.990 195.000 C 214.466 196.203,214.223 198.288,214.013 203.400 C 213.774 209.218,213.604 210.489,212.833 212.200 C 212.113 213.798,211.860 215.366,211.577 220.000 C 211.054 228.562,210.577 231.300,209.478 232.051 C 209.277 232.189,208.968 235.339,208.794 239.051 C 208.619 242.763,208.268 246.699,208.014 247.797 C 207.196 251.341,206.446 251.204,226.544 251.176 C 236.035 251.163,244.700 250.983,245.800 250.776 C 246.900 250.570,248.851 250.284,250.135 250.142 C 252.066 249.927,252.545 249.719,252.900 248.941 C 253.135 248.424,253.477 248.000,253.659 248.000 C 254.552 248.000,257.905 244.031,258.160 242.673 C 258.309 241.876,258.884 240.686,259.438 240.028 C 260.303 238.999,260.489 238.258,260.774 234.695 C 261.006 231.796,261.365 230.024,261.972 228.778 C 262.660 227.367,262.917 225.804,263.215 221.200 C 263.746 213.001,263.963 211.583,264.931 210.000 C 265.743 208.673,265.794 208.012,265.926 197.311 L 266.065 186.022 265.090 185.111 C 264.554 184.610,263.791 183.570,263.396 182.800 C 263.001 182.030,262.413 181.206,262.090 180.970 C 260.993 180.166,261.881 178.859,263.925 178.265 C 265.330 177.857,265.832 177.502,265.929 176.851 C 266.000 176.372,266.578 175.596,267.214 175.126 C 268.066 174.496,268.439 173.811,268.633 172.522 C 268.777 171.559,269.357 170.103,269.922 169.286 C 270.890 167.886,270.988 167.268,271.623 158.600 C 272.126 151.746,272.481 148.992,273.016 147.800 C 274.455 144.593,274.375 126.208,272.915 124.592 C 272.522 124.156,271.888 123.125,271.506 122.300 C 271.125 121.475,270.531 120.800,270.187 120.800 C 269.410 120.800,267.097 119.638,266.726 119.062 C 266.163 118.187,229.730 117.450,227.680 118.272 M144.723 119.137 C 143.320 119.853,141.109 120.522,138.555 121.004 C 137.757 121.155,137.149 121.594,136.860 122.228 C 136.612 122.771,135.974 123.382,135.442 123.584 C 134.816 123.822,134.377 124.395,134.199 125.206 C 134.047 125.895,133.426 127.031,132.819 127.730 C 132.211 128.428,131.486 129.720,131.208 130.600 C 130.929 131.480,130.273 132.773,129.750 133.473 C 128.977 134.509,128.800 135.233,128.800 137.354 C 128.800 140.448,128.126 143.954,127.365 144.821 C 126.622 145.667,126.017 150.178,126.008 154.949 C 126.004 157.120,125.720 160.786,125.377 163.094 C 124.804 166.954,124.807 167.470,125.417 169.545 C 126.385 172.837,126.589 173.148,129.640 176.000 C 131.170 177.430,134.090 180.220,136.129 182.200 C 138.167 184.180,140.307 186.047,140.884 186.350 C 141.461 186.652,142.021 187.236,142.128 187.648 C 142.236 188.059,142.656 188.519,143.062 188.669 C 143.704 188.906,145.761 190.682,147.304 192.331 C 147.577 192.623,148.315 193.369,148.944 193.989 L 150.088 195.117 149.913 202.659 C 149.761 209.211,149.623 210.495,148.860 212.446 C 148.232 214.054,147.823 216.513,147.420 221.105 C 147.000 225.892,146.649 227.951,146.035 229.221 C 145.583 230.157,145.107 231.570,144.978 232.361 C 144.194 237.155,140.694 238.647,137.243 235.659 L 135.486 234.138 135.530 230.369 C 135.581 226.103,136.105 222.857,137.038 221.039 C 137.487 220.164,137.778 217.862,138.028 213.200 C 138.398 206.317,138.725 204.023,139.554 202.482 C 139.826 201.976,139.992 200.986,139.924 200.282 L 139.800 199.000 130.300 198.893 C 121.988 198.799,120.800 198.862,120.800 199.398 C 120.800 199.735,120.646 200.323,120.458 200.705 C 118.876 203.918,118.296 207.081,117.997 214.132 C 117.712 220.832,117.298 223.414,116.301 224.690 C 115.592 225.598,114.972 242.614,115.586 244.313 C 116.068 245.647,118.156 247.977,118.884 247.994 C 119.040 247.997,119.580 248.429,120.084 248.953 C 120.708 249.603,121.600 249.969,122.882 250.102 C 123.918 250.210,125.718 250.816,126.882 251.449 L 129.000 252.600 139.867 252.600 C 150.533 252.600,150.752 252.584,151.677 251.715 C 152.196 251.228,153.524 250.598,154.629 250.315 C 155.767 250.023,157.113 249.324,157.737 248.700 C 158.342 248.095,158.963 247.600,159.118 247.600 C 159.715 247.598,161.514 245.737,162.195 244.415 C 162.588 243.653,163.334 242.695,163.854 242.286 C 164.670 241.645,164.800 241.195,164.800 239.026 C 164.800 235.969,165.384 232.708,166.231 231.039 C 166.634 230.244,166.990 227.865,167.224 224.400 C 167.722 217.029,167.941 215.673,168.934 213.809 C 169.739 212.301,169.801 211.530,169.930 201.542 L 170.067 190.883 168.533 189.232 C 167.690 188.324,166.301 186.911,165.447 186.091 C 164.593 185.271,163.320 184.015,162.619 183.300 C 161.917 182.585,161.136 182.000,160.884 182.000 C 160.631 182.000,160.025 181.460,159.537 180.800 C 159.049 180.140,158.451 179.600,158.208 179.600 C 157.965 179.600,157.099 178.970,156.282 178.200 C 155.466 177.430,154.653 176.800,154.476 176.800 C 153.399 176.800,146.487 169.179,146.181 167.655 C 146.065 167.075,145.618 165.938,145.189 165.128 C 144.397 163.634,144.445 161.596,145.299 160.508 C 145.512 160.237,145.836 157.087,146.020 153.508 C 146.336 147.359,146.815 144.376,147.650 143.349 C 147.851 143.101,148.220 141.301,148.470 139.349 C 149.262 133.152,152.941 130.847,156.447 134.353 L 158.000 135.906 157.993 142.853 C 157.988 148.339,157.817 150.557,157.181 153.400 C 154.924 163.487,154.140 162.757,167.251 162.794 L 174.701 162.816 175.351 161.447 C 175.708 160.695,176.000 159.513,176.000 158.820 C 176.000 158.128,176.378 156.805,176.839 155.881 C 177.575 154.406,177.720 153.109,178.026 145.283 C 178.217 140.379,178.476 136.201,178.600 135.999 C 178.725 135.797,178.607 133.602,178.338 131.121 L 177.849 126.610 175.010 123.771 C 172.511 121.272,171.946 120.901,170.295 120.675 C 169.263 120.534,167.340 119.964,166.021 119.409 C 162.781 118.045,147.254 117.847,144.723 119.137 M253.147 133.448 L 254.072 134.095 253.906 143.748 C 253.748 152.946,253.539 154.732,252.373 156.897 C 252.166 157.281,251.806 159.891,251.572 162.697 C 251.053 168.935,250.784 170.083,249.718 170.616 C 249.260 170.844,248.641 171.215,248.343 171.440 C 246.070 173.154,241.390 172.872,240.128 170.946 C 239.230 169.575,239.614 163.790,240.803 160.788 C 241.521 158.974,241.729 157.302,242.018 151.000 C 242.354 143.675,242.771 140.364,243.543 138.894 C 243.743 138.512,244.035 137.390,244.192 136.400 C 244.710 133.126,245.139 132.800,248.920 132.800 C 251.316 132.800,252.476 132.978,253.147 133.448 M243.849 187.983 C 246.439 189.468,246.404 189.283,246.142 200.200 C 245.939 208.615,245.427 212.544,244.364 213.839 C 244.166 214.080,243.744 216.736,243.428 219.741 C 242.968 224.107,242.677 225.450,241.979 226.429 C 241.454 227.166,240.994 228.604,240.826 230.035 C 240.334 234.207,237.764 235.959,233.000 235.371 C 229.121 234.892,228.341 233.204,230.240 229.400 C 230.607 228.665,230.992 226.031,231.233 222.600 C 231.683 216.178,232.163 213.421,233.072 212.034 C 233.544 211.314,233.801 209.418,234.048 204.829 C 234.394 198.434,234.775 195.994,235.582 195.022 C 235.835 194.717,236.233 193.237,236.466 191.733 C 237.294 186.386,239.294 185.370,243.849 187.983 "
            stroke="none" fill="#086cb2" fill-rule="evenodd"></path>
        <path id="path1"
            d="M145.197 117.935 C 144.205 118.089,142.765 118.594,141.997 119.056 C 141.228 119.518,139.899 120.003,139.043 120.132 C 137.973 120.294,137.097 120.791,136.243 121.720 C 135.559 122.464,134.809 123.146,134.575 123.236 C 134.099 123.420,132.631 125.814,130.797 129.400 C 130.121 130.720,129.288 132.313,128.944 132.939 C 128.600 133.566,128.177 135.740,128.003 137.771 C 127.794 140.200,127.402 142.020,126.855 143.093 C 126.224 144.329,125.920 146.061,125.595 150.262 C 125.155 155.971,124.683 159.921,124.025 163.400 C 122.938 169.156,124.405 172.510,130.417 178.019 C 132.686 180.099,135.684 182.925,137.079 184.300 C 138.474 185.675,139.750 186.800,139.915 186.800 C 140.648 186.800,149.158 195.484,149.409 196.488 C 149.841 198.218,148.869 207.939,147.979 210.783 C 147.455 212.457,147.043 215.376,146.809 219.072 C 146.547 223.201,146.235 225.257,145.681 226.511 C 145.259 227.464,144.789 229.133,144.636 230.222 C 144.137 233.763,143.733 234.531,141.844 235.533 L 140.085 236.466 138.142 235.091 L 136.200 233.715 136.260 230.358 C 136.300 228.147,136.603 226.180,137.146 224.600 C 138.117 221.773,138.800 216.683,138.800 212.269 C 138.800 210.010,139.090 208.188,139.824 205.834 C 140.529 203.572,140.809 201.875,140.724 200.376 L 140.600 198.200 130.544 198.093 L 120.487 197.986 119.667 199.376 C 118.343 201.620,117.998 203.431,117.606 210.200 C 117.230 216.702,116.918 218.866,115.789 222.800 C 113.927 229.289,114.183 245.105,116.180 246.980 C 119.599 250.191,120.570 250.800,122.277 250.800 C 122.898 250.800,124.305 251.279,125.403 251.863 C 129.452 254.019,150.255 254.015,153.430 251.857 C 154.286 251.276,155.276 250.800,155.630 250.800 C 156.917 250.800,161.327 247.416,162.668 245.400 C 163.400 244.300,164.264 243.035,164.588 242.590 C 164.913 242.144,165.383 240.344,165.633 238.590 C 165.884 236.835,166.444 234.320,166.879 233.000 C 167.416 231.370,167.774 228.740,167.997 224.800 C 168.205 221.103,168.567 218.347,168.993 217.200 C 170.281 213.738,170.452 212.122,170.665 201.400 L 170.879 190.600 169.637 189.200 C 167.694 187.009,165.389 184.743,163.331 183.000 C 162.292 182.120,160.927 180.908,160.296 180.306 C 159.666 179.704,158.903 179.074,158.600 178.904 C 151.276 174.805,145.498 166.437,146.168 160.899 C 146.321 159.634,146.605 156.260,146.799 153.400 C 147.040 149.856,147.406 147.552,147.950 146.164 C 148.389 145.045,148.876 142.525,149.032 140.564 C 149.332 136.798,151.345 133.600,153.416 133.600 C 154.992 133.600,157.601 137.038,157.593 139.107 C 157.581 142.760,156.844 149.823,156.233 152.155 C 154.948 157.054,154.625 161.212,155.415 162.680 L 156.126 164.000 165.443 164.000 L 174.759 164.000 175.780 162.662 C 176.341 161.926,176.800 160.958,176.800 160.511 C 176.800 160.064,177.051 159.091,177.358 158.349 C 178.060 156.650,178.800 149.885,178.800 145.167 C 178.800 143.187,179.085 140.185,179.434 138.498 C 180.085 135.344,180.058 134.337,179.207 130.200 C 178.936 128.880,178.645 127.415,178.561 126.945 C 178.411 126.108,176.914 124.119,175.473 122.844 C 175.073 122.490,174.186 121.705,173.501 121.100 C 172.763 120.448,171.791 120.000,171.115 120.000 C 170.487 120.000,169.034 119.521,167.887 118.935 C 165.706 117.822,150.299 117.143,145.197 117.935 M192.480 118.080 C 192.216 118.344,192.000 119.505,192.000 120.659 C 192.000 121.814,191.556 124.163,191.014 125.880 C 190.286 128.184,189.919 130.623,189.610 135.200 C 189.148 142.033,188.857 143.968,187.629 148.373 C 187.038 150.492,186.795 152.560,186.784 155.573 C 186.768 159.766,186.239 163.403,185.037 167.562 C 184.673 168.822,184.308 172.244,184.160 175.762 C 183.961 180.533,183.711 182.402,182.967 184.671 C 182.267 186.804,181.918 189.170,181.610 193.871 C 181.120 201.344,180.989 202.247,179.943 205.400 C 179.370 207.129,179.049 209.646,178.796 214.400 C 178.463 220.670,178.238 222.222,177.257 225.000 C 176.600 226.858,176.000 232.093,176.000 235.956 C 176.000 238.245,175.717 240.482,175.182 242.427 C 174.232 245.880,173.805 248.922,173.222 256.400 C 172.938 260.042,172.530 262.514,171.968 263.991 C 171.318 265.698,171.055 267.690,170.779 272.991 C 170.583 276.736,170.311 280.191,170.173 280.670 C 169.548 282.840,168.758 282.800,212.198 282.800 L 252.036 282.800 253.018 281.818 C 253.601 281.236,254.000 280.373,254.000 279.698 C 254.000 279.072,254.155 278.389,254.345 278.180 C 255.756 276.628,256.909 263.011,255.707 262.100 C 255.193 261.711,248.539 261.600,225.600 261.600 C 201.693 261.600,196.016 261.500,195.424 261.067 C 194.387 260.309,194.729 252.370,195.927 249.380 C 196.520 247.899,196.853 245.655,197.172 240.980 C 197.690 233.402,197.818 232.528,198.861 229.400 C 199.430 227.692,199.763 225.154,200.015 220.600 C 200.345 214.645,200.723 211.895,201.352 210.878 C 201.908 209.978,202.443 205.918,202.784 200.000 C 203.050 195.387,203.352 193.243,203.964 191.623 C 204.553 190.066,204.903 187.734,205.194 183.423 C 205.691 176.069,205.868 174.846,206.871 171.823 C 207.436 170.122,207.755 167.618,207.991 163.023 C 208.237 158.258,208.535 155.981,209.146 154.200 C 210.128 151.342,210.800 146.271,210.800 141.726 C 210.800 139.313,211.067 137.596,211.797 135.315 C 213.239 130.808,214.048 118.917,212.965 118.125 C 211.978 117.403,193.198 117.362,192.480 118.080 M226.167 118.159 C 224.726 118.797,223.999 122.394,223.999 128.879 C 224.000 131.504,223.748 133.156,222.975 135.603 C 222.232 137.955,221.850 140.355,221.586 144.324 C 221.148 150.899,220.942 152.276,219.926 155.400 C 219.401 157.015,219.033 159.763,218.799 163.800 C 218.423 170.300,218.145 172.165,217.369 173.400 C 216.728 174.419,216.003 180.419,216.001 184.708 C 216.000 187.205,215.755 188.717,214.998 190.882 C 214.212 193.133,213.912 195.086,213.601 199.979 C 213.384 203.406,212.935 207.242,212.603 208.505 C 212.271 209.767,211.730 211.828,211.400 213.084 C 211.070 214.340,210.800 217.070,210.800 219.151 C 210.800 223.261,210.192 227.615,209.396 229.200 C 208.704 230.579,208.447 232.470,208.034 239.200 C 207.778 243.355,207.445 245.624,206.859 247.200 C 205.698 250.317,206.097 252.115,208.015 252.420 C 212.103 253.068,245.795 252.345,247.551 251.571 C 248.514 251.147,249.898 250.800,250.627 250.800 C 252.519 250.800,258.139 245.792,258.676 243.628 C 258.816 243.063,259.361 241.946,259.888 241.146 C 260.542 240.153,261.026 238.505,261.415 235.946 C 261.729 233.886,262.367 231.210,262.835 230.000 C 263.502 228.275,263.753 226.419,264.002 221.400 C 264.215 217.097,264.538 214.410,264.987 213.200 C 266.465 209.217,266.563 208.206,266.581 196.665 C 266.600 185.228,266.592 185.124,265.714 184.412 C 263.087 182.284,262.584 178.800,264.902 178.800 C 265.254 178.800,265.918 178.305,266.377 177.700 C 266.836 177.095,267.659 176.102,268.206 175.493 C 268.753 174.884,269.200 174.064,269.200 173.670 C 269.200 173.276,269.829 171.704,270.599 170.177 C 271.787 167.817,271.998 166.991,271.999 164.677 C 272.000 161.995,272.296 159.499,273.407 152.800 C 275.138 142.362,275.294 126.112,273.682 124.129 C 273.177 123.508,272.557 122.517,272.304 121.926 C 272.051 121.335,271.384 120.619,270.822 120.334 C 270.260 120.049,269.184 119.363,268.432 118.808 L 267.063 117.800 247.232 117.706 C 231.187 117.631,227.165 117.717,226.167 118.159 M212.362 118.368 C 213.190 118.892,212.739 128.839,211.788 131.025 C 210.681 133.571,210.400 135.416,210.025 142.600 C 209.733 148.208,209.525 149.694,208.838 151.075 C 208.161 152.437,207.889 154.295,207.384 161.017 C 206.993 166.232,206.565 169.601,206.227 170.142 C 205.316 171.598,204.861 174.747,204.641 181.129 C 204.483 185.714,204.263 187.579,203.771 188.529 C 202.653 190.687,202.389 192.357,202.022 199.600 C 201.736 205.263,201.518 206.906,200.880 208.200 C 199.997 209.990,199.732 211.944,199.205 220.534 C 199.005 223.798,198.671 226.678,198.462 226.934 C 197.583 228.014,197.102 230.989,196.801 237.200 C 196.563 242.111,196.274 244.414,195.671 246.200 C 194.415 249.917,194.000 252.510,194.000 256.646 C 194.000 262.685,190.061 262.000,224.765 262.000 C 250.520 262.000,254.770 262.082,255.187 262.584 C 255.943 263.496,255.070 273.289,254.020 275.662 C 253.573 276.671,253.069 278.465,252.899 279.648 L 252.589 281.800 212.595 281.910 C 190.598 281.970,172.236 281.932,171.792 281.825 C 170.636 281.547,171.463 268.494,172.835 265.361 C 173.545 263.740,173.751 262.197,174.024 256.457 C 174.366 249.285,174.612 247.349,175.286 246.511 C 176.068 245.540,176.438 242.870,176.772 235.800 C 177.051 229.883,177.253 228.315,177.906 227.000 C 178.820 225.160,179.057 223.427,179.597 214.648 C 179.812 211.155,180.149 208.095,180.345 207.848 C 181.184 206.794,182.000 201.936,182.003 197.974 C 182.006 193.645,182.583 188.944,183.202 188.198 C 183.960 187.284,184.435 183.923,184.785 177.000 C 185.085 171.064,185.289 169.532,185.945 168.272 C 186.804 166.625,187.046 164.857,187.597 156.200 C 187.864 151.991,188.171 150.054,188.832 148.400 C 189.563 146.572,189.762 145.016,190.008 139.200 C 190.220 134.167,190.495 131.694,190.986 130.400 C 191.920 127.936,192.754 123.459,192.779 120.767 C 192.791 119.538,192.920 118.413,193.067 118.267 C 193.470 117.863,211.716 117.959,212.362 118.368 M263.526 118.343 C 265.135 118.504,266.575 118.828,266.726 119.062 C 267.097 119.638,269.410 120.800,270.187 120.800 C 270.531 120.800,271.125 121.475,271.506 122.300 C 271.888 123.125,272.522 124.156,272.915 124.592 C 274.375 126.208,274.455 144.593,273.016 147.800 C 272.481 148.992,272.126 151.746,271.623 158.600 C 270.988 167.268,270.890 167.886,269.922 169.286 C 269.357 170.103,268.777 171.559,268.633 172.522 C 268.439 173.811,268.066 174.496,267.214 175.126 C 266.578 175.596,266.000 176.372,265.929 176.851 C 265.832 177.502,265.330 177.857,263.925 178.265 C 261.881 178.859,260.993 180.166,262.090 180.970 C 262.413 181.206,263.001 182.030,263.396 182.800 C 263.791 183.570,264.554 184.610,265.090 185.111 L 266.065 186.022 265.926 197.311 C 265.794 208.012,265.743 208.673,264.931 210.000 C 263.963 211.583,263.746 213.001,263.215 221.200 C 262.917 225.804,262.660 227.367,261.972 228.778 C 261.365 230.024,261.006 231.796,260.774 234.695 C 260.489 238.258,260.303 238.999,259.438 240.028 C 258.884 240.686,258.309 241.876,258.160 242.673 C 257.905 244.031,254.552 248.000,253.659 248.000 C 253.477 248.000,253.135 248.424,252.900 248.941 C 252.545 249.719,252.066 249.927,250.135 250.142 C 248.851 250.284,246.900 250.570,245.800 250.776 C 244.700 250.983,236.035 251.163,226.544 251.176 C 206.446 251.204,207.196 251.341,208.014 247.797 C 208.268 246.699,208.619 242.763,208.794 239.051 C 208.968 235.339,209.277 232.189,209.478 232.051 C 210.577 231.300,211.054 228.562,211.577 220.000 C 211.860 215.366,212.113 213.798,212.833 212.200 C 213.604 210.489,213.774 209.218,214.013 203.400 C 214.223 198.288,214.466 196.203,214.990 195.000 C 216.194 192.242,216.430 190.785,216.770 184.000 C 217.043 178.543,217.253 177.054,217.983 175.400 C 218.690 173.800,218.979 171.913,219.430 165.958 C 219.875 160.074,220.174 158.109,220.855 156.569 C 221.570 154.953,221.774 153.433,222.051 147.647 C 222.397 140.448,222.546 139.420,223.392 138.400 C 224.169 137.464,224.435 135.512,224.753 128.400 C 225.058 121.591,225.800 119.025,227.680 118.272 C 228.484 117.949,260.226 118.012,263.526 118.343 M166.021 119.409 C 167.340 119.964,169.263 120.534,170.295 120.675 C 171.946 120.901,172.511 121.272,175.010 123.771 L 177.849 126.610 178.338 131.121 C 178.607 133.602,178.725 135.797,178.600 135.999 C 178.476 136.201,178.217 140.379,178.026 145.283 C 177.720 153.109,177.575 154.406,176.839 155.881 C 176.378 156.805,176.000 158.128,176.000 158.820 C 176.000 159.513,175.708 160.695,175.351 161.447 L 174.701 162.816 167.251 162.794 C 154.140 162.757,154.924 163.487,157.181 153.400 C 157.817 150.557,157.988 148.339,157.993 142.853 L 158.000 135.906 156.447 134.353 C 152.941 130.847,149.262 133.152,148.470 139.349 C 148.220 141.301,147.851 143.101,147.650 143.349 C 146.815 144.376,146.336 147.359,146.020 153.508 C 145.836 157.087,145.512 160.237,145.299 160.508 C 144.445 161.596,144.397 163.634,145.189 165.128 C 145.618 165.938,146.065 167.075,146.181 167.655 C 146.487 169.179,153.399 176.800,154.476 176.800 C 154.653 176.800,155.466 177.430,156.282 178.200 C 157.099 178.970,157.965 179.600,158.208 179.600 C 158.451 179.600,159.049 180.140,159.537 180.800 C 160.025 181.460,160.631 182.000,160.884 182.000 C 161.136 182.000,161.917 182.585,162.619 183.300 C 163.320 184.015,164.593 185.271,165.447 186.091 C 166.301 186.911,167.690 188.324,168.533 189.232 L 170.067 190.883 169.930 201.542 C 169.801 211.530,169.739 212.301,168.934 213.809 C 167.941 215.673,167.722 217.029,167.224 224.400 C 166.990 227.865,166.634 230.244,166.231 231.039 C 165.384 232.708,164.800 235.969,164.800 239.026 C 164.800 241.195,164.670 241.645,163.854 242.286 C 163.334 242.695,162.588 243.653,162.195 244.415 C 161.514 245.737,159.715 247.598,159.118 247.600 C 158.963 247.600,158.342 248.095,157.737 248.700 C 157.113 249.324,155.767 250.023,154.629 250.315 C 153.524 250.598,152.196 251.228,151.677 251.715 C 150.752 252.584,150.533 252.600,139.867 252.600 L 129.000 252.600 126.882 251.449 C 125.718 250.816,123.918 250.210,122.882 250.102 C 121.600 249.969,120.708 249.603,120.084 248.953 C 119.580 248.429,119.040 247.997,118.884 247.994 C 118.156 247.977,116.068 245.647,115.586 244.313 C 114.972 242.614,115.592 225.598,116.301 224.690 C 117.298 223.414,117.712 220.832,117.997 214.132 C 118.296 207.081,118.876 203.918,120.458 200.705 C 120.646 200.323,120.800 199.735,120.800 199.398 C 120.800 198.862,121.988 198.799,130.300 198.893 L 139.800 199.000 139.924 200.282 C 139.992 200.986,139.826 201.976,139.554 202.482 C 138.725 204.023,138.398 206.317,138.028 213.200 C 137.778 217.862,137.487 220.164,137.038 221.039 C 136.105 222.857,135.581 226.103,135.530 230.369 L 135.486 234.138 137.243 235.659 C 140.694 238.647,144.194 237.155,144.978 232.361 C 145.107 231.570,145.583 230.157,146.035 229.221 C 146.649 227.951,147.000 225.892,147.420 221.105 C 147.823 216.513,148.232 214.054,148.860 212.446 C 149.623 210.495,149.761 209.211,149.913 202.659 L 150.088 195.117 148.944 193.989 C 148.315 193.369,147.577 192.623,147.304 192.331 C 145.761 190.682,143.704 188.906,143.062 188.669 C 142.656 188.519,142.236 188.059,142.128 187.648 C 142.021 187.236,141.461 186.652,140.884 186.350 C 140.307 186.047,138.167 184.180,136.129 182.200 C 134.090 180.220,131.170 177.430,129.640 176.000 C 126.589 173.148,126.385 172.837,125.417 169.545 C 124.807 167.470,124.804 166.954,125.377 163.094 C 125.720 160.786,126.004 157.120,126.008 154.949 C 126.017 150.178,126.622 145.667,127.365 144.821 C 128.126 143.954,128.800 140.448,128.800 137.354 C 128.800 135.233,128.977 134.509,129.750 133.473 C 130.273 132.773,130.929 131.480,131.208 130.600 C 131.486 129.720,132.211 128.428,132.819 127.730 C 133.426 127.031,134.047 125.895,134.199 125.206 C 134.377 124.395,134.816 123.822,135.442 123.584 C 135.974 123.382,136.612 122.771,136.860 122.228 C 137.149 121.594,137.757 121.155,138.555 121.004 C 141.109 120.522,143.320 119.853,144.723 119.137 C 147.254 117.847,162.781 118.045,166.021 119.409 M245.048 133.700 C 244.734 134.195,244.349 135.410,244.192 136.400 C 244.035 137.390,243.743 138.512,243.543 138.894 C 242.771 140.364,242.354 143.675,242.018 151.000 C 241.729 157.302,241.521 158.974,240.803 160.788 C 239.614 163.790,239.230 169.575,240.128 170.946 C 241.390 172.872,246.070 173.154,248.343 171.440 C 248.641 171.215,249.260 170.844,249.718 170.616 C 250.784 170.083,251.053 168.935,251.572 162.697 C 251.806 159.891,252.166 157.281,252.373 156.897 C 253.539 154.732,253.748 152.946,253.906 143.748 L 254.072 134.095 253.147 133.448 C 251.582 132.352,245.788 132.532,245.048 133.700 M252.196 133.854 C 253.853 134.490,253.682 147.869,251.935 154.200 C 251.511 155.740,251.009 159.250,250.821 162.000 C 250.284 169.858,249.328 171.200,244.268 171.200 C 240.070 171.200,239.182 168.701,241.393 163.116 C 242.087 161.362,242.799 154.451,242.800 149.458 C 242.800 146.887,243.064 145.023,243.762 142.658 C 244.292 140.866,244.834 138.320,244.967 137.000 C 245.333 133.388,247.979 132.236,252.196 133.854 M237.455 187.900 C 237.143 188.505,236.698 190.230,236.466 191.733 C 236.233 193.237,235.835 194.717,235.582 195.022 C 234.775 195.994,234.394 198.434,234.048 204.829 C 233.801 209.418,233.544 211.314,233.072 212.034 C 232.163 213.421,231.683 216.178,231.233 222.600 C 230.992 226.031,230.607 228.665,230.240 229.400 C 228.341 233.204,229.121 234.892,233.000 235.371 C 237.764 235.959,240.334 234.207,240.826 230.035 C 240.994 228.604,241.454 227.166,241.979 226.429 C 242.677 225.450,242.968 224.107,243.428 219.741 C 243.744 216.736,244.166 214.080,244.364 213.839 C 245.656 212.266,246.984 194.510,246.126 190.279 C 245.551 187.443,238.662 185.553,237.455 187.900 M242.336 188.578 C 245.430 189.402,245.572 189.720,245.587 195.858 C 245.604 202.773,244.963 208.877,243.934 211.600 C 243.388 213.045,243.002 215.331,242.811 218.263 C 242.594 221.594,242.307 223.133,241.682 224.333 C 241.221 225.218,240.634 227.079,240.378 228.471 C 239.376 233.923,236.724 235.768,231.946 234.337 C 230.200 233.813,230.164 233.681,231.015 230.964 C 231.354 229.884,231.788 226.370,231.980 223.155 C 232.243 218.770,232.535 216.823,233.149 215.355 C 234.101 213.082,234.800 208.378,234.800 204.241 C 234.800 202.212,235.095 200.473,235.782 198.453 C 236.322 196.864,236.885 194.448,237.033 193.083 C 237.585 187.979,238.181 187.472,242.336 188.578 "
            stroke="none" fill="#6ea4c9" fill-rule="evenodd"></path>
        <path id="path2"
            d="M141.061 117.785 C 140.238 118.343,139.396 118.800,139.190 118.800 C 138.139 118.800,135.599 120.174,135.381 120.860 C 135.244 121.292,134.702 121.809,134.177 122.009 C 133.649 122.209,132.958 123.004,132.632 123.786 C 132.307 124.564,131.856 125.200,131.631 125.200 C 131.054 125.200,130.000 127.365,130.000 128.551 C 130.000 129.108,129.596 129.861,129.079 130.271 C 127.838 131.253,127.564 132.049,127.176 135.800 C 126.954 137.943,126.507 139.650,125.822 140.968 C 125.011 142.530,124.799 143.519,124.793 145.768 C 124.783 149.908,124.108 155.643,123.445 157.231 C 121.855 161.037,121.738 169.738,123.256 171.256 C 123.695 171.695,124.301 172.752,124.601 173.604 C 125.148 175.152,127.378 177.585,131.017 180.600 C 132.079 181.480,134.193 183.415,135.716 184.900 C 137.238 186.385,138.639 187.600,138.828 187.600 C 139.165 187.600,140.986 189.194,143.400 191.603 C 144.060 192.261,144.830 192.800,145.110 192.800 C 145.390 192.800,145.787 193.241,145.992 193.779 C 146.197 194.318,146.846 195.074,147.435 195.460 C 148.622 196.238,148.722 202.608,147.592 205.400 C 146.613 207.817,146.360 209.533,146.032 216.000 C 145.743 221.701,145.578 222.801,144.824 224.075 C 144.221 225.094,143.801 226.824,143.467 229.660 L 142.985 233.770 141.592 234.063 C 137.686 234.884,135.829 231.806,137.863 227.880 C 138.902 225.875,139.148 224.301,139.609 216.689 C 139.980 210.564,140.161 209.372,140.917 208.092 C 141.635 206.874,141.820 205.840,141.939 202.373 C 142.146 196.312,143.070 196.738,130.024 196.882 C 116.320 197.033,117.068 196.403,116.597 208.200 C 116.400 213.142,116.122 215.839,115.711 216.800 C 114.583 219.436,114.357 221.010,114.016 228.600 C 113.772 234.026,113.492 236.625,113.037 237.687 C 112.241 239.545,112.221 241.566,112.987 242.660 C 113.310 243.121,113.699 244.279,113.851 245.232 C 114.011 246.232,114.504 247.311,115.015 247.782 C 118.062 250.593,118.823 251.140,120.043 251.390 C 120.789 251.544,122.461 252.211,123.758 252.874 L 126.117 254.078 135.558 254.295 C 148.285 254.589,153.402 254.234,154.665 252.972 C 155.183 252.453,156.342 251.831,157.241 251.589 C 158.711 251.193,159.683 250.486,162.518 247.748 C 164.349 245.981,165.921 243.352,166.194 241.600 C 166.349 240.610,166.750 239.260,167.086 238.600 C 168.098 236.610,168.418 234.511,168.765 227.600 C 169.048 221.964,169.220 220.792,169.944 219.575 C 172.032 216.061,172.884 192.347,171.045 188.934 C 169.910 186.829,163.752 180.954,162.298 180.589 C 161.800 180.464,161.088 179.830,160.715 179.181 C 160.308 178.471,159.707 178.000,159.209 178.000 C 158.701 178.000,158.238 177.626,158.013 177.034 C 157.811 176.503,157.275 175.951,156.823 175.807 C 156.370 175.663,155.528 174.928,154.952 174.173 C 154.376 173.418,153.687 172.800,153.420 172.800 C 153.153 172.800,152.705 172.370,152.424 171.844 C 152.142 171.318,151.495 170.665,150.986 170.393 C 150.477 170.120,149.957 169.483,149.830 168.975 C 149.702 168.468,149.239 167.939,148.800 167.800 C 148.361 167.661,147.895 167.064,147.764 166.473 C 147.633 165.883,147.455 165.130,147.368 164.800 C 147.084 163.721,147.924 150.774,148.310 150.281 C 149.166 149.187,150.000 145.685,150.000 143.185 C 150.000 139.448,150.415 136.800,151.000 136.800 C 151.270 136.800,151.963 136.328,152.539 135.752 C 153.447 134.844,153.622 134.792,153.842 135.366 C 153.982 135.731,154.636 136.309,155.296 136.649 L 156.494 137.269 156.322 142.135 C 156.203 145.509,155.957 147.368,155.519 148.200 C 154.057 150.981,153.414 162.107,154.585 164.371 C 155.419 165.984,155.526 166.000,165.471 166.000 C 178.733 166.000,178.730 166.003,179.560 150.400 C 179.898 144.039,180.134 142.194,180.836 140.400 C 182.063 137.268,182.094 132.304,180.901 130.281 C 180.428 129.479,179.917 128.143,179.767 127.312 C 179.102 123.638,175.539 119.923,171.824 119.030 C 171.178 118.874,170.098 118.354,169.424 117.873 C 168.236 117.026,167.825 116.997,155.379 116.885 L 142.557 116.769 141.061 117.785 M191.600 117.400 C 191.326 117.730,191.016 118.855,190.910 119.900 C 190.805 120.945,190.345 122.598,189.888 123.574 C 189.201 125.040,188.999 126.569,188.720 132.374 C 188.386 139.368,188.261 140.173,186.988 143.600 C 186.507 144.893,186.234 147.492,186.016 152.828 C 185.776 158.729,185.576 160.465,185.044 161.277 C 184.122 162.684,183.626 165.914,183.207 173.256 C 182.929 178.119,182.632 180.166,181.874 182.456 C 181.074 184.867,180.846 186.594,180.613 191.997 C 180.436 196.125,180.109 199.194,179.742 200.197 C 179.419 201.079,178.968 202.340,178.739 203.000 C 178.510 203.660,178.183 207.530,178.011 211.600 C 177.745 217.914,177.582 219.205,176.896 220.400 C 175.883 222.166,175.664 223.681,175.207 232.080 C 175.004 235.816,174.656 239.092,174.434 239.359 C 173.639 240.317,172.800 244.625,172.793 247.784 C 172.783 252.288,172.106 258.230,171.455 259.517 C 170.597 261.215,170.057 265.294,169.848 271.662 C 169.687 276.549,169.518 277.793,168.828 279.146 C 167.607 281.538,167.780 282.069,170.119 283.105 C 171.596 283.759,251.854 283.832,253.284 283.180 C 255.549 282.148,256.655 278.328,256.944 270.540 C 257.085 266.712,257.320 264.928,257.807 263.987 C 258.461 262.722,258.453 262.671,257.461 261.679 L 256.446 260.665 226.475 260.588 C 209.991 260.546,196.278 260.372,196.002 260.201 C 195.284 259.758,195.807 255.304,196.988 251.804 C 197.761 249.511,197.997 247.679,198.284 241.755 C 198.545 236.383,198.795 234.264,199.252 233.555 C 200.280 231.962,200.447 230.877,200.784 223.574 C 201.049 217.821,201.251 216.263,201.897 214.974 C 202.883 213.008,203.164 211.028,203.587 203.088 C 203.771 199.616,204.098 196.556,204.313 196.288 C 205.122 195.277,206.000 191.171,206.013 188.338 C 206.035 183.562,206.721 177.296,207.330 176.313 C 208.215 174.885,208.749 171.105,208.958 164.800 C 209.102 160.441,209.318 158.665,209.827 157.653 C 210.919 155.484,211.181 153.804,211.584 146.400 C 211.908 140.436,212.096 139.139,212.854 137.639 C 213.620 136.124,213.795 134.872,214.112 128.639 C 214.343 124.106,214.693 120.889,215.048 120.034 C 215.575 118.762,215.554 118.602,214.738 117.734 L 213.861 116.800 202.979 116.800 C 193.793 116.800,192.020 116.894,191.600 117.400 M224.895 117.066 C 223.850 117.488,223.514 119.065,223.197 125.062 C 223.017 128.457,222.692 131.451,222.476 131.717 C 221.623 132.762,220.800 136.705,220.793 139.773 C 220.783 144.191,220.140 149.949,219.582 150.622 C 218.751 151.623,218.378 154.099,218.006 161.078 C 217.716 166.514,217.479 168.274,216.877 169.478 C 215.824 171.582,215.620 172.874,215.199 180.129 C 214.898 185.314,214.655 186.906,213.857 188.929 C 213.023 191.043,212.841 192.364,212.600 198.069 C 212.400 202.783,212.141 205.069,211.715 205.869 C 210.573 208.015,210.344 209.424,210.004 216.400 C 209.743 221.762,209.500 223.722,208.964 224.777 C 207.943 226.788,207.652 228.653,207.223 235.936 C 207.012 239.530,206.668 242.680,206.460 242.936 C 204.756 245.025,204.279 251.771,205.737 253.141 L 206.674 254.021 227.104 253.911 C 247.118 253.802,247.557 253.783,248.667 252.963 C 249.290 252.503,250.718 251.906,251.839 251.638 C 254.319 251.044,258.841 246.899,259.636 244.492 C 259.900 243.690,260.458 242.756,260.875 242.417 C 261.415 241.976,261.792 240.770,262.192 238.200 C 262.500 236.220,263.153 233.811,263.645 232.846 C 264.419 231.323,264.575 230.187,264.826 224.246 C 265.063 218.653,265.264 217.071,265.927 215.600 C 267.379 212.378,267.699 209.113,267.751 197.000 C 267.802 184.835,267.728 184.241,265.977 182.800 C 264.633 181.693,264.575 180.152,265.854 179.538 C 266.472 179.242,267.195 178.561,267.463 178.025 C 267.730 177.488,268.386 176.820,268.921 176.540 C 269.607 176.180,269.967 175.565,270.146 174.446 C 270.286 173.575,270.895 172.274,271.500 171.555 C 272.508 170.358,272.622 169.877,272.858 165.824 C 273.042 162.679,273.351 160.880,273.928 159.600 C 275.017 157.182,275.719 145.515,275.535 132.856 L 275.400 123.511 274.100 122.426 C 273.385 121.830,272.800 121.079,272.800 120.757 C 272.800 120.436,272.255 119.851,271.589 119.457 C 270.923 119.064,269.941 118.305,269.407 117.771 L 268.436 116.800 246.918 116.832 C 235.083 116.849,225.173 116.955,224.895 117.066 M164.569 117.616 C 166.092 117.836,167.566 118.206,167.845 118.438 C 168.125 118.670,169.426 119.184,170.737 119.581 C 175.674 121.076,178.106 123.988,179.597 130.189 L 180.677 134.679 179.939 138.239 C 179.533 140.198,179.103 144.410,178.983 147.600 C 178.657 156.291,177.601 161.419,175.720 163.449 C 174.840 164.398,174.823 164.400,165.428 164.400 L 156.018 164.400 155.353 163.385 C 154.483 162.056,154.820 154.997,155.936 151.187 C 156.423 149.523,156.808 146.508,156.996 142.882 L 157.290 137.190 155.545 135.595 C 153.393 133.628,153.186 133.626,151.200 135.553 C 149.824 136.889,149.598 137.351,149.584 138.853 C 149.566 140.841,148.768 145.155,147.818 148.400 C 147.103 150.839,146.256 162.970,146.645 165.196 C 147.105 167.835,150.040 171.313,156.009 176.297 C 157.654 177.670,159.559 179.290,160.242 179.897 C 160.926 180.504,162.276 181.625,163.242 182.388 C 166.544 184.995,170.371 189.233,170.792 190.748 C 171.793 194.350,170.936 213.672,169.647 216.586 C 168.972 218.114,168.681 219.938,168.341 224.776 C 168.079 228.506,167.598 232.036,167.139 233.587 C 166.717 235.009,166.194 237.430,165.976 238.967 C 165.758 240.503,165.270 242.241,164.890 242.830 C 162.783 246.096,161.845 247.414,161.546 247.532 C 161.361 247.604,160.357 248.369,159.313 249.232 C 158.269 250.094,157.189 250.800,156.913 250.800 C 156.637 250.800,155.309 251.378,153.961 252.085 C 149.805 254.263,129.578 254.520,125.597 252.445 C 124.670 251.962,122.944 251.315,121.761 251.007 C 117.904 250.002,115.104 247.308,114.381 243.906 C 113.623 240.339,114.562 225.820,115.870 220.883 C 116.578 218.211,116.958 215.345,117.223 210.683 C 117.715 202.025,118.296 199.479,120.064 198.240 C 121.400 197.304,140.034 197.278,140.809 198.211 C 141.508 199.053,141.064 203.911,140.007 206.980 C 139.407 208.722,139.095 211.077,138.838 215.780 C 138.602 220.091,138.264 222.791,137.809 224.000 C 135.716 229.549,135.865 233.265,138.240 234.744 L 140.080 235.889 141.571 235.168 C 143.611 234.183,143.852 233.779,144.143 230.863 C 144.282 229.467,144.765 227.489,145.218 226.467 C 145.811 225.126,146.152 223.102,146.441 219.204 C 146.852 213.669,147.094 212.132,148.119 208.540 C 148.442 207.408,148.836 204.142,148.995 201.283 L 149.285 196.085 146.082 192.942 C 140.833 187.791,139.758 186.800,139.419 186.800 C 139.241 186.800,137.967 185.675,136.587 184.300 C 135.206 182.925,133.319 181.170,132.393 180.400 C 128.374 177.058,126.033 174.492,124.988 172.284 C 124.389 171.019,123.742 169.888,123.550 169.769 C 122.995 169.426,123.171 164.431,123.830 161.800 C 124.161 160.480,124.681 156.242,124.984 152.383 C 125.422 146.825,125.755 144.746,126.586 142.383 C 127.163 140.742,127.734 138.230,127.854 136.800 C 128.098 133.891,128.690 131.600,129.198 131.600 C 129.383 131.600,129.858 130.752,130.253 129.716 C 131.051 127.628,133.857 123.188,134.711 122.664 C 135.012 122.479,135.725 121.804,136.295 121.164 C 136.866 120.524,137.717 120.000,138.188 120.000 C 138.658 120.000,139.975 119.536,141.114 118.968 C 144.500 117.281,157.189 116.549,164.569 117.616 M213.326 117.776 C 214.570 118.719,213.617 131.536,211.927 136.597 C 211.343 138.345,211.041 140.727,210.813 145.397 C 210.571 150.359,210.306 152.340,209.639 154.200 C 208.991 156.005,208.677 158.236,208.371 163.200 C 208.065 168.172,207.724 170.589,206.988 173.000 C 206.266 175.369,205.906 177.862,205.604 182.600 C 205.379 186.120,205.025 189.630,204.816 190.400 C 204.607 191.170,204.149 192.880,203.798 194.200 C 203.448 195.520,203.013 199.390,202.832 202.800 C 202.581 207.524,202.296 209.571,201.637 211.400 C 200.975 213.239,200.672 215.438,200.345 220.800 C 200.017 226.163,199.702 228.455,198.997 230.600 C 198.373 232.498,197.992 234.881,197.813 238.000 C 197.448 244.356,196.940 248.003,196.044 250.701 C 194.803 254.440,194.510 260.216,195.534 260.765 C 196.099 261.067,205.318 261.200,225.729 261.200 C 253.126 261.200,255.168 261.247,255.951 261.900 C 257.042 262.810,256.491 273.941,255.184 277.400 C 254.769 278.500,254.302 279.940,254.148 280.600 C 253.613 282.888,255.830 282.774,211.762 282.787 C 164.780 282.802,169.382 283.242,169.987 278.788 C 170.180 277.365,170.455 273.860,170.597 271.000 C 170.789 267.173,171.110 265.008,171.815 262.800 C 172.545 260.517,172.870 258.224,173.179 253.200 C 173.402 249.570,173.755 245.970,173.964 245.200 C 174.173 244.430,174.631 242.810,174.981 241.600 C 175.347 240.332,175.762 236.605,175.959 232.800 C 176.220 227.758,176.501 225.633,177.149 223.800 C 177.787 221.991,178.101 219.677,178.421 214.400 C 178.746 209.050,179.075 206.646,179.818 204.200 C 180.542 201.812,180.893 199.326,181.203 194.400 C 181.431 190.770,181.786 187.170,181.992 186.400 C 182.198 185.630,182.648 184.010,182.992 182.800 C 183.336 181.590,183.773 177.720,183.964 174.200 C 184.219 169.480,184.533 167.126,185.160 165.232 C 185.766 163.401,186.176 160.476,186.589 155.032 C 186.946 150.316,187.418 146.712,187.825 145.600 C 188.186 144.610,188.647 141.820,188.848 139.400 C 189.589 130.497,190.012 127.343,190.797 124.864 C 191.239 123.470,191.600 121.575,191.600 120.653 C 191.600 117.163,191.486 117.198,202.723 117.213 C 210.475 117.223,212.756 117.344,213.326 117.776 M266.580 117.643 C 267.450 117.885,268.727 118.514,269.418 119.041 C 270.110 119.568,270.886 120.000,271.144 120.000 C 271.402 120.000,271.913 120.630,272.281 121.400 C 272.648 122.170,273.090 122.800,273.264 122.800 C 275.432 122.800,275.489 144.803,273.349 156.000 C 273.033 157.650,272.592 161.249,272.369 163.999 C 272.080 167.551,271.765 169.275,271.281 169.955 C 270.097 171.619,270.026 171.766,269.619 173.400 C 269.231 174.958,266.176 178.800,265.326 178.800 C 263.237 178.800,263.561 181.577,265.946 184.127 L 267.000 185.254 266.935 197.127 C 266.875 208.197,266.812 209.162,266.006 211.400 C 264.809 214.722,264.516 216.596,264.187 223.023 C 263.961 227.439,263.711 229.076,262.984 230.887 C 262.479 232.145,261.944 234.395,261.795 235.887 C 261.190 241.929,255.292 250.299,251.176 250.957 C 250.269 251.103,248.830 251.576,247.979 252.011 C 246.500 252.765,245.553 252.800,226.443 252.800 L 206.454 252.800 206.172 251.913 C 205.710 250.456,205.854 248.320,206.554 246.268 C 207.426 243.708,207.982 239.707,207.992 235.920 C 208.000 232.806,208.615 228.948,209.226 228.185 C 209.733 227.550,210.311 223.145,210.615 217.600 C 210.810 214.046,211.169 211.708,211.857 209.516 C 212.571 207.242,212.926 204.828,213.212 200.316 C 213.598 194.228,213.757 193.230,214.956 189.376 C 215.315 188.224,215.743 184.606,215.950 180.976 C 216.232 176.034,216.505 174.120,217.165 172.466 C 217.801 170.868,218.161 168.507,218.595 163.066 C 218.995 158.059,219.424 155.100,219.976 153.550 C 220.546 151.947,220.888 149.472,221.166 144.950 C 221.468 140.053,221.796 137.822,222.602 135.200 C 223.413 132.559,223.719 130.461,223.972 125.800 C 224.344 118.951,224.464 118.509,226.160 117.771 C 227.775 117.068,264.094 116.953,266.580 117.643 M246.329 134.065 C 245.882 134.422,245.463 135.867,245.072 138.400 C 244.750 140.490,244.196 143.218,243.841 144.461 C 243.442 145.859,243.062 149.527,242.846 154.061 C 242.575 159.761,242.312 161.936,241.670 163.800 C 239.777 169.296,240.318 170.800,244.189 170.800 C 249.262 170.800,249.830 169.941,250.615 161.089 C 250.932 157.520,251.546 153.369,251.980 151.863 C 253.009 148.297,253.278 135.507,252.345 134.573 C 251.525 133.753,247.180 133.386,246.329 134.065 M251.251 135.161 C 252.845 136.452,252.715 144.618,251.008 150.400 C 250.624 151.702,250.226 155.211,250.034 159.000 C 249.728 165.052,249.645 165.520,248.511 167.600 L 247.312 169.800 244.489 169.800 C 241.090 169.800,241.012 169.740,241.855 167.761 C 242.905 165.300,243.148 163.528,243.591 155.126 C 243.934 148.608,244.151 146.921,244.848 145.326 C 245.422 144.014,245.796 141.999,246.022 139.000 C 246.205 136.580,246.364 134.555,246.377 134.500 C 246.494 133.994,250.477 134.534,251.251 135.161 M238.011 189.772 C 237.785 190.366,237.600 191.282,237.600 191.806 C 237.600 193.171,236.849 196.608,235.940 199.400 C 235.429 200.973,235.046 203.729,234.831 207.400 C 234.621 210.974,234.256 213.651,233.821 214.800 C 232.805 217.481,232.511 219.285,232.191 224.800 C 232.031 227.550,231.658 230.606,231.362 231.592 C 230.714 233.748,230.878 233.952,233.517 234.265 C 237.161 234.696,240.000 232.389,240.000 228.995 C 240.000 227.125,240.636 224.922,241.450 223.976 C 241.769 223.605,242.172 221.338,242.446 218.376 C 242.732 215.271,243.275 212.282,243.889 210.426 C 245.352 206.008,245.776 191.020,244.473 189.855 C 242.940 188.487,238.521 188.430,238.011 189.772 M244.276 190.500 C 244.865 191.409,244.439 204.288,243.760 206.132 C 242.604 209.270,242.367 210.605,242.030 215.873 C 241.760 220.101,241.537 221.369,240.905 222.273 C 240.014 223.547,239.765 224.414,239.249 228.045 C 238.784 231.327,237.007 233.454,234.561 233.660 L 233.000 233.791 233.023 226.596 C 233.043 220.376,233.144 219.252,233.763 218.309 C 234.816 216.707,235.152 214.864,235.589 208.302 C 235.907 203.521,236.149 202.082,236.863 200.702 C 237.528 199.416,237.779 198.119,237.890 195.400 C 238.123 189.720,237.952 190.000,241.184 190.000 C 242.960 190.000,244.069 190.179,244.276 190.500 "
            stroke="none" fill="#9ecade" fill-rule="evenodd"></path>
        <path id="path3"
            d="M170.300 39.232 C 169.915 39.456,169.600 39.991,169.600 40.420 C 169.600 41.150,169.284 41.201,164.700 41.223 C 159.308 41.247,157.204 41.735,156.605 43.100 C 156.237 43.938,155.961 44.000,152.585 44.000 C 148.724 44.000,148.000 44.297,148.000 45.880 C 148.000 46.776,147.899 46.800,144.190 46.800 L 140.380 46.800 140.144 47.982 C 139.916 49.120,139.816 49.169,137.454 49.282 C 135.006 49.400,135.000 49.403,134.875 50.700 L 134.749 52.000 131.801 52.000 C 128.051 52.000,126.800 52.448,126.800 53.790 C 126.800 54.733,126.670 54.800,124.833 54.800 C 122.246 54.800,121.600 55.088,121.600 56.243 C 121.600 57.000,121.389 57.200,120.587 57.200 C 119.006 57.200,116.750 58.306,116.517 59.195 C 116.360 59.795,115.973 60.000,114.996 60.000 C 113.658 60.000,113.200 60.519,113.200 62.033 C 113.200 62.704,112.899 62.800,110.790 62.800 C 108.432 62.800,108.375 62.826,108.140 64.000 C 107.962 64.892,107.677 65.200,107.030 65.200 C 105.905 65.200,105.200 65.924,105.200 67.080 C 105.200 67.875,104.997 68.001,103.700 68.005 C 101.244 68.014,100.469 68.376,100.191 69.641 C 99.980 70.600,99.733 70.800,98.758 70.800 C 97.774 70.800,97.541 70.994,97.344 71.978 C 97.164 72.878,96.860 73.184,96.054 73.278 C 95.188 73.378,94.978 73.632,94.875 74.700 C 94.765 75.836,94.604 76.000,93.601 76.000 C 91.790 76.000,90.489 76.668,89.835 77.932 C 89.503 78.573,88.867 79.194,88.421 79.310 C 87.975 79.427,87.432 79.990,87.215 80.561 C 86.929 81.314,86.532 81.600,85.775 81.600 C 84.995 81.600,84.622 81.887,84.302 82.736 C 84.053 83.395,83.395 84.053,82.736 84.302 C 81.891 84.621,81.600 84.996,81.600 85.765 C 81.600 86.578,81.403 86.800,80.680 86.800 C 79.524 86.800,78.800 87.505,78.800 88.630 C 78.800 89.268,78.494 89.561,77.654 89.729 C 76.459 89.968,76.000 91.049,76.000 93.625 C 76.000 94.601,75.829 94.766,74.700 94.875 C 73.625 94.978,73.379 95.186,73.276 96.076 C 73.180 96.907,72.907 97.180,72.076 97.276 C 71.191 97.378,70.978 97.626,70.876 98.676 C 70.769 99.788,70.588 99.969,69.476 100.076 C 68.370 100.184,68.184 100.367,68.078 101.454 C 67.979 102.471,67.741 102.752,66.819 102.936 C 65.763 103.147,65.663 103.333,65.402 105.582 C 65.131 107.919,65.083 108.000,63.961 108.000 C 62.901 108.000,62.800 108.122,62.800 109.400 C 62.800 110.630,62.678 110.800,61.790 110.800 C 60.601 110.800,60.000 112.018,60.000 114.426 C 60.000 115.894,59.922 116.000,58.847 116.000 C 57.545 116.000,57.215 116.695,57.205 119.450 C 57.200 120.962,57.099 121.120,56.000 121.340 C 54.814 121.577,54.800 121.610,54.800 124.190 L 54.800 126.800 53.400 126.800 L 52.000 126.800 52.000 129.400 C 52.000 131.999,51.999 132.000,50.847 132.000 C 49.522 132.000,49.214 132.688,49.205 135.673 C 49.200 137.418,49.124 137.556,48.100 137.673 L 47.000 137.800 46.886 141.446 L 46.771 145.092 45.486 145.460 L 44.200 145.828 44.086 149.689 L 43.972 153.550 42.886 153.675 C 41.541 153.830,41.273 155.187,41.230 162.073 L 41.200 166.747 40.100 166.873 L 39.000 167.000 38.897 194.668 L 38.795 222.335 39.997 222.599 L 41.200 222.864 41.200 227.376 C 41.200 234.227,41.464 235.593,42.843 235.869 L 43.972 236.094 44.086 239.947 L 44.200 243.800 45.500 243.925 L 46.800 244.051 46.800 247.835 L 46.800 251.620 47.982 251.856 C 49.120 252.084,49.169 252.184,49.282 254.546 C 49.400 256.994,49.403 257.000,50.700 257.125 L 52.000 257.251 52.000 259.638 C 52.000 262.608,52.841 264.800,53.980 264.800 C 54.670 264.800,54.800 265.053,54.800 266.400 C 54.800 267.911,54.867 268.000,56.000 268.000 C 57.171 268.000,57.200 268.048,57.200 269.967 C 57.200 272.649,57.477 273.200,58.824 273.200 C 59.939 273.200,59.964 273.249,60.081 275.676 C 60.197 278.099,60.228 278.159,61.500 278.488 C 62.600 278.771,62.800 279.006,62.800 280.011 C 62.800 281.053,62.942 281.200,63.944 281.200 C 65.043 281.200,65.102 281.299,65.444 283.700 C 65.773 286.012,65.881 286.209,66.876 286.324 C 67.762 286.427,67.975 286.675,68.076 287.724 C 68.185 288.840,68.363 289.016,69.500 289.125 C 70.690 289.240,70.800 289.367,70.800 290.625 C 70.800 291.886,70.899 292.000,72.000 292.000 C 73.042 292.000,73.200 292.145,73.201 293.100 C 73.203 294.437,74.575 296.800,75.350 296.800 C 75.672 296.800,76.020 297.383,76.168 298.171 C 76.376 299.278,76.654 299.592,77.613 299.803 C 78.585 300.016,78.800 300.267,78.800 301.187 C 78.800 302.155,78.995 302.347,80.200 302.574 C 81.425 302.803,81.600 302.984,81.600 304.018 C 81.600 305.065,81.737 305.200,82.800 305.200 C 83.786 305.200,84.000 305.364,84.000 306.120 C 84.000 307.292,84.708 308.000,85.880 308.000 C 86.628 308.000,86.800 308.216,86.800 309.155 C 86.800 310.159,86.984 310.345,88.200 310.574 C 89.328 310.785,89.600 311.019,89.600 311.775 C 89.600 312.912,90.254 313.200,92.833 313.200 L 94.800 313.200 94.800 314.600 C 94.800 315.889,94.895 316.000,96.000 316.000 C 96.986 316.000,97.200 316.164,97.200 316.920 C 97.200 318.076,97.905 318.800,99.030 318.800 C 99.677 318.800,99.962 319.108,100.140 320.000 C 100.352 321.061,100.543 321.200,101.790 321.200 C 102.945 321.200,103.200 321.348,103.200 322.020 C 103.200 322.931,105.246 324.000,106.987 324.000 C 107.797 324.000,108.000 324.198,108.000 324.986 C 108.000 326.236,109.040 326.800,111.347 326.800 C 113.013 326.800,113.156 326.882,113.273 327.900 C 113.379 328.817,113.617 329.021,114.700 329.125 C 115.600 329.212,116.002 329.458,116.006 329.925 C 116.019 331.295,116.749 331.786,119.082 331.994 C 121.227 332.185,121.409 332.279,121.522 333.254 C 121.653 334.382,122.708 334.800,125.423 334.800 C 126.570 334.800,126.764 334.947,126.873 335.900 C 126.995 336.953,127.106 337.005,129.472 337.118 C 131.828 337.231,131.956 337.291,132.195 338.378 C 132.497 339.754,133.204 339.987,137.100 339.995 C 139.914 340.000,140.000 340.029,140.000 340.986 C 140.000 342.389,141.076 342.800,144.747 342.800 C 147.940 342.800,147.947 342.802,148.073 343.900 L 148.200 345.000 152.100 345.114 C 155.619 345.218,156.000 345.303,156.000 345.986 C 156.000 347.749,156.897 348.000,163.185 348.000 L 169.113 348.000 169.388 349.096 C 169.822 350.826,169.130 350.787,200.113 350.794 C 231.751 350.800,232.168 350.775,232.680 348.816 C 232.872 348.080,233.286 348.014,238.344 347.911 L 243.800 347.800 243.923 346.535 L 244.045 345.270 248.461 345.135 C 252.728 345.005,252.907 344.963,253.754 343.900 C 254.505 342.957,254.923 342.800,256.682 342.800 C 259.463 342.800,260.000 342.534,260.000 341.157 L 260.000 340.000 263.371 340.000 C 266.942 340.000,268.000 339.540,268.000 337.991 C 268.000 337.347,268.362 337.221,270.500 337.119 C 272.896 337.005,273.005 336.954,273.127 335.900 C 273.247 334.852,273.356 334.800,275.398 334.800 C 277.700 334.800,278.800 334.144,278.800 332.771 C 278.800 332.114,279.091 332.000,280.771 332.000 C 282.895 332.000,284.000 331.306,284.000 329.971 C 284.000 329.314,284.291 329.200,285.971 329.200 C 287.968 329.200,289.200 328.512,289.200 327.397 C 289.200 327.073,289.729 326.800,290.500 326.725 C 291.643 326.615,291.815 326.443,291.925 325.300 C 292.036 324.152,292.190 324.000,293.245 324.000 C 294.908 324.000,296.800 322.943,296.800 322.014 C 296.800 321.418,297.132 321.221,298.300 321.124 C 299.593 321.017,299.817 320.852,299.924 319.924 C 300.027 319.038,300.275 318.825,301.324 318.724 C 302.440 318.615,302.616 318.437,302.725 317.300 C 302.827 316.249,303.026 316.000,303.766 316.000 C 305.486 316.000,307.196 315.154,307.440 314.183 C 307.614 313.490,308.001 313.213,308.922 313.123 C 309.876 313.029,310.222 312.765,310.397 312.000 C 310.554 311.311,311.025 310.881,311.912 310.617 C 312.955 310.307,313.200 310.026,313.200 309.143 C 313.200 308.203,313.381 308.033,314.500 307.925 C 315.643 307.815,315.815 307.643,315.925 306.500 C 316.036 305.354,316.191 305.200,317.235 305.200 C 318.222 305.200,318.459 305.007,318.652 304.042 C 318.827 303.164,319.164 302.827,320.042 302.652 C 321.013 302.457,321.200 302.225,321.200 301.210 C 321.200 300.214,321.363 300.000,322.120 300.000 C 323.276 300.000,324.000 299.295,324.000 298.170 C 324.000 297.527,324.307 297.239,325.179 297.064 C 326.286 296.843,326.373 296.684,326.630 294.414 C 326.894 292.086,326.944 292.000,328.052 292.000 C 329.097 292.000,329.200 291.875,329.200 290.600 C 329.200 289.267,329.267 289.200,330.600 289.200 C 331.889 289.200,332.000 289.105,332.000 288.000 C 332.000 287.081,332.181 286.800,332.771 286.800 C 333.812 286.800,334.800 285.746,334.800 284.636 C 334.800 284.060,335.160 283.565,335.784 283.280 C 336.566 282.924,336.821 282.431,337.026 280.887 C 337.258 279.139,337.412 278.904,338.542 278.571 C 339.758 278.212,339.804 278.117,339.918 275.724 C 340.036 273.259,340.043 273.247,341.318 273.124 C 342.441 273.015,342.616 272.839,342.725 271.700 C 342.827 270.641,343.024 270.400,343.783 270.400 C 344.912 270.400,345.200 269.743,345.200 267.167 C 345.200 265.330,345.267 265.200,346.210 265.200 C 347.421 265.200,348.000 263.977,348.000 261.421 C 348.000 260.026,348.155 259.653,348.805 259.483 C 349.913 259.193,350.800 256.860,350.800 254.239 C 350.800 252.152,350.850 252.047,351.900 251.927 C 352.962 251.804,353.004 251.710,353.117 249.156 C 353.222 246.786,353.336 246.466,354.225 246.061 C 355.624 245.424,356.000 244.094,356.000 239.774 L 356.000 236.000 357.157 236.000 C 358.690 236.000,358.800 235.597,358.800 229.967 C 358.800 225.643,358.867 225.200,359.520 225.200 C 361.219 225.200,361.200 225.556,361.200 194.485 L 361.200 164.731 360.000 164.278 L 358.800 163.825 358.795 159.612 C 358.788 154.320,358.636 153.747,357.165 153.453 L 356.000 153.220 356.000 149.428 L 356.000 145.636 354.600 145.374 L 353.200 145.111 353.200 141.405 L 353.200 137.700 352.000 137.460 C 350.844 137.229,350.800 137.140,350.800 135.059 C 350.800 132.451,349.928 130.179,348.816 129.888 C 348.228 129.734,348.000 129.346,348.000 128.497 C 348.000 126.513,347.209 124.817,346.160 124.554 C 345.387 124.360,345.200 124.054,345.200 122.983 C 345.200 121.100,344.525 119.558,343.595 119.315 C 343.092 119.183,342.800 118.768,342.800 118.186 C 342.800 116.582,342.368 116.000,341.176 116.000 C 340.060 116.000,340.036 115.953,339.919 113.500 C 339.800 111.000,339.800 111.000,338.500 110.875 C 337.310 110.760,337.200 110.633,337.200 109.375 C 337.200 108.129,337.093 108.000,336.056 108.000 C 334.964 108.000,334.902 107.900,334.686 105.810 C 334.411 103.145,334.218 102.800,333.002 102.800 C 332.221 102.800,332.028 102.567,331.925 101.500 C 331.816 100.362,331.640 100.185,330.524 100.076 C 329.412 99.969,329.231 99.788,329.124 98.676 C 329.021 97.618,328.812 97.378,327.900 97.273 C 327.005 97.170,326.800 96.947,326.799 96.073 C 326.797 94.789,325.425 92.400,324.689 92.400 C 324.401 92.400,323.993 91.815,323.783 91.100 C 323.490 90.106,323.147 89.771,322.324 89.676 C 321.438 89.573,321.225 89.325,321.124 88.276 C 321.021 87.220,320.811 86.978,319.905 86.874 C 319.053 86.776,318.736 86.464,318.482 85.474 C 318.231 84.501,317.905 84.171,317.101 84.076 C 316.296 83.981,316.019 83.700,315.924 82.878 C 315.827 82.037,315.540 81.759,314.605 81.599 C 313.822 81.465,313.359 81.119,313.262 80.597 C 313.042 79.414,312.411 78.800,311.415 78.800 C 310.856 78.800,310.359 78.428,310.069 77.792 C 309.563 76.682,308.167 76.000,306.399 76.000 C 305.396 76.000,305.235 75.836,305.125 74.700 C 305.022 73.625,304.814 73.379,303.924 73.276 C 303.093 73.180,302.820 72.907,302.724 72.076 C 302.621 71.186,302.375 70.978,301.300 70.875 C 300.258 70.774,300.000 70.572,300.000 69.855 C 300.000 68.468,299.223 68.000,296.920 68.000 C 294.974 68.000,294.800 67.924,294.800 67.080 C 294.800 65.924,294.095 65.200,292.970 65.200 C 292.323 65.200,292.038 64.892,291.860 64.000 C 291.625 62.826,291.568 62.800,289.210 62.800 C 286.979 62.800,286.800 62.733,286.794 61.900 C 286.785 60.575,286.340 60.088,284.999 59.936 C 284.117 59.836,283.767 59.565,283.674 58.912 C 283.540 57.975,281.678 57.207,279.527 57.202 C 278.654 57.200,278.430 56.995,278.327 56.100 C 278.205 55.046,278.096 54.995,275.700 54.881 C 273.356 54.769,273.200 54.702,273.200 53.795 C 273.200 52.540,272.140 52.000,269.673 52.000 C 268.025 52.000,267.658 51.865,267.483 51.195 C 267.194 50.091,264.863 49.200,262.263 49.200 C 260.180 49.200,260.091 49.156,259.860 48.000 L 259.620 46.800 255.810 46.800 C 252.101 46.800,252.000 46.776,252.000 45.880 C 252.000 44.297,251.276 44.000,247.415 44.000 C 244.039 44.000,243.763 43.938,243.395 43.100 C 242.796 41.735,240.692 41.247,235.300 41.223 C 230.405 41.200,230.400 41.199,230.400 40.243 C 230.400 39.716,230.115 39.176,229.767 39.043 C 228.631 38.607,171.059 38.790,170.300 39.232 M169.424 117.873 C 170.098 118.354,171.178 118.874,171.824 119.030 C 175.539 119.923,179.102 123.638,179.767 127.312 C 179.917 128.143,180.428 129.479,180.901 130.281 C 182.094 132.304,182.063 137.268,180.836 140.400 C 180.134 142.194,179.898 144.039,179.560 150.400 C 178.730 166.003,178.733 166.000,165.471 166.000 C 155.526 166.000,155.419 165.984,154.585 164.371 C 153.414 162.107,154.057 150.981,155.519 148.200 C 155.957 147.368,156.203 145.509,156.322 142.135 L 156.494 137.269 155.296 136.649 C 154.636 136.309,153.982 135.731,153.842 135.366 C 153.622 134.792,153.447 134.844,152.539 135.752 C 151.963 136.328,151.270 136.800,151.000 136.800 C 150.415 136.800,150.000 139.448,150.000 143.185 C 150.000 145.685,149.166 149.187,148.310 150.281 C 147.924 150.774,147.084 163.721,147.368 164.800 C 147.455 165.130,147.633 165.883,147.764 166.473 C 147.895 167.064,148.361 167.661,148.800 167.800 C 149.239 167.939,149.702 168.468,149.830 168.975 C 149.957 169.483,150.477 170.120,150.986 170.393 C 151.495 170.665,152.142 171.318,152.424 171.844 C 152.705 172.370,153.153 172.800,153.420 172.800 C 153.687 172.800,154.376 173.418,154.952 174.173 C 155.528 174.928,156.370 175.663,156.823 175.807 C 157.275 175.951,157.811 176.503,158.013 177.034 C 158.238 177.626,158.701 178.000,159.209 178.000 C 159.707 178.000,160.308 178.471,160.715 179.181 C 161.088 179.830,161.800 180.464,162.298 180.589 C 163.752 180.954,169.910 186.829,171.045 188.934 C 172.884 192.347,172.032 216.061,169.944 219.575 C 169.220 220.792,169.048 221.964,168.765 227.600 C 168.418 234.511,168.098 236.610,167.086 238.600 C 166.750 239.260,166.349 240.610,166.194 241.600 C 165.921 243.352,164.349 245.981,162.518 247.748 C 159.683 250.486,158.711 251.193,157.241 251.589 C 156.342 251.831,155.183 252.453,154.665 252.972 C 153.402 254.234,148.285 254.589,135.558 254.295 L 126.117 254.078 123.758 252.874 C 122.461 252.211,120.789 251.544,120.043 251.390 C 118.823 251.140,118.062 250.593,115.015 247.782 C 114.504 247.311,114.011 246.232,113.851 245.232 C 113.699 244.279,113.310 243.121,112.987 242.660 C 112.221 241.566,112.241 239.545,113.037 237.687 C 113.492 236.625,113.772 234.026,114.016 228.600 C 114.357 221.010,114.583 219.436,115.711 216.800 C 116.122 215.839,116.400 213.142,116.597 208.200 C 117.068 196.403,116.320 197.033,130.024 196.882 C 143.070 196.738,142.146 196.312,141.939 202.373 C 141.820 205.840,141.635 206.874,140.917 208.092 C 140.161 209.372,139.980 210.564,139.609 216.689 C 139.148 224.301,138.902 225.875,137.863 227.880 C 135.829 231.806,137.686 234.884,141.592 234.063 L 142.985 233.770 143.467 229.660 C 143.801 226.824,144.221 225.094,144.824 224.075 C 145.578 222.801,145.743 221.701,146.032 216.000 C 146.360 209.533,146.613 207.817,147.592 205.400 C 148.722 202.608,148.622 196.238,147.435 195.460 C 146.846 195.074,146.197 194.318,145.992 193.779 C 145.787 193.241,145.390 192.800,145.110 192.800 C 144.830 192.800,144.060 192.261,143.400 191.603 C 140.986 189.194,139.165 187.600,138.828 187.600 C 138.639 187.600,137.238 186.385,135.716 184.900 C 134.193 183.415,132.079 181.480,131.017 180.600 C 127.378 177.585,125.148 175.152,124.601 173.604 C 124.301 172.752,123.695 171.695,123.256 171.256 C 121.738 169.738,121.855 161.037,123.445 157.231 C 124.108 155.643,124.783 149.908,124.793 145.768 C 124.799 143.519,125.011 142.530,125.822 140.968 C 126.507 139.650,126.954 137.943,127.176 135.800 C 127.564 132.049,127.838 131.253,129.079 130.271 C 129.596 129.861,130.000 129.108,130.000 128.551 C 130.000 127.365,131.054 125.200,131.631 125.200 C 131.856 125.200,132.307 124.564,132.632 123.786 C 132.958 123.004,133.649 122.209,134.177 122.009 C 134.702 121.809,135.244 121.292,135.381 120.860 C 135.599 120.174,138.139 118.800,139.190 118.800 C 139.396 118.800,140.238 118.343,141.061 117.785 L 142.557 116.769 155.379 116.885 C 167.825 116.997,168.236 117.026,169.424 117.873 M214.738 117.734 C 215.554 118.602,215.575 118.762,215.048 120.034 C 214.693 120.889,214.343 124.106,214.112 128.639 C 213.795 134.872,213.620 136.124,212.854 137.639 C 212.096 139.139,211.908 140.436,211.584 146.400 C 211.181 153.804,210.919 155.484,209.827 157.653 C 209.318 158.665,209.102 160.441,208.958 164.800 C 208.749 171.105,208.215 174.885,207.330 176.313 C 206.721 177.296,206.035 183.562,206.013 188.338 C 206.000 191.171,205.122 195.277,204.313 196.288 C 204.098 196.556,203.771 199.616,203.587 203.088 C 203.164 211.028,202.883 213.008,201.897 214.974 C 201.251 216.263,201.049 217.821,200.784 223.574 C 200.447 230.877,200.280 231.962,199.252 233.555 C 198.795 234.264,198.545 236.383,198.284 241.755 C 197.997 247.679,197.761 249.511,196.988 251.804 C 195.807 255.304,195.284 259.758,196.002 260.201 C 196.278 260.372,209.991 260.546,226.475 260.588 L 256.446 260.665 257.461 261.679 C 258.453 262.671,258.461 262.722,257.807 263.987 C 257.320 264.928,257.085 266.712,256.944 270.540 C 256.655 278.328,255.549 282.148,253.284 283.180 C 251.854 283.832,171.596 283.759,170.119 283.105 C 167.780 282.069,167.607 281.538,168.828 279.146 C 169.518 277.793,169.687 276.549,169.848 271.662 C 170.057 265.294,170.597 261.215,171.455 259.517 C 172.106 258.230,172.783 252.288,172.793 247.784 C 172.800 244.625,173.639 240.317,174.434 239.359 C 174.656 239.092,175.004 235.816,175.207 232.080 C 175.664 223.681,175.883 222.166,176.896 220.400 C 177.582 219.205,177.745 217.914,178.011 211.600 C 178.183 207.530,178.510 203.660,178.739 203.000 C 178.968 202.340,179.419 201.079,179.742 200.197 C 180.109 199.194,180.436 196.125,180.613 191.997 C 180.846 186.594,181.074 184.867,181.874 182.456 C 182.632 180.166,182.929 178.119,183.207 173.256 C 183.626 165.914,184.122 162.684,185.044 161.277 C 185.576 160.465,185.776 158.729,186.016 152.828 C 186.234 147.492,186.507 144.893,186.988 143.600 C 188.261 140.173,188.386 139.368,188.720 132.374 C 188.999 126.569,189.201 125.040,189.888 123.574 C 190.345 122.598,190.805 120.945,190.910 119.900 C 191.236 116.666,190.715 116.800,202.979 116.800 L 213.861 116.800 214.738 117.734 M269.407 117.771 C 269.941 118.305,270.923 119.064,271.589 119.457 C 272.255 119.851,272.800 120.436,272.800 120.757 C 272.800 121.079,273.385 121.830,274.100 122.426 L 275.400 123.511 275.535 132.856 C 275.719 145.515,275.017 157.182,273.928 159.600 C 273.351 160.880,273.042 162.679,272.858 165.824 C 272.622 169.877,272.508 170.358,271.500 171.555 C 270.895 172.274,270.286 173.575,270.146 174.446 C 269.967 175.565,269.607 176.180,268.921 176.540 C 268.386 176.820,267.730 177.488,267.463 178.025 C 267.195 178.561,266.472 179.242,265.854 179.538 C 264.575 180.152,264.633 181.693,265.977 182.800 C 267.728 184.241,267.802 184.835,267.751 197.000 C 267.699 209.113,267.379 212.378,265.927 215.600 C 265.264 217.071,265.063 218.653,264.826 224.246 C 264.575 230.187,264.419 231.323,263.645 232.846 C 263.153 233.811,262.500 236.220,262.192 238.200 C 261.792 240.770,261.415 241.976,260.875 242.417 C 260.458 242.756,259.900 243.690,259.636 244.492 C 258.841 246.899,254.319 251.044,251.839 251.638 C 250.718 251.906,249.290 252.503,248.667 252.963 C 247.557 253.783,247.118 253.802,227.104 253.911 L 206.674 254.021 205.737 253.141 C 204.279 251.771,204.756 245.025,206.460 242.936 C 206.668 242.680,207.012 239.530,207.223 235.936 C 207.652 228.653,207.943 226.788,208.964 224.777 C 209.500 223.722,209.743 221.762,210.004 216.400 C 210.344 209.424,210.573 208.015,211.715 205.869 C 212.141 205.069,212.400 202.783,212.600 198.069 C 212.841 192.364,213.023 191.043,213.857 188.929 C 214.655 186.906,214.898 185.314,215.199 180.129 C 215.620 172.874,215.824 171.582,216.877 169.478 C 217.479 168.274,217.716 166.514,218.006 161.078 C 218.378 154.099,218.751 151.623,219.582 150.622 C 220.140 149.949,220.783 144.191,220.793 139.773 C 220.800 136.705,221.623 132.762,222.476 131.717 C 222.692 131.451,223.017 128.457,223.197 125.062 C 223.514 119.065,223.850 117.488,224.895 117.066 C 225.173 116.955,235.083 116.849,246.918 116.832 L 268.436 116.800 269.407 117.771 M246.377 134.500 C 246.364 134.555,246.205 136.580,246.022 139.000 C 245.796 141.999,245.422 144.014,244.848 145.326 C 244.151 146.921,243.934 148.608,243.591 155.126 C 243.148 163.528,242.905 165.300,241.855 167.761 C 241.012 169.740,241.090 169.800,244.489 169.800 L 247.312 169.800 248.511 167.600 C 249.645 165.520,249.728 165.052,250.034 159.000 C 250.226 155.211,250.624 151.702,251.008 150.400 C 252.715 144.618,252.845 136.452,251.251 135.161 C 250.477 134.534,246.494 133.994,246.377 134.500 M238.226 190.900 C 238.123 191.395,237.971 193.420,237.890 195.400 C 237.779 198.119,237.528 199.416,236.863 200.702 C 236.149 202.082,235.907 203.521,235.589 208.302 C 235.152 214.864,234.816 216.707,233.763 218.309 C 233.144 219.252,233.043 220.376,233.023 226.596 L 233.000 233.791 234.561 233.660 C 237.007 233.454,238.784 231.327,239.249 228.045 C 239.765 224.414,240.014 223.547,240.905 222.273 C 241.537 221.369,241.760 220.101,242.030 215.873 C 242.367 210.605,242.604 209.270,243.760 206.132 C 244.439 204.288,244.865 191.409,244.276 190.500 C 243.631 189.503,238.448 189.846,238.226 190.900 "
            stroke="none" fill="#fbfcfb" fill-rule="evenodd"></path>
        <path id="path4"
            d="M145.400 117.557 C 144.520 117.691,148.840 117.800,155.000 117.800 C 161.160 117.800,165.300 117.681,164.200 117.535 C 161.730 117.208,147.588 117.224,145.400 117.557 M192.368 117.900 C 191.918 118.496,191.922 118.525,192.399 118.100 C 192.815 117.729,195.454 117.600,202.604 117.600 C 213.614 117.600,213.490 117.567,213.711 120.600 L 213.856 122.600 213.928 120.444 C 214.037 117.172,214.228 117.228,202.749 117.213 C 193.827 117.201,192.848 117.266,192.368 117.900 M226.100 117.796 C 225.385 118.107,224.800 118.451,224.800 118.560 C 224.800 118.670,225.443 118.490,226.229 118.162 C 227.445 117.654,230.617 117.582,247.456 117.682 C 258.345 117.747,266.837 117.683,266.327 117.540 C 264.280 116.966,227.471 117.200,226.100 117.796 M140.815 119.054 C 139.713 119.638,139.331 119.995,139.815 119.988 C 140.247 119.981,141.320 119.532,142.200 118.990 C 144.221 117.745,143.194 117.792,140.815 119.054 M168.000 119.000 C 168.990 119.530,170.250 119.959,170.800 119.954 C 171.477 119.947,171.193 119.758,169.920 119.366 C 168.885 119.048,167.930 118.610,167.796 118.394 C 167.662 118.177,167.248 118.008,166.876 118.018 C 166.504 118.028,167.010 118.470,168.000 119.000 M268.600 118.988 C 269.260 119.529,269.980 119.977,270.200 119.984 C 270.420 119.990,270.060 119.553,269.400 119.012 C 268.740 118.471,268.020 118.023,267.800 118.016 C 267.580 118.010,267.940 118.447,268.600 118.988 M191.672 120.458 C 191.632 121.480,191.229 123.517,190.776 124.985 C 190.322 126.453,190.017 127.851,190.098 128.093 C 190.438 129.115,192.040 122.378,191.895 120.531 L 191.744 118.600 191.672 120.458 M224.269 120.356 C 224.121 121.095,224.021 122.263,224.047 122.950 C 224.079 123.812,224.205 123.525,224.455 122.023 C 224.853 119.621,224.697 118.217,224.269 120.356 M136.529 120.914 C 136.128 121.417,135.355 122.137,134.811 122.514 C 134.267 122.891,134.063 123.200,134.357 123.200 C 134.651 123.200,135.456 122.595,136.146 121.855 C 136.836 121.115,137.670 120.409,138.000 120.286 C 138.491 120.104,138.478 120.057,137.929 120.032 C 137.560 120.014,136.930 120.411,136.529 120.914 M173.501 121.100 C 174.186 121.705,175.073 122.489,175.473 122.843 C 176.428 123.687,177.680 125.177,178.286 126.189 C 178.553 126.635,178.778 126.800,178.786 126.556 C 178.808 125.849,176.256 122.824,174.394 121.350 C 172.340 119.725,171.761 119.563,173.501 121.100 M272.027 121.445 C 272.012 121.690,272.540 122.569,273.200 123.400 C 273.860 124.231,274.425 125.380,274.454 125.955 C 274.502 126.857,274.532 126.881,274.679 126.127 C 274.856 125.215,273.820 122.800,273.251 122.800 C 273.070 122.800,272.727 122.395,272.488 121.900 C 272.249 121.405,272.042 121.200,272.027 121.445 M213.276 125.400 C 213.230 126.940,213.111 129.190,213.010 130.400 L 212.826 132.600 213.227 130.400 C 213.447 129.190,213.566 126.940,213.493 125.400 L 213.359 122.600 213.276 125.400 M132.374 125.700 C 131.634 126.855,130.694 128.655,130.286 129.700 C 129.878 130.745,129.394 131.600,129.211 131.600 C 128.818 131.600,127.984 133.841,128.036 134.760 C 128.056 135.112,128.251 134.770,128.470 134.000 C 128.689 133.230,129.107 132.330,129.399 132.000 C 129.691 131.670,130.400 130.410,130.975 129.200 C 131.549 127.990,132.478 126.235,133.040 125.300 C 134.489 122.885,133.983 123.189,132.374 125.700 M178.832 128.436 C 178.814 129.006,179.068 130.356,179.396 131.436 C 180.145 133.908,180.147 135.105,179.407 138.600 C 179.081 140.140,178.834 142.210,178.858 143.200 C 178.900 144.921,178.916 144.894,179.221 142.600 C 179.397 141.280,179.798 138.965,180.112 137.456 C 180.648 134.875,180.628 134.496,179.773 131.056 C 179.273 129.045,178.850 127.866,178.832 128.436 M189.453 131.877 C 188.879 139.503,188.726 142.585,188.931 142.391 C 189.199 142.137,190.088 129.155,189.854 128.920 C 189.762 128.829,189.582 130.159,189.453 131.877 M223.664 130.630 C 223.629 131.306,223.140 133.376,222.579 135.230 C 221.624 138.379,220.432 150.165,221.009 150.743 C 221.114 150.848,221.204 150.768,221.209 150.567 C 221.345 144.708,222.095 138.411,223.003 135.499 C 223.615 133.537,223.989 131.542,223.894 130.756 L 223.728 129.400 223.664 130.630 M211.690 135.600 C 211.199 137.250,210.819 139.230,210.846 140.000 C 210.888 141.222,210.936 141.147,211.227 139.411 C 211.409 138.318,211.852 136.655,212.210 135.718 C 212.568 134.780,212.799 133.695,212.722 133.307 C 212.645 132.918,212.181 133.950,211.690 135.600 M246.042 133.900 C 245.383 134.444,245.154 135.180,245.013 137.200 L 244.832 139.800 245.236 137.200 C 245.713 134.130,245.863 133.941,248.092 133.578 L 249.800 133.300 248.344 133.250 C 247.483 133.220,246.543 133.486,246.042 133.900 M150.947 135.347 C 149.576 136.718,149.199 137.386,149.197 138.447 C 149.195 139.191,149.112 140.790,149.013 142.000 C 148.834 144.192,148.834 144.194,149.187 142.400 C 149.382 141.410,149.554 139.814,149.570 138.853 C 149.613 136.353,153.238 132.843,154.188 134.381 C 154.318 134.591,155.004 135.149,155.712 135.622 C 156.956 136.451,156.949 136.431,155.506 135.040 C 153.589 133.192,153.068 133.227,150.947 135.347 M250.800 133.893 C 252.248 134.159,252.800 134.747,252.800 136.025 C 252.800 136.645,252.955 137.249,253.144 137.366 C 253.334 137.483,253.354 136.841,253.189 135.940 C 252.857 134.126,252.294 133.588,250.800 133.661 L 249.800 133.709 250.800 133.893 M156.953 142.727 L 156.905 148.600 157.304 143.071 C 157.533 139.896,157.553 137.396,157.351 137.199 C 157.150 137.002,156.980 139.360,156.953 142.727 M127.600 138.729 C 127.600 139.203,127.240 140.538,126.800 141.696 C 125.799 144.331,125.796 145.037,126.795 143.200 C 127.604 141.712,128.263 138.530,127.848 138.115 C 127.712 137.978,127.600 138.255,127.600 138.729 M252.957 143.600 C 252.957 146.570,253.020 147.785,253.097 146.300 C 253.174 144.815,253.174 142.385,253.097 140.900 C 253.020 139.415,252.957 140.630,252.957 143.600 M243.700 142.923 C 243.165 144.743,242.822 146.919,242.854 148.292 L 242.909 150.600 243.214 147.800 C 243.383 146.260,243.819 144.134,244.185 143.075 C 244.550 142.016,244.793 140.860,244.724 140.506 C 244.656 140.152,244.195 141.240,243.700 142.923 M274.292 145.561 C 274.125 147.849,274.064 149.797,274.157 149.890 C 274.419 150.152,274.888 144.374,274.733 142.800 C 274.657 142.030,274.458 143.272,274.292 145.561 M188.429 143.400 C 188.394 143.840,188.108 144.920,187.794 145.800 C 187.479 146.680,187.135 148.210,187.028 149.200 C 186.921 150.190,186.928 150.640,187.043 150.200 C 187.159 149.760,187.619 148.208,188.066 146.752 C 188.513 145.295,188.792 143.765,188.686 143.352 C 188.506 142.651,188.488 142.655,188.429 143.400 M147.866 146.419 C 147.462 147.563,147.059 149.512,146.969 150.749 C 146.806 152.996,146.807 152.995,147.354 150.166 C 147.655 148.607,148.115 146.932,148.376 146.445 C 148.637 145.957,148.794 145.284,148.725 144.949 C 148.656 144.614,148.270 145.275,147.866 146.419 M125.452 146.674 C 125.159 149.125,124.783 157.599,125.002 156.800 C 125.256 155.877,126.014 145.081,125.838 144.904 C 125.752 144.819,125.579 145.615,125.452 146.674 M210.263 149.100 C 210.125 150.585,209.629 152.880,209.162 154.200 C 208.557 155.909,208.275 157.809,208.182 160.800 L 208.051 165.000 208.398 160.889 C 208.591 158.611,209.128 155.672,209.604 154.298 C 210.392 152.019,211.183 146.400,210.715 146.400 C 210.605 146.400,210.402 147.615,210.263 149.100 M155.853 151.612 C 155.449 153.180,155.054 155.574,154.976 156.931 L 154.833 159.400 155.206 157.066 C 155.412 155.782,155.869 153.577,156.223 152.166 C 156.577 150.755,156.804 149.411,156.727 149.181 C 156.650 148.950,156.257 150.044,155.853 151.612 M251.699 153.064 C 251.204 155.055,250.825 157.205,250.854 157.842 C 250.905 158.916,250.921 158.927,251.079 158.000 C 251.173 157.450,251.614 155.619,252.060 153.931 C 252.506 152.244,252.809 150.544,252.734 150.154 C 252.659 149.764,252.193 151.074,251.699 153.064 M178.472 151.644 C 178.432 152.438,178.313 153.968,178.206 155.044 L 178.012 157.000 178.422 155.400 C 178.648 154.520,178.768 152.990,178.688 152.000 C 178.561 150.413,178.536 150.371,178.472 151.644 M273.300 153.077 C 272.617 157.005,272.731 158.876,273.453 155.600 C 273.769 154.170,273.976 152.370,273.913 151.600 C 273.824 150.494,273.695 150.804,273.300 153.077 M219.700 154.516 C 219.205 156.102,218.824 157.940,218.854 158.600 C 218.903 159.673,218.927 159.694,219.077 158.800 C 219.170 158.250,219.616 156.601,220.068 155.134 C 220.520 153.668,220.824 152.281,220.745 152.051 C 220.665 151.821,220.195 152.930,219.700 154.516 M186.322 158.400 C 186.153 160.951,185.704 163.621,185.177 165.200 C 184.665 166.734,184.257 169.111,184.181 171.000 L 184.052 174.200 184.395 170.962 C 184.583 169.182,185.011 167.069,185.346 166.268 C 186.159 164.323,186.886 159.126,186.728 156.400 C 186.629 154.696,186.537 155.146,186.322 158.400 M242.322 158.059 C 242.170 159.962,241.765 162.189,241.422 163.008 C 241.080 163.827,240.807 164.791,240.816 165.149 C 240.842 166.248,241.932 163.343,242.408 160.904 C 242.656 159.637,242.800 157.700,242.729 156.600 C 242.621 154.927,242.555 155.165,242.322 158.059 M146.220 160.500 C 146.081 162.535,146.109 164.686,146.283 165.281 C 146.489 165.983,146.626 164.685,146.673 161.581 C 146.761 155.866,146.570 155.410,146.220 160.500 M177.300 158.459 C 176.576 160.482,176.683 161.741,177.432 160.015 C 177.763 159.253,177.981 158.276,177.917 157.845 C 177.830 157.263,177.671 157.421,177.300 158.459 M123.900 161.256 C 122.954 165.918,122.989 169.107,124.000 170.400 C 124.958 171.625,125.011 171.347,124.149 169.618 C 123.445 168.207,123.606 163.649,124.445 161.244 C 124.672 160.591,124.800 159.550,124.729 158.931 C 124.645 158.199,124.356 159.009,123.900 161.256 M272.256 160.245 C 272.115 161.272,272.025 163.122,272.056 164.356 C 272.098 166.023,272.196 165.576,272.440 162.617 C 272.786 158.407,272.686 157.109,272.256 160.245 M250.476 162.850 C 250.434 164.088,250.311 165.708,250.201 166.450 L 250.003 167.800 250.420 166.470 C 250.650 165.739,250.774 164.119,250.695 162.870 L 250.551 160.600 250.476 162.850 M175.663 162.800 L 174.776 164.000 165.456 164.000 L 156.135 164.000 155.600 163.001 C 155.306 162.451,154.981 162.085,154.879 162.188 C 154.776 162.291,154.990 162.831,155.355 163.388 L 156.018 164.400 165.428 164.400 L 174.838 164.400 175.819 163.342 C 176.670 162.424,177.075 161.600,176.675 161.600 C 176.607 161.600,176.151 162.140,175.663 162.800 M218.314 166.450 C 218.139 168.812,217.702 171.127,217.183 172.443 C 216.710 173.643,216.272 175.823,216.187 177.394 L 216.037 180.200 216.442 177.200 C 216.665 175.550,217.093 173.823,217.393 173.361 C 218.078 172.307,218.902 166.788,218.730 164.400 C 218.641 163.167,218.510 163.813,218.314 166.450 M240.338 167.790 C 240.256 168.818,240.410 169.872,240.698 170.266 C 240.974 170.644,241.200 170.769,241.200 170.543 C 241.200 170.318,241.074 170.007,240.920 169.854 C 240.766 169.700,240.690 168.770,240.751 167.787 C 240.894 165.455,240.524 165.458,240.338 167.790 M146.800 167.291 C 146.800 168.268,156.299 177.616,158.600 178.904 C 158.903 179.074,159.666 179.704,160.296 180.306 C 160.927 180.908,162.292 182.120,163.331 183.000 C 165.364 184.722,167.645 186.961,169.648 189.200 C 170.346 189.981,170.702 190.217,170.454 189.734 C 169.888 188.634,165.547 184.214,163.242 182.391 C 162.276 181.626,160.926 180.504,160.242 179.897 C 159.559 179.290,157.654 177.670,156.009 176.297 C 152.260 173.167,149.138 169.984,147.488 167.611 C 146.972 166.870,146.800 166.790,146.800 167.291 M207.657 168.400 C 207.611 169.170,207.226 170.790,206.800 172.000 C 206.374 173.210,206.024 174.560,206.021 175.000 C 206.019 175.440,206.467 174.540,207.016 173.000 C 207.642 171.246,207.964 169.603,207.878 168.600 C 207.741 167.018,207.739 167.016,207.657 168.400 M270.894 169.520 L 269.987 171.400 270.994 170.278 C 271.547 169.660,272.000 168.805,272.000 168.378 C 272.000 167.304,271.924 167.382,270.894 169.520 M248.735 169.366 C 247.760 170.496,247.406 170.620,244.535 170.834 L 241.400 171.068 244.153 171.134 C 247.049 171.203,249.226 170.351,249.770 168.935 C 250.160 167.918,249.887 168.032,248.735 169.366 M124.818 171.720 C 124.769 172.593,126.349 174.827,128.411 176.800 C 130.547 178.844,133.941 181.800,134.153 181.800 C 134.204 181.800,132.473 180.111,130.305 178.047 C 128.138 175.984,126.021 173.644,125.600 172.847 C 125.180 172.051,124.827 171.544,124.818 171.720 M269.251 173.362 C 269.003 174.348,268.474 175.390,268.075 175.677 C 267.677 175.965,267.196 176.470,267.007 176.800 C 266.658 177.408,268.310 176.187,268.900 175.400 C 269.319 174.842,270.090 171.957,269.878 171.744 C 269.781 171.648,269.500 172.376,269.251 173.362 M205.720 178.000 C 205.720 179.210,205.795 179.705,205.887 179.100 C 205.978 178.495,205.978 177.505,205.887 176.900 C 205.795 176.295,205.720 176.790,205.720 178.000 M183.521 180.040 C 183.367 181.493,182.945 183.421,182.583 184.327 C 182.220 185.232,182.007 186.204,182.108 186.486 C 182.474 187.508,184.049 181.317,183.924 179.349 C 183.800 177.403,183.800 177.404,183.521 180.040 M263.536 179.435 C 262.807 180.165,264.141 183.263,265.635 184.309 C 266.056 184.604,266.425 185.330,266.454 185.923 C 266.505 186.927,266.521 186.936,266.688 186.057 C 266.807 185.430,266.536 184.760,265.879 184.057 C 264.020 182.068,263.428 180.453,264.233 179.564 C 265.064 178.645,264.441 178.531,263.536 179.435 M205.275 182.800 C 205.230 184.230,205.111 186.390,205.010 187.600 L 204.826 189.800 205.227 187.600 C 205.447 186.390,205.566 184.230,205.492 182.800 L 205.357 180.200 205.275 182.800 M134.800 182.259 C 134.800 182.650,139.182 186.972,139.349 186.746 C 139.408 186.666,138.409 185.545,137.128 184.257 C 135.848 182.968,134.800 182.069,134.800 182.259 M215.672 185.634 C 215.632 186.643,215.230 188.594,214.779 189.970 C 214.327 191.346,214.018 192.654,214.092 192.877 C 214.439 193.916,216.040 187.604,215.897 185.763 L 215.744 183.800 215.672 185.634 M140.600 187.596 C 141.561 188.786,142.328 189.462,143.400 190.061 C 143.840 190.307,144.110 190.425,144.000 190.322 C 141.916 188.385,139.988 186.839,140.600 187.596 M181.467 189.560 C 181.320 190.967,181.226 193.216,181.257 194.559 C 181.297 196.280,181.413 195.644,181.650 192.400 C 182.018 187.374,181.895 185.469,181.467 189.560 M237.830 189.300 C 237.539 190.015,237.205 191.770,237.088 193.200 L 236.874 195.800 237.260 193.600 C 238.118 188.715,237.893 188.996,240.914 189.031 C 245.090 189.080,245.155 189.195,245.301 196.753 L 245.422 203.000 245.498 196.800 C 245.587 189.607,245.517 189.425,242.336 188.578 C 239.053 187.704,238.440 187.803,237.830 189.300 M266.963 195.200 C 266.963 198.830,267.023 200.315,267.098 198.500 C 267.172 196.685,267.172 193.715,267.098 191.900 C 267.023 190.085,266.963 191.570,266.963 195.200 M203.834 192.011 C 203.443 193.207,203.052 195.179,202.966 196.393 L 202.809 198.600 203.397 195.800 C 203.721 194.260,204.187 192.514,204.433 191.920 C 204.679 191.327,204.805 190.615,204.713 190.339 C 204.621 190.063,204.225 190.815,203.834 192.011 M170.963 198.000 C 170.963 201.630,171.023 203.115,171.098 201.300 C 171.172 199.485,171.172 196.515,171.098 194.700 C 171.023 192.885,170.963 194.370,170.963 198.000 M146.601 193.365 C 147.173 194.116,147.931 194.841,148.284 194.977 C 148.637 195.112,148.223 194.498,147.363 193.612 C 145.452 191.642,145.232 191.570,146.601 193.365 M213.460 195.690 C 213.321 196.851,213.232 199.150,213.262 200.800 C 213.307 203.258,213.375 202.899,213.634 198.809 C 213.967 193.561,213.888 192.131,213.460 195.690 M235.689 198.696 C 235.200 200.214,234.821 202.074,234.847 202.828 C 234.891 204.097,234.918 204.065,235.208 202.400 C 235.381 201.410,235.821 199.733,236.186 198.674 C 236.551 197.615,236.788 196.565,236.714 196.342 C 236.639 196.118,236.178 197.177,235.689 198.696 M149.324 198.600 C 149.326 199.920,149.401 200.412,149.490 199.693 C 149.579 198.974,149.577 197.894,149.486 197.293 C 149.395 196.692,149.322 197.280,149.324 198.600 M180.924 199.400 C 180.926 200.720,181.001 201.212,181.090 200.493 C 181.179 199.774,181.177 198.694,181.086 198.093 C 180.995 197.492,180.922 198.080,180.924 199.400 M130.600 197.989 L 140.600 198.200 140.833 200.600 L 141.066 203.000 141.133 200.780 C 141.233 197.480,141.604 197.588,130.420 197.689 L 120.600 197.779 130.600 197.989 M119.539 198.700 C 118.700 199.705,117.994 201.495,118.034 202.519 C 118.062 203.223,118.140 203.159,118.422 202.200 C 118.617 201.540,119.153 200.325,119.613 199.500 C 120.513 197.890,120.483 197.570,119.539 198.700 M148.928 203.600 C 148.928 205.030,149.001 205.615,149.089 204.900 C 149.178 204.185,149.178 203.015,149.089 202.300 C 149.001 201.585,148.928 202.170,148.928 203.600 M179.668 204.570 C 179.190 206.091,178.821 207.979,178.847 208.767 C 178.893 210.157,178.904 210.146,179.208 208.400 C 179.381 207.410,179.821 205.733,180.186 204.674 C 180.551 203.615,180.779 202.536,180.692 202.277 C 180.606 202.018,180.145 203.050,179.668 204.570 M139.670 206.298 C 139.113 208.163,138.806 210.051,138.903 211.006 L 139.066 212.600 139.133 210.963 C 139.170 210.062,139.566 208.262,140.014 206.963 C 140.461 205.663,140.776 204.281,140.714 203.892 C 140.651 203.503,140.182 204.585,139.670 206.298 M244.920 205.200 C 244.920 206.410,244.995 206.905,245.087 206.300 C 245.178 205.695,245.178 204.705,245.087 204.100 C 244.995 203.495,244.920 203.990,244.920 205.200 M117.456 205.445 C 117.315 206.472,117.228 208.952,117.262 210.956 C 117.320 214.348,117.345 214.227,117.616 209.200 C 117.924 203.490,117.876 202.376,117.456 205.445 M202.292 206.325 C 202.126 207.934,201.722 209.891,201.395 210.674 C 201.068 211.457,200.807 212.391,200.816 212.749 C 200.842 213.844,201.931 210.948,202.412 208.502 C 202.661 207.234,202.805 205.568,202.730 204.798 C 202.637 203.829,202.502 204.297,202.292 206.325 M212.901 205.400 C 212.905 206.280,212.987 206.593,213.083 206.095 C 213.179 205.598,213.175 204.878,213.075 204.495 C 212.975 204.113,212.896 204.520,212.901 205.400 M266.472 206.850 C 266.432 207.648,266.305 208.907,266.189 209.650 C 265.997 210.885,266.015 210.916,266.408 210.015 C 266.644 209.474,266.771 208.214,266.691 207.215 C 266.562 205.618,266.536 205.575,266.472 206.850 M148.446 207.248 C 148.421 207.604,148.040 209.023,147.600 210.400 C 147.160 211.777,146.821 213.556,146.847 214.352 C 146.891 215.713,146.913 215.686,147.213 213.905 C 147.389 212.863,147.831 211.111,148.196 210.011 C 148.562 208.911,148.778 207.693,148.677 207.305 C 148.524 206.721,148.485 206.711,148.446 207.248 M211.677 210.034 C 211.193 211.665,210.819 213.450,210.845 214.000 C 210.884 214.816,210.927 214.853,211.078 214.200 C 211.179 213.760,211.619 212.173,212.056 210.674 C 212.492 209.175,212.783 207.750,212.703 207.508 C 212.622 207.266,212.160 208.402,211.677 210.034 M243.700 210.795 C 243.205 212.275,242.805 213.826,242.810 214.243 C 242.816 214.659,243.274 213.669,243.828 212.041 C 244.382 210.414,244.783 208.862,244.718 208.593 C 244.653 208.325,244.195 209.315,243.700 210.795 M234.463 209.400 C 234.423 210.060,234.304 211.320,234.197 212.200 L 234.003 213.800 234.423 212.460 C 234.654 211.723,234.774 210.463,234.689 209.660 C 234.552 208.366,234.526 208.337,234.463 209.400 M170.263 211.812 C 170.123 213.469,169.725 215.371,169.380 216.039 C 169.034 216.707,168.819 217.457,168.901 217.704 C 169.224 218.672,170.487 214.444,170.695 211.700 C 170.816 210.105,170.826 208.800,170.716 208.800 C 170.607 208.800,170.403 210.155,170.263 211.812 M265.200 212.400 C 264.921 213.074,264.782 213.716,264.892 213.826 C 265.002 213.936,265.321 213.474,265.600 212.800 C 265.879 212.126,266.018 211.484,265.908 211.374 C 265.798 211.264,265.479 211.726,265.200 212.400 M178.481 215.044 C 178.437 216.608,178.313 218.768,178.206 219.844 L 178.012 221.800 178.421 220.200 C 178.645 219.320,178.769 217.160,178.696 215.400 L 178.563 212.200 178.481 215.044 M200.256 215.445 C 200.115 216.472,200.026 218.592,200.059 220.156 C 200.108 222.543,200.167 222.261,200.425 218.400 C 200.751 213.540,200.682 212.339,200.256 215.445 M233.037 215.623 C 232.584 216.753,232.275 218.783,232.186 221.200 L 232.047 225.000 232.400 221.126 C 232.594 218.995,233.044 216.688,233.401 215.999 C 233.757 215.310,233.981 214.543,233.899 214.296 C 233.816 214.048,233.428 214.645,233.037 215.623 M264.256 216.245 C 264.115 217.272,264.025 219.122,264.056 220.356 C 264.098 222.023,264.196 221.576,264.440 218.617 C 264.786 214.407,264.686 213.109,264.256 216.245 M116.901 216.200 C 116.905 217.080,116.987 217.393,117.083 216.895 C 117.179 216.398,117.175 215.678,117.075 215.295 C 116.975 214.913,116.896 215.320,116.901 216.200 M138.288 219.525 C 138.124 221.134,137.722 223.091,137.395 223.874 C 136.647 225.664,136.643 226.530,137.390 225.200 C 138.101 223.933,138.929 219.377,138.735 217.800 C 138.646 217.079,138.468 217.769,138.288 219.525 M210.473 220.000 C 210.379 223.084,209.690 227.603,209.224 228.186 C 208.683 228.863,207.996 232.699,208.053 234.720 C 208.095 236.208,208.174 235.958,208.432 233.520 C 208.612 231.826,209.018 229.936,209.336 229.320 C 210.155 227.731,210.889 222.629,210.706 219.800 L 210.551 217.400 210.473 220.000 M242.465 218.800 C 242.425 219.570,242.304 220.920,242.197 221.800 L 242.003 223.400 242.423 222.062 C 242.654 221.327,242.774 219.977,242.691 219.062 C 242.548 217.491,242.536 217.477,242.465 218.800 M115.666 221.503 C 115.152 223.481,114.812 225.526,114.911 226.049 C 115.091 227.000,115.091 227.000,115.146 225.992 C 115.175 225.438,115.568 223.656,116.018 222.033 C 116.468 220.409,116.783 218.817,116.718 218.494 C 116.653 218.171,116.179 219.525,115.666 221.503 M146.279 221.504 C 146.144 223.254,145.687 225.406,145.231 226.436 C 144.787 227.441,144.333 229.329,144.223 230.632 L 144.023 233.000 144.557 230.400 C 144.851 228.970,145.393 227.116,145.760 226.279 C 146.380 224.867,147.167 218.400,146.719 218.400 C 146.609 218.400,146.411 219.797,146.279 221.504 M168.256 220.245 C 168.115 221.272,168.025 223.032,168.055 224.156 C 168.093 225.586,168.211 225.065,168.445 222.424 C 168.800 218.425,168.686 217.108,168.256 220.245 M177.054 224.000 C 176.676 225.210,176.287 227.370,176.189 228.800 L 176.012 231.400 176.545 228.188 C 176.838 226.421,177.297 224.567,177.564 224.067 C 177.832 223.567,177.981 222.853,177.896 222.479 C 177.810 222.104,177.434 222.784,177.054 224.000 M241.315 224.090 C 240.734 224.833,239.994 227.186,240.036 228.160 C 240.055 228.622,240.308 228.139,240.598 227.087 C 240.887 226.035,241.347 224.905,241.619 224.577 C 241.891 224.249,242.024 223.891,241.914 223.781 C 241.804 223.671,241.534 223.810,241.315 224.090 M199.660 226.034 C 199.627 226.603,199.230 228.194,198.779 229.570 C 198.327 230.946,198.033 232.281,198.124 232.536 C 198.412 233.334,200.068 227.323,199.889 226.131 C 199.724 225.028,199.718 225.026,199.660 226.034 M263.660 226.885 C 263.627 227.482,263.222 228.979,262.761 230.213 C 262.299 231.446,262.005 232.539,262.107 232.641 C 262.493 233.027,264.055 228.043,263.891 226.947 L 263.720 225.800 263.660 226.885 M136.196 228.902 C 135.761 232.961,135.951 233.565,138.142 235.103 L 140.085 236.466 141.837 235.537 C 142.800 235.026,143.689 234.346,143.811 234.026 C 143.995 233.547,143.909 233.553,143.317 234.064 C 141.250 235.848,140.223 235.978,138.187 234.711 L 136.285 233.527 136.538 229.964 C 136.828 225.884,136.596 225.165,136.196 228.902 M231.656 228.000 C 231.620 228.550,231.323 229.884,230.996 230.964 C 230.290 233.288,230.250 234.000,230.824 234.000 C 231.057 234.000,231.157 233.853,231.046 233.674 C 230.935 233.495,231.117 232.419,231.450 231.283 C 231.782 230.147,231.980 228.719,231.887 228.109 C 231.728 227.052,231.717 227.047,231.656 228.000 M167.068 231.879 C 165.917 236.158,165.874 237.767,167.011 234.027 C 167.575 232.171,167.983 230.317,167.918 229.906 C 167.853 229.495,167.471 230.383,167.068 231.879 M114.223 236.500 C 114.080 239.855,114.106 243.082,114.281 243.671 C 114.474 244.320,114.637 241.914,114.693 237.571 C 114.807 228.797,114.575 228.268,114.223 236.500 M238.800 232.219 C 237.474 234.005,236.049 234.559,233.487 234.286 C 232.175 234.146,231.697 234.190,232.200 234.404 C 234.583 235.417,237.689 234.521,239.212 232.383 C 240.414 230.695,240.042 230.548,238.800 232.219 M197.724 235.400 C 197.726 236.720,197.801 237.212,197.890 236.493 C 197.979 235.774,197.977 234.694,197.886 234.093 C 197.795 233.492,197.722 234.080,197.724 235.400 M261.693 234.400 C 261.693 235.170,261.775 235.485,261.876 235.100 C 261.976 234.715,261.976 234.085,261.876 233.700 C 261.775 233.315,261.693 233.630,261.693 234.400 M261.144 237.707 C 261.008 238.756,260.414 240.344,259.824 241.235 C 259.234 242.126,258.811 243.033,258.883 243.249 C 259.188 244.163,261.655 238.462,261.525 237.145 C 261.405 235.929,261.368 235.982,261.144 237.707 M175.595 238.100 C 175.593 238.815,175.306 240.390,174.959 241.600 C 173.719 245.918,173.230 249.049,173.274 252.400 L 173.318 255.800 173.615 251.390 C 173.786 248.859,174.287 245.723,174.791 244.029 C 175.694 240.999,176.312 236.800,175.856 236.800 C 175.715 236.800,175.598 237.385,175.595 238.100 M165.507 239.551 C 165.352 240.733,164.957 242.083,164.628 242.551 C 161.843 246.508,160.964 247.912,161.369 247.757 C 161.629 247.657,162.178 246.996,162.588 246.287 C 162.998 245.579,163.749 244.497,164.257 243.882 C 165.318 242.595,166.106 240.026,165.918 238.470 C 165.834 237.778,165.689 238.160,165.507 239.551 M197.277 240.041 C 197.235 241.274,197.117 243.434,197.015 244.841 L 196.830 247.400 197.223 245.000 C 197.438 243.680,197.556 241.520,197.484 240.200 L 197.354 237.800 197.277 240.041 M207.659 241.200 C 207.621 241.970,207.308 243.590,206.962 244.800 C 205.991 248.201,205.849 249.307,206.576 247.800 C 207.404 246.085,208.080 242.644,207.890 241.111 L 207.728 239.800 207.659 241.200 M258.400 244.339 C 258.400 244.753,256.009 247.262,253.676 249.296 C 252.727 250.123,252.132 250.800,252.353 250.800 C 252.902 250.800,258.800 244.978,258.800 244.435 C 258.800 244.196,258.710 244.000,258.600 244.000 C 258.490 244.000,258.400 244.152,258.400 244.339 M114.813 245.940 C 114.854 246.733,119.698 250.814,120.566 250.786 C 120.805 250.778,120.635 250.553,120.189 250.286 C 119.171 249.677,117.816 248.562,116.118 246.940 C 115.393 246.247,114.806 245.797,114.813 245.940 M195.844 249.691 C 195.431 250.851,195.037 252.970,194.968 254.400 L 194.843 257.000 195.181 254.400 C 195.368 252.970,195.825 251.041,196.198 250.114 C 196.571 249.186,196.812 248.237,196.735 248.005 C 196.657 247.772,196.257 248.531,195.844 249.691 M158.256 249.424 C 157.187 250.181,156.572 250.800,156.890 250.800 C 157.207 250.800,158.172 250.177,159.033 249.417 C 161.019 247.664,160.741 247.666,158.256 249.424 M205.713 249.800 C 205.830 250.240,206.036 251.095,206.170 251.700 C 206.387 252.673,206.588 252.794,207.908 252.747 L 209.400 252.695 208.015 252.447 C 206.844 252.238,206.589 251.996,206.362 250.880 C 206.214 250.154,205.960 249.434,205.797 249.280 C 205.634 249.126,205.596 249.360,205.713 249.800 M122.400 251.075 C 122.730 251.192,123.926 251.714,125.057 252.235 C 126.189 252.756,128.079 253.272,129.257 253.380 C 132.888 253.714,143.381 254.047,143.155 253.821 C 143.037 253.704,139.444 253.454,135.171 253.267 C 127.863 252.947,127.281 252.863,125.403 251.863 C 124.305 251.278,123.045 250.814,122.603 250.832 C 122.038 250.854,121.978 250.926,122.400 251.075 M153.683 251.657 C 151.752 252.894,152.446 253.057,154.472 251.843 C 155.423 251.273,155.930 250.809,155.600 250.811 C 155.270 250.812,154.407 251.193,153.683 251.657 M247.823 251.469 C 247.176 251.819,245.736 252.240,244.623 252.403 L 242.600 252.700 244.520 252.750 C 245.616 252.779,246.988 252.517,247.717 252.139 C 248.420 251.776,249.446 251.341,249.997 251.174 L 251.000 250.869 250.000 250.850 C 249.450 250.840,248.470 251.119,247.823 251.469 M223.925 252.699 C 227.293 252.766,232.693 252.766,235.925 252.699 C 239.156 252.632,236.400 252.577,229.800 252.577 C 223.200 252.577,220.556 252.632,223.925 252.699 M147.400 253.200 L 143.800 253.449 147.200 253.496 C 149.070 253.522,150.960 253.389,151.400 253.200 C 151.840 253.011,151.930 252.878,151.600 252.904 C 151.270 252.930,149.380 253.063,147.400 253.200 M172.914 257.800 C 172.917 258.900,172.995 259.303,173.087 258.695 C 173.179 258.086,173.177 257.186,173.082 256.695 C 172.987 256.203,172.911 256.700,172.914 257.800 M171.700 263.061 C 171.205 264.599,170.821 266.474,170.847 267.228 C 170.890 268.494,170.918 268.461,171.205 266.800 C 171.375 265.810,171.819 264.246,172.191 263.324 C 172.563 262.402,172.808 261.336,172.734 260.956 C 172.660 260.576,172.195 261.523,171.700 263.061 M195.376 260.978 C 196.063 261.528,199.551 261.600,225.503 261.600 C 244.402 261.600,255.120 261.743,255.604 262.002 C 256.283 262.365,256.340 262.817,256.202 266.702 L 256.048 271.000 256.414 266.800 C 256.960 260.544,260.553 261.200,225.729 261.200 C 205.936 261.200,196.062 261.062,195.474 260.778 C 194.630 260.370,194.626 260.377,195.376 260.978 M170.392 273.700 C 170.388 275.075,170.216 277.365,170.010 278.788 C 169.611 281.546,170.106 282.821,171.562 282.784 C 171.945 282.774,171.744 282.521,171.062 282.151 C 170.175 281.671,169.979 281.343,170.174 280.667 C 170.542 279.386,170.963 271.200,170.660 271.200 C 170.517 271.200,170.396 272.325,170.392 273.700 M255.520 274.449 C 255.404 275.465,255.015 276.888,254.655 277.610 C 254.295 278.332,254.006 279.300,254.014 279.761 C 254.032 280.798,255.630 276.680,255.892 274.923 C 255.997 274.221,256.003 273.411,255.906 273.123 C 255.809 272.835,255.635 273.432,255.520 274.449 M252.914 281.900 C 251.932 282.898,252.189 283.086,253.342 282.213 C 253.750 281.904,254.020 281.504,253.942 281.325 C 253.864 281.146,253.401 281.405,252.914 281.900 "
            stroke="none" fill="#84b4d4" fill-rule="evenodd"></path>
    </g>
</svg>